<svg width="24" height="24" viewBox="0 0 24 24" fill="none" xmlns="http://www.w3.org/2000/svg">
<path d="M3.96967 3.59467C3.67678 3.88756 3.67678 4.36244 3.96967 4.65533L11.386 12.0717L3.96967 19.488C3.67678 19.7809 3.67678 20.2558 3.96967 20.5487C4.26256 20.8416 4.73744 20.8416 5.03033 20.5487L12.4467 13.1323L19.863 20.5487C20.1559 20.8416 20.6308 20.8416 20.9237 20.5487C21.2166 20.2558 21.2166 19.7809 20.9237 19.488L13.5073 12.0717L20.9237 4.65533C21.2166 4.36244 21.2166 3.88756 20.9237 3.59467C20.6308 3.30178 20.1559 3.30178 19.863 3.59467L12.4467 11.011L5.03033 3.59467C4.73744 3.30178 4.26256 3.30178 3.96967 3.59467Z" fill="white"/>
</svg>
