<svg viewBox="0 0 28 28" fill="none" xmlns="http://www.w3.org/2000/svg">
<path fill-rule="evenodd" clip-rule="evenodd" d="M28 14C28 21.732 21.732 28 14 28C6.26801 28 0 21.732 0 14C0 6.26801 6.26801 0 14 0C21.732 0 28 6.26801 28 14ZM14.0222 18.8934C16.4126 18.8934 18.4012 17.1797 18.8289 14.9133H23.7663C23.3059 19.8901 19.1191 23.7866 14.0222 23.7866C8.61769 23.7866 4.23584 19.4057 4.23584 14.0002C4.23584 8.59572 8.61673 4.21387 14.0222 4.21387C19.1191 4.21387 23.3059 8.11034 23.7663 13.0871H18.8289C18.4012 10.8217 16.4126 9.10704 14.0222 9.10704C11.3195 9.10704 9.12902 11.2975 9.12902 14.0002C9.12902 16.703 11.3195 18.8934 14.0222 18.8934Z" fill="#2057E3"/>
</svg>
