<svg class="walletconnect__svg--ctrl-logo" width="28" height="28" viewBox="0 0 40 40" fill="none" xmlns="http://www.w3.org/2000/svg">
<g id="_dApp">
<g id="Vector">
<path d="M40 20C40 22.6264 39.4827 25.2272 38.4776 27.6537C37.4725 30.0802 35.9993 32.285 34.1421 34.1421C32.285 35.9993 30.0802 37.4725 27.6537 38.4776C25.2272 39.4827 22.6264 40 20 40C17.3736 40 14.7728 39.4827 12.3463 38.4776C9.91982 37.4725 7.71504 35.9993 5.85786 34.1421C4.00069 32.285 2.5275 30.0802 1.52241 27.6537C0.517314 25.2272 -4.97247e-07 22.6264 0 20C1.00423e-06 14.6957 2.10714 9.60859 5.85787 5.85787C9.60859 2.10714 14.6957 2.21023e-07 20 0C25.3043 -2.0093e-07 30.3914 2.10714 34.1421 5.85787C37.8929 9.60859 40 14.6957 40 20Z" fill="#001405"/>
<path d="M15.6667 25.9391V31.3932C15.6667 32.282 16.3867 33 17.2733 33H22.7267C23.6154 33 24.3333 32.2799 24.3333 31.3932V28.6661C24.3333 27.468 24.8177 26.3846 25.6026 25.6017C26.3876 24.8167 27.4709 24.3323 28.6667 24.3323H31.3934C32.2821 24.3323 33 23.6121 33 22.7254V17.2735C33 16.3847 32.2799 15.6667 31.3934 15.6667H25.9421C25.0534 15.6667 24.3355 16.3868 24.3355 17.2735V20.1325C24.3355 22.4529 22.4543 24.3323 20.1362 24.3323H17.2776C16.3889 24.3323 15.671 25.0524 15.671 25.9391H15.6667Z" fill="white"/>
<path d="M7 22.7267C7 23.6154 7.72006 24.3333 8.60662 24.3333H14.06C14.9488 24.3333 15.6667 23.6133 15.6667 22.7267V20C15.6667 18.8021 16.151 17.7187 16.936 16.936C17.7209 16.151 18.8042 15.6667 20 15.6667H22.7267C23.6154 15.6667 24.3333 14.9466 24.3333 14.06V8.60662C24.3333 7.7179 23.6133 7 22.7267 7H17.2754C16.3867 7 15.6688 7.72006 15.6688 8.60662V11.4652C15.6688 13.7854 13.7876 15.6645 11.4696 15.6645H8.60662C7.7179 15.6645 7 16.3846 7 17.2711V22.7267Z" fill="white"/>
</g>
</g>
</svg>
