<svg  viewBox="0 0 40 25" fill="none" xmlns="http://www.w3.org/2000/svg">
<path d="M8.18677 4.85353C14.7083 -1.61784 25.2817 -1.61784 31.8032 4.85353L32.5881 5.63237C32.9141 5.95594 32.9141 6.48055 32.5881 6.80412L29.9032 9.46838C29.7401 9.63016 29.4758 9.63016 29.3128 9.46838L28.2327 8.3966C23.6831 3.882 16.3068 3.882 11.7573 8.3966L10.6006 9.54438C10.4376 9.70617 10.1732 9.70617 10.0102 9.54438L7.3253 6.88012C6.99922 6.55656 6.99922 6.03195 7.3253 5.70838L8.18677 4.85353ZM37.3558 10.3635L39.7454 12.7347C40.0714 13.0583 40.0714 13.5829 39.7454 13.9064L28.9707 24.5985C28.6446 24.9221 28.1159 24.9221 27.7899 24.5985C27.7899 24.5985 27.7899 24.5985 27.7899 24.5985L20.1426 17.01C20.0611 16.9291 19.929 16.9291 19.8474 17.01C19.8474 17.01 19.8474 17.01 19.8474 17.01L12.2004 24.5985C11.8743 24.9221 11.3456 24.9221 11.0196 24.5985C11.0196 24.5985 11.0195 24.5985 11.0195 24.5985L0.244556 13.9063C-0.0815187 13.5827 -0.0815187 13.0581 0.244556 12.7346L2.63412 10.3634C2.9602 10.0398 3.48887 10.0398 3.81494 10.3634L11.4623 17.9519C11.5438 18.0328 11.676 18.0328 11.7575 17.9519C11.7575 17.9519 11.7575 17.9519 11.7575 17.9519L19.4044 10.3634C19.7305 10.0398 20.2592 10.0398 20.5853 10.3633C20.5853 10.3633 20.5853 10.3633 20.5853 10.3633L28.2326 17.9519C28.3141 18.0328 28.4463 18.0328 28.5278 17.9519L36.175 10.3635C36.5011 10.0399 37.0297 10.0399 37.3558 10.3635Z" fill="#469DF7"/>
</svg>
