<svg width="28" height="28" viewBox="0 0 28 28" fill="none" xmlns="http://www.w3.org/2000/svg">
<path fill-rule="evenodd" clip-rule="evenodd" d="M14 0C21.7268 0 28 6.27317 28 14C28 21.7268 21.7268 28 14 28C6.27317 28 0 21.7268 0 14C0 6.27317 6.27317 0 14 0ZM16.9832 18.6667H11.0157C11.6527 21.5367 12.6968 23.4663 14 25.368C15.393 23.3368 16.3812 21.3897 16.9832 18.6667ZM8.63333 18.6667H3.30517C4.74717 21.9625 7.6265 24.4673 11.186 25.3353C9.96333 23.3135 9.10583 21.0677 8.63333 18.6667ZM24.6948 18.6667H19.3667C18.9105 20.986 18.0892 23.2015 16.8292 25.3097C20.3432 24.4195 23.2657 21.9322 24.6948 18.6667ZM8.35567 11.6667H2.56667C2.25517 13.1985 2.25517 14.7992 2.56667 16.3333H8.30083C8.162 14.7828 8.183 13.216 8.35567 11.6667ZM17.2935 11.6667H10.7053C10.5128 13.2137 10.4895 14.784 10.6435 16.3333H17.3553C17.5105 14.784 17.4848 13.2148 17.2935 11.6667V11.6667ZM25.4333 11.6667H19.6432C19.8158 13.216 19.8368 14.7828 19.6992 16.3333H25.4333C25.7367 14.8342 25.7518 13.244 25.4333 11.6667V11.6667ZM11.2513 2.6495C7.6615 3.5035 4.7565 6.0165 3.30517 9.33333H8.73367C9.24117 6.951 10.108 4.68417 11.2513 2.6495ZM13.9988 2.5935C12.7283 4.6585 11.7705 6.622 11.1253 9.33333H16.8735C16.2505 6.713 15.3137 4.72733 13.9988 2.5935ZM16.7615 2.674C17.9433 4.788 18.7833 7.06067 19.2652 9.33333H24.6948C23.2575 6.048 20.3058 3.549 16.7615 2.674Z" fill="#A2218B"/>
</svg>
