<svg  viewBox="0 0 28 28" fill="none" xmlns="http://www.w3.org/2000/svg">
<path d="M16.728 15.7175C14.57 17.0421 11.6814 17.7243 8.75604 17.5786C6.29643 17.4594 4.27916 16.5851 3.05942 15.1479C1.98711 13.8631 1.57159 12.1676 1.85307 10.2171C1.94847 9.56885 2.14398 8.93895 2.43278 8.34936L2.473 8.26657C3.48545 6.34029 4.988 4.70772 6.83277 3.52955C8.67753 2.35138 10.8009 1.6682 12.994 1.54725C15.1871 1.4263 17.3742 1.87175 19.3402 2.83977C21.3061 3.80778 22.9832 5.26499 24.2062 7.06799C25.4293 8.87098 26.1562 10.9576 26.3154 13.1225C26.4747 15.2875 26.0608 17.4561 25.1144 19.4149C24.1681 21.3737 22.7219 23.0553 20.9183 24.2941C19.1146 25.5329 17.0157 26.2863 14.828 26.48L14.962 28C17.4183 27.7838 19.7751 26.939 21.8005 25.5487C23.8258 24.1585 25.4497 22.2708 26.5122 20.0716C27.5747 17.8725 28.0391 15.4377 27.8597 13.0072C27.6803 10.5767 26.8633 8.23433 25.4892 6.21081C24.115 4.18728 22.2311 2.55244 20.0231 1.46734C17.8151 0.382238 15.3591 -0.11569 12.8971 0.0226107C10.4351 0.160911 8.05205 0.930668 5.98267 2.25605C3.9133 3.58143 2.22902 5.41671 1.09575 7.58108L1.04214 7.69037C0.683877 8.42201 0.441997 9.2039 0.325033 10.0084C-0.0100623 12.3861 0.509333 14.5022 1.86647 16.1315C3.35094 17.9131 5.76699 18.9728 8.66557 19.1118C12.1941 19.2874 15.7026 18.3369 18.1923 16.5885L16.728 15.7175Z" fill="white"/>
<path d="M19.6802 17.4463C18.2761 18.6517 15.0123 20.8373 9.59714 21.1353C3.53526 21.4665 1.00864 19.5193 0.985182 19.4994L0.49594 20.0955L0.988531 19.5094L0 20.6817C0.107231 20.7711 2.52997 22.705 8.21989 22.705C8.68567 22.705 9.17492 22.705 9.68427 22.6653C16.2287 22.3043 19.8243 19.4829 21.0775 18.2775L19.6802 17.4463Z" fill="white"/>
<path d="M22.3073 19.0224C21.4771 20.1009 20.4552 21.0211 19.2915 21.7379C15.1899 24.354 9.97247 24.6918 6.31993 24.5097L6.24286 26.0363C6.85608 26.0661 7.44585 26.0793 8.01887 26.0793C18.3197 26.0793 22.4816 21.4432 23.6444 19.7874L22.304 19.0092" fill="white"/>
<path d="M21.9153 13.2437C22.5982 13.2437 23.1518 12.6966 23.1518 12.0218C23.1518 11.3469 22.5982 10.7998 21.9153 10.7998C21.2324 10.7998 20.6788 11.3469 20.6788 12.0218C20.6788 12.6966 21.2324 13.2437 21.9153 13.2437Z" fill="white"/>
</svg>
