<svg width="40" height="40" viewBox="0 0 24 24" fill="none" xmlns="http://www.w3.org/2000/svg">
<path d="M12 0C18.625 0 24 5.375 24 12C24 18.625 18.625 24 12 24C5.375 24 0 18.625 0 12C0 5.375 5.375 0 12 0Z" fill="#70D44B"/>
<path d="M12 4.9C12.6333 4.9 13.2083 5.25833 13.4917 5.825L18.175 15.2C18.5833 16.025 18.25 17.025 17.425 17.4333C17.1917 17.55 16.9417 17.6083 16.6833 17.6083H7.31667C6.4 17.6083 5.65 16.8583 5.65 15.9417C5.65 15.6833 5.70833 15.425 5.825 15.2L10.5083 5.825C10.7917 5.25 11.3667 4.89167 12 4.9ZM12 3.75C10.9333 3.75 9.95833 4.35 9.48333 5.30833L4.8 14.6833C4.10833 16.075 4.66667 17.7583 6.05833 18.4583C6.45 18.65 6.88333 18.7583 7.31667 18.7583H16.6917C18.2417 18.7583 19.5083 17.5 19.5083 15.95C19.5083 15.5167 19.4083 15.0833 19.2083 14.6917L14.5167 5.30833C14.0417 4.35 13.0667 3.75 12 3.75Z" fill="white"/>
</svg>
