<svg width="40" height="40" viewBox="0 0 24 24" fill="none" xmlns="http://www.w3.org/2000/svg">
<circle cx="12.0316" cy="11.8145" r="10.1824" fill="white"/>
<path fill-rule="evenodd" clip-rule="evenodd" d="M12 24C18.6274 24 24 18.6274 24 12C24 5.37259 18.6274 0 12 0C5.37257 0 0 5.37259 0 12C0 18.6274 5.37257 24 12 24ZM8.37413 17.4365H5.55905C4.89161 17.4365 4.55787 17.4365 4.35801 17.3073C4.14201 17.1676 4.00572 16.9332 3.99129 16.6765C3.9779 16.439 4.1432 16.1494 4.47378 15.5703L4.47393 15.5701L10.6374 4.77236C10.9728 4.18464 11.1406 3.89078 11.354 3.78139C11.5846 3.66322 11.858 3.66301 12.0887 3.78087C12.3023 3.88993 12.4705 4.18357 12.8068 4.77077L14.2283 7.25267L14.2283 7.25275C14.4729 7.6797 14.5951 7.89322 14.6489 8.11845C14.7075 8.36368 14.7076 8.61915 14.6493 8.86438C14.5957 9.08969 14.4736 9.30336 14.2294 9.73057L10.5437 16.1783C10.2959 16.6117 10.172 16.8285 10.0023 16.9905C9.81751 17.1668 9.59346 17.2968 9.34856 17.3697C9.12355 17.4365 8.87376 17.4365 8.37413 17.4365ZM18.4175 17.4365H15.1537C14.4803 17.4365 14.1435 17.4365 13.943 17.3062C13.7264 17.1653 13.5905 16.9291 13.5777 16.6712C13.5658 16.4326 13.7353 16.1418 14.0743 15.5603L15.7034 12.7651C16.0381 12.191 16.2055 11.9039 16.4174 11.7964C16.6463 11.6802 16.9171 11.68 17.1463 11.7958C17.3583 11.903 17.526 12.1899 17.8615 12.7635L17.8616 12.7637L19.4961 15.5587C19.8364 16.1406 20.0065 16.4315 19.9949 16.6704C19.9823 16.9285 19.8465 17.1649 19.6298 17.306C19.4293 17.4365 19.092 17.4365 18.4175 17.4365Z" fill="#E84143"/>
</svg>
