<svg width="40" height="40" viewBox="0 0 24 24" fill="none" xmlns="http://www.w3.org/2000/svg">
<circle cx="12" cy="12" r="12" fill="white"/>
<g filter="url(#filter0_d_10311_71704)">
<path d="M12.9792 10.7367L17.8904 5.85274L16.0272 4L12.0477 7.95751L8.06829 4L6.2052 5.85274L11.1162 10.7367C11.3735 10.9925 11.7106 11.1204 12.0477 11.1204C12.3848 11.1204 12.722 10.9926 12.9792 10.7367ZM20.0886 15.9542L16.1092 11.9967L20.0886 8.03909L18.2255 6.18634L13.3146 11.0703C12.8003 11.582 12.8003 12.4114 13.3146 12.9231L18.2255 17.8071L20.0886 15.9542ZM12.0409 16.0425L16.0203 20L17.8833 18.1473L12.9724 13.2633C12.4578 12.7516 11.6239 12.7516 11.1093 13.2633L6.19839 18.1473L8.06147 20L12.0409 16.0425ZM10.774 12.9298C11.0211 12.684 11.1599 12.3509 11.1599 12.0034C11.1599 11.6559 11.0211 11.3227 10.774 11.077L5.86308 6.19305L4 8.0459L7.97943 12.0034L4 15.961L5.86308 17.8138L10.774 12.9298Z" fill="black"/>
</g>
<defs>
<filter id="filter0_d_10311_71704" x="1.018" y="1.018" width="22.0526" height="21.964" filterUnits="userSpaceOnUse" color-interpolation-filters="sRGB">
<feFlood flood-opacity="0" result="BackgroundImageFix"/>
<feColorMatrix in="SourceAlpha" type="matrix" values="0 0 0 0 0 0 0 0 0 0 0 0 0 0 0 0 0 0 127 0" result="hardAlpha"/>
<feOffset/>
<feGaussianBlur stdDeviation="1.491"/>
<feColorMatrix type="matrix" values="0 0 0 0 0 0 0 0 0 0 0 0 0 0 0 0 0 0 0.13 0"/>
<feBlend mode="normal" in2="BackgroundImageFix" result="effect1_dropShadow_10311_71704"/>
<feBlend mode="normal" in="SourceGraphic" in2="effect1_dropShadow_10311_71704" result="shape"/>
</filter>
</defs>
</svg>
