<svg width="40" height="40" viewBox="0 0 310 310" fill="none" xmlns="http://www.w3.org/2000/svg">
<path fill-rule="evenodd" clip-rule="evenodd" d="M155 0C240.61 0 310 69.3898 310 155C310 240.61 240.61 310 155 310C69.3898 310 0 240.61 0 155C0 69.3898 69.3898 0 155 0Z" fill="#F0B90B"/>
<path d="M85.1879 155L85.2997 195.986L120.125 216.478V240.474L64.9187 208.095V143.015L85.1879 155ZM85.1879 114.014V137.898L64.9062 125.9V102.017L85.1879 90.0193L105.569 102.017L85.1879 114.014ZM134.669 102.017L154.95 90.0193L175.331 102.017L154.95 114.014L134.669 102.017Z" fill="white"/>
<path d="M99.8434 187.49V163.495L120.125 175.493V199.376L99.8434 187.49ZM134.669 225.073L154.95 237.071L175.331 225.073V248.956L154.95 260.954L134.669 248.956V225.073ZM204.419 102.017L224.7 90.0193L245.081 102.017V125.9L224.7 137.898V114.014L204.419 102.017ZM224.7 195.986L224.812 155L245.094 143.002V208.083L189.887 240.461V216.466L224.7 195.986Z" fill="white"/>
<path d="M210.157 187.49L189.875 199.376V175.493L210.157 163.495V187.49Z" fill="white"/>
<path d="M210.157 122.51L210.268 146.505L175.344 166.998V208.083L155.062 219.968L134.78 208.083V166.998L99.8558 146.505V122.51L120.224 110.512L154.938 131.104L189.863 110.512L210.244 122.51H210.157ZM99.8434 81.5365L154.95 49.0461L210.157 81.5365L189.875 93.5341L154.95 72.942L120.125 93.5341L99.8434 81.5365Z" fill="white"/>
</svg>
