<svg width="40" height="40" viewBox="0 0 24 24" fill="none" xmlns="http://www.w3.org/2000/svg">
<rect width="24" height="24" rx="12" fill="black"/>
<path d="M13.8678 17.2874V19.0805L12.3046 20L10.7874 19.0805V17.2874L12.3046 18.2069L13.8678 17.2874ZM5.5 11.0805L7.01724 12V15.0805L9.63793 16.6437V18.4368L5.5 16V11.0805ZM19.1092 11.0805V16L14.9253 18.4368V16.6437L17.546 15.0805V12L19.1092 11.0805ZM14.9253 8.64368L16.4885 9.56322V11.3563L13.8678 12.9195V16.046L12.3506 16.9655L10.8333 16.046V12.9195L8.12069 11.3563V9.56322L9.68391 8.64368L12.3046 10.2069L14.9253 8.64368ZM8.12069 12.6437L9.63793 13.5632V15.3563L8.12069 14.4368V12.6437ZM16.4885 12.6437V14.4368L14.9713 15.3563V13.5632L16.4885 12.6437ZM7.01724 7.08046L8.58046 8L7.01724 8.91954V10.7126L5.5 9.7931V8L7.01724 7.08046ZM17.592 7.08046L19.1552 8V9.7931L17.592 10.7126V8.91954L16.0747 8L17.592 7.08046ZM12.3046 7.08046L13.8678 8L12.3046 8.91954L10.7874 8L12.3046 7.08046ZM12.3046 4L16.4885 6.43678L14.9713 7.35632L12.3506 5.7931L9.68391 7.35632L8.16667 6.43678L12.3046 4Z" fill="#F3BA2F"/>
</svg>
