<svg width="40" height="40" viewBox="0 0 24 24" fill="none" xmlns="http://www.w3.org/2000/svg">
<path d="M12 24C18.6274 24 24 18.6274 24 12C24 5.37258 18.6274 0 12 0C5.37258 0 0 5.37258 0 12C0 18.6274 5.37258 24 12 24Z" fill="#0AC18E"/>
<path d="M5.76322 8.4639C6.1767 8.35508 6.57144 8.21378 6.98492 8.10496C7.39841 7.99614 7.79314 7.85484 8.20663 7.74602C8.32281 7.72224 8.33653 7.67102 8.31276 7.55484C8.12391 6.92775 7.95382 6.33313 7.76497 5.70604C7.7412 5.58986 7.75492 5.53864 7.8711 5.51486C8.25211 5.42479 8.58189 5.32099 8.94415 5.19845C9.06033 5.17467 9.07908 5.20715 9.0841 5.29085C9.2542 5.88546 9.44305 6.51256 9.61314 7.10717C9.63189 7.13965 9.65064 7.17212 9.65567 7.25582C9.95297 7.17078 10.2828 7.06698 10.5801 6.98193C10.6125 6.96318 10.6075 6.87948 10.6212 6.82825C10.4749 6.34981 10.3473 5.90385 10.2335 5.40667L10.1059 4.96071C10.0684 4.89575 10.0822 4.84453 10.1659 4.8395C10.5469 4.74943 10.9091 4.62688 11.3226 4.51806C11.3551 4.49931 11.3738 4.53179 11.4063 4.51304C11.5526 4.99147 11.6802 5.43744 11.8078 5.8834C11.8691 6.06453 11.9303 6.24566 11.9591 6.44554C11.9829 6.56171 12.0341 6.57544 12.1503 6.55167L13.5033 6.42005C13.9405 6.42741 14.3828 6.51847 14.7976 6.71198C15.3712 7.03037 15.7036 7.53123 15.8737 8.12585C15.9826 8.53933 16.0402 8.93909 15.9304 9.3489C15.848 9.65626 15.6632 9.93616 15.4596 10.1836C15.4272 10.2023 15.4134 10.2536 15.3485 10.2911C15.5346 10.3135 15.702 10.3034 15.8882 10.3259C16.4466 10.3932 16.9127 10.6004 17.3051 10.9801C17.5763 11.2998 17.7688 11.7083 17.8777 12.1217C18.0103 12.6514 18.0729 13.1349 17.9868 13.6608C17.8734 14.2893 17.5499 14.7791 17.0678 15.1441C16.4421 15.6352 15.7551 15.9453 15.0493 16.2229C14.9331 16.2466 14.8869 16.3166 14.9107 16.4328C15.0808 17.0274 15.2696 17.6545 15.4397 18.2491C15.4823 18.3978 15.501 18.4302 15.3011 18.459C14.9713 18.5628 14.5903 18.6529 14.2605 18.7567C14.1444 18.7805 14.1256 18.748 14.1206 18.6643C13.9317 18.0372 13.7429 17.4101 13.6053 16.7968C13.5678 16.7318 13.5815 16.6806 13.4978 16.6856C13.2005 16.7707 12.9032 16.8557 12.5734 16.9595C12.6772 17.2893 12.7485 17.6378 12.8523 17.9676C12.9561 18.2974 13.0274 18.6459 13.1312 18.9757C13.1363 19.0594 13.155 19.0919 13.0388 19.1157C12.6578 19.2057 12.2956 19.3283 11.9333 19.4508C11.8171 19.4746 11.7984 19.4421 11.7934 19.3584C11.6045 18.7313 11.4157 18.1042 11.278 17.4909C11.2593 17.4584 11.273 17.4072 11.2355 17.3422C10.3761 17.5786 9.51663 17.815 8.62471 18.0701C8.61466 17.9027 8.59088 17.7866 8.58084 17.6192C8.54199 17.2519 8.50314 16.8846 8.45057 16.5685C8.4268 16.4524 8.45927 16.4336 8.5567 16.3774C8.82153 16.3111 9.11884 16.226 9.36492 16.1272C9.66223 16.0422 9.78209 15.7998 9.68331 15.5537C9.14925 13.6537 8.61519 11.7537 8.0299 9.83991C7.94485 9.5426 7.61372 9.34407 7.26519 9.41539C6.91665 9.48671 6.58687 9.59051 6.28956 9.67556C6.22461 9.71306 6.17338 9.69933 6.16836 9.61563C6.05954 9.20215 5.93197 8.75619 5.82314 8.3427C5.74949 8.51513 5.74949 8.51513 5.76322 8.4639ZM12.0507 15.5292C12.0832 15.5105 12.1344 15.5242 12.1344 15.5242C12.7291 15.3541 13.3749 15.1977 13.9457 14.9114C14.3542 14.7189 14.7114 14.5127 14.9937 14.1765C15.4982 13.6254 15.2893 12.6635 14.632 12.3501C14.3197 12.1841 13.9661 12.1717 13.6125 12.1593C12.8405 12.1721 12.0835 12.4359 11.359 12.681C11.2428 12.7048 11.2615 12.7373 11.2853 12.8534C11.4079 13.2157 11.4792 13.5642 11.6017 13.9265C11.7343 14.4562 11.8994 14.9671 12.0507 15.5292ZM12.8662 10.6417C12.9312 10.6042 13.0748 10.4779 13.186 10.3705C13.728 9.88431 13.6403 8.98234 12.9967 8.61775C12.6656 8.41921 12.2608 8.39311 11.8936 8.43195C11.3264 8.4996 10.8155 8.66467 10.2533 8.81602C10.1372 8.83979 10.1234 8.89102 10.1472 9.00719C10.3786 9.78294 10.5912 10.5262 10.7901 11.3207C10.7951 11.4044 10.8463 11.4181 10.93 11.4131C11.0787 11.3706 11.1949 11.3468 11.3435 11.3043C11.8682 11.088 12.3466 10.9417 12.8662 10.6417Z" fill="white"/>
</svg>
