<svg width="40" height="40" viewBox="0 0 24 24" fill="none" xmlns="http://www.w3.org/2000/svg">
<rect width="24" height="24" rx="12" fill="#F7931A"/>
<path d="M8.18389 5.61753C8.62458 5.73771 9.06527 5.81784 9.50596 5.93803C9.94665 6.05822 10.3873 6.13834 10.828 6.25853C10.9482 6.29859 10.9883 6.25853 11.0283 6.13834C11.1886 5.45728 11.3488 4.81628 11.5091 4.13521C11.5492 4.01502 11.5892 3.97496 11.7094 4.01502C12.11 4.13521 12.4706 4.21534 12.8712 4.29546C12.9914 4.33552 12.9914 4.37559 12.9513 4.45571C12.7911 5.09671 12.6308 5.77778 12.4706 6.41878C12.4706 6.45884 12.4706 6.4989 12.4305 6.57903C12.751 6.65915 13.1116 6.73928 13.4321 6.81941C13.4722 6.81941 13.5122 6.73928 13.5523 6.69922C13.6725 6.1784 13.7927 5.69765 13.9529 5.17684C13.993 5.01659 14.033 4.85634 14.0731 4.69609C14.0731 4.61596 14.1132 4.5759 14.1933 4.61596C14.5939 4.73615 14.9945 4.81628 15.4352 4.93646C15.4753 4.93646 15.4753 4.97653 15.5153 4.97653C15.3952 5.49734 15.275 5.97809 15.1548 6.45884C15.1147 6.65915 15.0747 6.85947 14.9945 7.05978C14.9545 7.17997 14.9945 7.22003 15.1147 7.26009C15.5554 7.46041 15.9961 7.66072 16.4368 7.86103C16.8374 8.10141 17.198 8.42191 17.4784 8.82253C17.839 9.42347 17.879 10.0645 17.7188 10.7055C17.5986 11.1462 17.4384 11.5468 17.1179 11.8673C16.8775 12.1077 16.557 12.2679 16.2365 12.3881C16.1964 12.3881 16.1563 12.4282 16.0762 12.4282C16.2365 12.5484 16.3967 12.6285 16.557 12.7487C17.0377 13.1092 17.3582 13.5499 17.5185 14.1108C17.5986 14.5515 17.5585 15.0322 17.4384 15.4729C17.2781 16.0338 17.0778 16.5146 16.7172 16.9552C16.2765 17.4761 15.7157 17.7565 15.0747 17.8366C14.2333 17.9568 13.4321 17.8767 12.6308 17.7565C12.5107 17.7164 12.4305 17.7565 12.3905 17.8767C12.2302 18.5177 12.07 19.1987 11.9097 19.8397C11.8697 20 11.8697 20.0401 11.6693 19.9599C11.3088 19.8798 10.9081 19.7596 10.5476 19.6795C10.4274 19.6394 10.4274 19.5994 10.4675 19.5192C10.6277 18.8382 10.788 18.1571 10.9883 17.5161C10.9883 17.436 11.0283 17.3959 10.9482 17.3559C10.6277 17.2757 10.3072 17.1956 9.94665 17.1155C9.86652 17.4761 9.74633 17.8366 9.66621 18.1972C9.58608 18.5577 9.4659 18.9183 9.38577 19.2789C9.34571 19.359 9.34571 19.3991 9.22552 19.359C8.8249 19.2388 8.42427 19.1587 8.02364 19.0786C7.90345 19.0385 7.90346 18.9984 7.94352 18.9183C8.10377 18.2372 8.26402 17.5562 8.46433 16.9152C8.46433 16.8751 8.50439 16.8351 8.50439 16.7549C7.58295 16.5146 6.66151 16.2742 5.70001 16.0338C5.78014 15.8736 5.8202 15.7534 5.90033 15.5931C6.06058 15.2326 6.22083 14.872 6.34101 14.5515C6.38108 14.4313 6.42114 14.4313 6.54133 14.4313C6.82177 14.5114 7.14227 14.5915 7.4227 14.6316C7.7432 14.7117 7.98358 14.5515 8.02364 14.271C8.54446 12.2279 9.06527 10.1847 9.54602 8.10141C9.62615 7.78091 9.42583 7.42034 9.06527 7.30016C8.70471 7.17997 8.34414 7.09984 8.02364 7.01972C7.94352 7.01972 7.90346 6.97966 7.94352 6.89953C8.06371 6.45884 8.18389 5.97809 8.30408 5.5374C8.14383 5.65759 8.14383 5.65759 8.18389 5.61753ZM10.2271 15.513C10.2671 15.513 10.3072 15.5531 10.3072 15.5531C10.9482 15.7133 11.6293 15.9136 12.3103 15.9537C12.7911 15.9937 13.2318 15.9937 13.6725 15.8335C14.4337 15.5931 14.7542 14.5915 14.3135 13.9505C14.1132 13.63 13.7927 13.4297 13.4722 13.2294C12.751 12.8288 11.9097 12.6685 11.1085 12.5083C10.9883 12.4682 10.9883 12.5083 10.9482 12.6285C10.8681 13.0291 10.7479 13.3897 10.6678 13.7903C10.5075 14.3512 10.3873 14.912 10.2271 15.513ZM13.5923 11.4266C13.6725 11.4266 13.8728 11.3865 14.033 11.3465C14.7942 11.1862 15.1948 10.3049 14.7942 9.62379C14.5939 9.26322 14.2333 9.02285 13.8728 8.8626C13.3119 8.62222 12.751 8.50203 12.1501 8.34178C12.0299 8.30172 11.9898 8.34178 11.9498 8.46197C11.7495 9.30329 11.5492 10.1045 11.3088 10.9459C11.2687 11.026 11.3088 11.066 11.3889 11.1061C11.5492 11.1462 11.6693 11.1862 11.8296 11.2263C12.4305 11.3064 12.9513 11.4266 13.5923 11.4266Z" fill="white"/>
</svg>
