<svg width="12" height="12" viewBox="0 0 12 12" fill="none" xmlns="http://www.w3.org/2000/svg">
<path d="M5.34592 9.31118L10.2194 4.41752C10.3034 4.3453 10.3717 4.25643 10.4199 4.15648C10.4681 4.05653 10.4951 3.94767 10.4994 3.83672C10.5037 3.72577 10.485 3.61513 10.4447 3.51175C10.4043 3.40837 10.3431 3.31447 10.2649 3.23596C10.1866 3.15745 10.0931 3.09602 9.99006 3.05551C9.88705 3.01501 9.7768 2.99632 9.66624 3.0006C9.55569 3.00489 9.4472 3.03206 9.34761 3.08042C9.24801 3.12877 9.15945 3.19727 9.08749 3.2816L4.78398 7.60327L2.87338 5.6859C2.79875 5.61039 2.70996 5.55045 2.61214 5.50955C2.51431 5.46865 2.40938 5.44759 2.30341 5.44759C2.19743 5.44759 2.09251 5.46865 1.99468 5.50955C1.89686 5.55045 1.80807 5.61039 1.73344 5.6859C1.58392 5.83684 1.5 6.04102 1.5 6.25386C1.5 6.46669 1.58392 6.67088 1.73344 6.82182L4.21401 9.31118C4.36442 9.46123 4.56788 9.54545 4.77996 9.54545C4.99204 9.54545 5.19551 9.46123 5.34592 9.31118Z" fill="white"/>
</svg>
