<svg width="40" height="40" viewBox="0 0 24 24" fill="none" xmlns="http://www.w3.org/2000/svg">
<path d="M23.9901 12C23.9901 13.5759 23.6798 15.1363 23.077 16.5922C22.4742 18.0481 21.5906 19.371 20.4768 20.4853C19.363 21.5996 18.0406 22.4835 16.5853 23.0865C15.13 23.6896 13.5702 24 11.995 24C10.4198 24 8.86004 23.6896 7.40473 23.0865C5.94943 22.4835 4.62711 21.5996 3.51326 20.4853C2.39942 19.371 1.51587 18.0481 0.913067 16.5922C0.31026 15.1363 -2.98224e-07 13.5759 0 12C6.02292e-07 8.8174 1.26376 5.76516 3.51327 3.51472C5.76277 1.26429 8.81375 1.32614e-07 11.995 0C15.1763 -1.20558e-07 18.2273 1.26429 20.4768 3.51472C22.7263 5.76516 23.9901 8.8174 23.9901 12Z" fill="white"/>
<path fill-rule="evenodd" clip-rule="evenodd" d="M13.0047 5C14.206 4.99927 15.3872 5.3077 16.4346 5.89559C17.482 6.48348 18.3603 7.33102 18.9848 8.35657C18.5018 8.34969 18.0222 8.43885 17.5739 8.61884C17.1256 8.79882 16.7176 9.06607 16.3736 9.40505C16.0296 9.74404 15.7564 10.1479 15.5699 10.5934C15.3834 11.0388 15.2874 11.5168 15.2874 11.9996C15.2874 12.4825 15.3834 12.9605 15.5699 13.4059C15.7564 13.8513 16.0296 14.2552 16.3736 14.5942C16.7176 14.9332 17.1256 15.2004 17.5739 15.3804C18.0222 15.5604 18.5018 15.6496 18.9848 15.6427C18.3487 16.686 17.4504 17.5447 16.3793 18.1335C15.3082 18.7223 14.1015 19.0206 12.8792 18.9989C11.657 18.9771 10.4617 18.636 9.41226 18.0095C8.36278 17.383 7.49566 16.4929 6.89709 15.4276C6.29851 14.3623 5.98933 13.159 6.00028 11.9373C6.01123 10.7156 6.34192 9.51802 6.9595 8.46365C7.57706 7.40927 8.46 6.53479 9.52053 5.92715C10.581 5.31951 11.7823 4.99987 13.0047 5Z" fill="#FFC780"/>
<path fill-rule="evenodd" clip-rule="evenodd" d="M18.9848 8.35435C18.5017 8.34747 18.0221 8.43662 17.5739 8.61661C17.1256 8.79659 16.7176 9.06388 16.3736 9.40282C16.0295 9.74181 15.7563 10.1458 15.5699 10.5911C15.3834 11.0366 15.2874 11.5146 15.2874 11.9974C15.2874 12.4802 15.3834 12.9583 15.5699 13.4037C15.7563 13.8491 16.0295 14.253 16.3736 14.592C16.7176 14.9309 17.1256 15.1982 17.5739 15.3782C18.0221 15.5582 18.5017 15.6473 18.9848 15.6405L18.9633 15.676C18.2515 16.3211 17.3674 16.7455 16.4186 16.8975C15.4699 17.0496 14.4973 16.9227 13.6194 16.5324C12.7415 16.142 11.996 15.505 11.4737 14.6989C10.9514 13.8928 10.6748 12.9523 10.6776 11.992C10.6805 11.0316 10.9625 10.0928 11.4896 9.28977C12.0165 8.48671 12.7657 7.85409 13.646 7.46889C14.5262 7.08369 15.4994 6.96251 16.4473 7.12011C17.3952 7.27771 18.2768 7.7073 18.9848 8.35657L18.9848 8.35435Z" fill="url(#paint0_linear_10315_72317)"/>
<defs>
<linearGradient id="paint0_linear_10315_72317" x1="14.8296" y1="16.9602" x2="14.8296" y2="7.05016" gradientUnits="userSpaceOnUse">
<stop stop-color="#FFC780"/>
<stop offset="1" stop-color="#964B48"/>
</linearGradient>
</defs>
</svg>
