<svg width="40" height="40" viewBox="0 0 24 24" fill="none" xmlns="http://www.w3.org/2000/svg">
<rect width="24" height="24" rx="12" fill="black"/>
<path d="M23.9901 12C23.9901 13.5759 23.6798 15.1363 23.077 16.5922C22.4742 18.0481 21.5906 19.371 20.4768 20.4853C19.363 21.5996 18.0406 22.4835 16.5853 23.0865C15.13 23.6896 13.5702 24 11.995 24C10.4198 24 8.86004 23.6896 7.40473 23.0865C5.94943 22.4835 4.62711 21.5996 3.51326 20.4853C2.39942 19.371 1.51587 18.0481 0.913067 16.5922C0.31026 15.1363 -2.98224e-07 13.5759 0 12C6.02292e-07 8.8174 1.26376 5.76516 3.51327 3.51472C5.76277 1.26429 8.81375 1.32614e-07 11.995 0C15.1763 -1.20558e-07 18.2273 1.26429 20.4768 3.51472C22.7263 5.76516 23.9901 8.8174 23.9901 12Z" fill="white"/>
<path d="M11.928 4L5 8V16L11.928 20L18.8444 16V8L11.928 4ZM16.7925 14.8127L11.9164 17.6254L7.05187 14.8127V9.18732L11.928 6.37464L16.7925 9.18732V14.8127Z" fill="#002D74"/>
<path d="M11.928 20L18.8444 16V8L11.928 4V6.37464L16.7925 9.18732V14.8242L11.9164 17.6369V20H11.928Z" fill="url(#paint0_linear_10321_72430)"/>
<path d="M11.9164 4L5 8V16L11.9164 20V17.6254L7.05187 14.8127V9.17579L11.9164 6.37464V4Z" fill="url(#paint1_linear_10321_72430)"/>
<path d="M15.1556 13.8674L11.928 15.7349L8.68876 13.8674V10.1326L11.928 8.26513L15.1556 10.1326L13.8069 10.9164L11.9164 9.82133L10.0375 10.9164V13.0951L11.928 14.1902L13.8184 13.0951L15.1556 13.8674Z" fill="#002D74"/>
<defs>
<linearGradient id="paint0_linear_10321_72430" x1="11.9375" y1="20.0003" x2="11.9375" y2="12.0002" gradientUnits="userSpaceOnUse">
<stop stop-color="#002D74"/>
<stop offset="1" stop-color="#002D74" stop-opacity="0"/>
</linearGradient>
<linearGradient id="paint1_linear_10321_72430" x1="8.4609" y1="4" x2="8.4609" y2="12.0002" gradientUnits="userSpaceOnUse">
<stop stop-color="#002D74"/>
<stop offset="1" stop-color="#002D74" stop-opacity="0"/>
</linearGradient>
</defs>
</svg>
