<svg width="40" height="40" viewBox="0 0 24 24" fill="none" xmlns="http://www.w3.org/2000/svg">
<path d="M12 24C18.6274 24 24 18.6274 24 12C24 5.37258 18.6274 0 12 0C5.37258 0 0 5.37258 0 12C0 18.6274 5.37258 24 12 24Z" fill="#988430"/>
<path d="M12 23.6156C18.4151 23.6156 23.6156 18.4151 23.6156 12C23.6156 5.58487 18.4151 0.384384 12 0.384384C5.58487 0.384384 0.384384 5.58487 0.384384 12C0.384384 18.4151 5.58487 23.6156 12 23.6156Z" fill="#7A6A2A"/>
<path d="M12 23.3709C18.28 23.3709 23.3709 18.28 23.3709 12C23.3709 5.72004 18.28 0.62912 12 0.62912C5.72004 0.62912 0.62912 5.72004 0.62912 12C0.62912 18.28 5.72004 23.3709 12 23.3709Z" fill="#BA9F33"/>
<path fill-rule="evenodd" clip-rule="evenodd" d="M5.24659 10.7185C5.17862 10.6564 5.10682 10.5942 5.04077 10.5321C4.97472 10.47 4.90688 10.4078 4.83891 10.3457L4.63693 10.1537C4.6039 10.1207 4.56896 10.0916 4.53594 10.0585C4.50291 10.0294 4.46413 9.99642 4.4311 9.96723C4.16307 9.7129 3.8935 9.45856 3.62918 9.2041C3.90298 9.45459 4.17101 9.7033 4.4448 9.9575L4.5399 10.0527C4.57293 10.0856 4.60787 10.1148 4.6409 10.1478L4.84275 10.3342C4.91072 10.3963 4.97677 10.4585 5.04474 10.5262C5.1127 10.5939 5.17875 10.6563 5.24672 10.7182L5.24659 10.7185ZM1.68934 10.6801C1.68934 10.6801 2.66406 10.7809 3.13984 10.8489C3.58054 10.9111 4.95923 11.1227 4.95923 11.1227L1.68934 10.6801ZM1.68934 10.6801C1.96314 10.7034 2.23693 10.7324 2.51072 10.7616C2.6505 10.7752 2.78451 10.7907 2.91853 10.8042L3.12422 10.8276C3.19219 10.8372 3.25824 10.847 3.32621 10.8567L4.14182 10.9868L4.5495 11.0547C4.68352 11.078 4.81754 11.1034 4.95731 11.1267C4.8233 11.1131 4.68352 11.0936 4.5495 11.0742L4.14182 11.0159L3.32621 10.8956C3.25824 10.8859 3.19219 10.8722 3.12422 10.8626L2.9184 10.8389C2.78438 10.8253 2.64461 10.8059 2.51059 10.7903C2.2368 10.7574 1.96301 10.7223 1.68922 10.6797L1.68934 10.6801ZM4.86221 11.3766C4.86221 11.3766 3.82144 11.6408 3.46995 11.7418C3.12435 11.8369 2.0777 12.1554 2.0777 12.1554L4.86208 11.3768L4.86221 11.3766Z" fill="#CFB66C"/>
<path fill-rule="evenodd" clip-rule="evenodd" d="M4.86208 11.3766C4.63104 11.4446 4.40128 11.5107 4.16691 11.5729L3.47174 11.7592C3.2407 11.8272 3.01094 11.8932 2.78054 11.9612L2.43494 12.0563C2.32038 12.0893 2.2039 12.1184 2.0855 12.1516C2.19994 12.1132 2.31654 12.0739 2.4311 12.0408L2.7767 11.9302C3.00774 11.8583 3.2375 11.7903 3.4679 11.7185C3.70278 11.6603 3.93395 11.5981 4.16883 11.5418C4.39206 11.4854 4.62707 11.4292 4.86208 11.3768V11.3766ZM2.22336 12.7962C2.33779 12.7534 3.65824 12.138 3.96506 11.9942C4.11866 11.9223 4.56512 11.7638 4.56512 11.7638L2.22336 12.7962Z" fill="#CFB66C"/>
<path fill-rule="evenodd" clip-rule="evenodd" d="M2.22336 12.7962C2.32422 12.7578 2.41946 12.7108 2.51648 12.6661L2.80384 12.5321L3.38061 12.2545C3.57261 12.1632 3.75923 12.0625 3.95725 11.9767C4.05824 11.9341 4.15923 11.8991 4.2601 11.8661L4.4137 11.8176C4.46605 11.804 4.51469 11.7884 4.5673 11.7748C4.3753 11.8661 4.17318 11.9438 3.98093 12.033C3.78893 12.1283 3.59258 12.206 3.39443 12.2913L2.80806 12.5495C2.6112 12.6292 2.4192 12.7146 2.22323 12.7962H2.22336ZM2.35136 13.3338C2.35136 13.3338 3.54739 12.6328 3.95904 12.4076C4.17459 12.2872 4.87168 11.9415 4.87168 11.9415L2.35136 13.3338Z" fill="#CFB66C"/>
<path fill-rule="evenodd" clip-rule="evenodd" d="M2.35149 13.334C2.55334 13.2097 2.75917 13.0835 2.96499 12.9554L3.27219 12.7689C3.37702 12.7068 3.47802 12.6486 3.5849 12.5865C3.68973 12.5243 3.79072 12.4622 3.89747 12.404C3.94829 12.3726 4.00154 12.3453 4.0567 12.3224L4.21978 12.2409C4.43533 12.1361 4.65088 12.0292 4.87808 11.9379C4.67226 12.0681 4.46054 12.1788 4.24896 12.2932C4.14413 12.3515 4.03725 12.404 3.93242 12.4622C3.82758 12.5204 3.72659 12.5827 3.61971 12.639C3.51488 12.7011 3.41389 12.7593 3.30714 12.8156L2.99059 12.9884L2.35174 13.334H2.35149ZM4.86208 12.0951C4.86208 12.0951 4.1184 12.666 3.87763 12.8485C3.63686 13.031 2.92813 13.5437 2.92813 13.5437L4.86208 12.0951Z" fill="#CFB66C"/>
<path fill-rule="evenodd" clip-rule="evenodd" d="M9.13011 16.699L8.74957 15.9786L8.97088 15.0776L10.5495 14.468L9.87763 13.0894L10.2097 11.6972L10.833 10.4504L12.7593 10.1476L14.1747 8.79808L17.2311 9.02912L17.831 12.2971L16.6757 16.4116L16.0175 18.5418L13.3495 18.6428L12.1107 17.7846L10.6602 17.1786L9.13011 16.699Z" fill="#E2CC85"/>
<path fill-rule="evenodd" clip-rule="evenodd" d="M13.8098 16.6757C13.8098 16.6757 13.4408 16.8447 12.8114 16.8058C12.6292 16.5612 11.3536 16.4466 11.3536 16.4466C11.3536 16.4466 11.1944 16.3981 10.9128 16.5146C10.6294 16.6298 10.3613 16.6156 10.1108 16.6776C9.86035 16.7397 9.61165 16.4136 9.41965 16.3456C9.22765 16.2738 8.97306 16.101 8.97306 16.101L8.43546 16.0485L7.3559 15.5922L5.64083 13.8835L5.17478 14.6131L5.03104 15.516L5.54957 16.586L6.94566 17.8578L9.66797 18.549L11.2815 18.0736L13.3029 17.2192L13.8098 16.6756V16.6757Z" fill="#F1D789"/>
<path fill-rule="evenodd" clip-rule="evenodd" d="M4.13786 10.6369L4.48346 9.5904L4.89523 8.91456L6.22131 8.80384L5.82323 9.96506L4.71462 11.9379L5.17478 13.6991L4.3593 14.1068L4.10867 13.7224L3.90682 12.8408L3.89325 11.8505L4.13786 10.6369Z" fill="#F4ECB4"/>
<path fill-rule="evenodd" clip-rule="evenodd" d="M5.62522 16.6039L5.37088 16.2486C5.37088 16.2486 5.30291 16.0796 5.34182 15.932C5.38022 15.7825 5.37472 15.7728 5.35539 15.7165C5.33606 15.6602 5.17286 15.466 5.18259 15.2989C5.19219 15.13 5.16902 15.0737 5.29318 14.9398C5.42323 14.8097 5.38445 14.5844 5.38445 14.5844L5.55341 14.6893L5.59181 14.631C5.59181 14.631 5.65389 14.6796 5.65389 14.7553C5.66746 14.6505 5.61114 14.165 5.73926 14.0544C5.86739 13.9438 6.09459 14.5728 6.09459 14.5728L5.95482 13.6602L5.59552 12.7244L4.95667 11.87L4.91827 10.9281V10.8466C4.91827 10.8466 4.62502 11.2972 4.54349 11.653C4.48525 11.8976 4.62502 12.1947 4.59597 12.5462C4.57254 12.8957 4.54349 12.8685 4.62886 13.007C4.71424 13.1455 4.92211 13.4303 4.84058 13.6361C4.76877 13.8129 4.52403 13.6886 4.52403 13.6886C4.52403 13.6886 4.47552 13.8322 4.40947 13.8847C4.38618 13.7993 4.36096 13.7449 4.31437 13.6927C4.3104 13.7257 4.3008 13.7704 4.3008 13.7704C4.3008 13.7704 4.25805 13.6364 4.2153 13.4674C4.15718 13.2422 4.09498 12.9452 4.03866 12.7859C4.01536 12.8772 3.95712 13.1548 3.95712 13.1548L3.99014 13.5821L4.14938 14.1684L4.30298 14.5524L4.45248 15.0223L4.5824 15.338L4.68723 15.5788L4.7785 16.1206L5.2192 16.5865L5.45421 16.6915L5.62496 16.604L5.62522 16.6039Z" fill="#F3E19D"/>
<path fill-rule="evenodd" clip-rule="evenodd" d="M4.3689 9.78253C4.3689 9.78253 4.05235 10.3201 3.96122 10.8621C3.87008 11.404 3.78842 11.9767 3.84602 12.7145C3.90426 13.4583 4.01498 13.9145 4.10432 14.2408C4.25792 14.7826 4.65574 15.536 4.65574 15.536L4.66931 15.5068C4.60244 15.3801 4.54907 15.2466 4.51008 15.1087C4.4576 14.9029 4.43814 14.6583 4.38963 14.5476C4.34688 14.437 4.27507 14.3418 4.24013 14.2058C4.2071 14.0758 4.20173 13.87 4.10035 13.7166C4.0576 13.6544 4.00512 13.4913 3.98963 13.3283C3.97018 13.0835 3.99936 12.8097 3.97606 12.5846C3.93331 12.2098 3.90426 11.9555 3.94304 11.7592C3.98182 11.563 4.18394 11.006 4.30822 10.5632C4.38976 10.2797 4.34112 10.0408 4.49062 9.79418C4.64013 9.54957 4.73152 9.33402 4.76442 9.18451C4.80282 9.04858 4.36838 9.78253 4.36838 9.78253H4.3689Z" fill="#F2E8B0"/>
<path fill-rule="evenodd" clip-rule="evenodd" d="M5.86995 9.56698C5.86995 9.56698 5.70688 9.61562 5.62918 9.70099C5.55149 9.78253 5.51846 9.8505 5.41363 9.98835C5.3088 10.1262 5.30291 10.2388 5.21741 10.4116C5.13203 10.5806 4.94362 10.8349 4.92032 10.9262C4.89702 11.0175 4.85824 11.4446 4.80973 11.6466C4.76698 11.8486 4.85824 12.0972 4.85824 12.0972L4.96883 12.0737C4.96883 12.0737 4.96883 12.2175 5.07955 12.3146C5.19014 12.4097 5.2096 11.9922 5.2096 11.9922L5.62317 10.5961L6.2464 10.1728L6.31437 9.83104L5.8697 9.56698H5.86995Z" fill="#F5EEC0"/>
<path fill-rule="evenodd" clip-rule="evenodd" d="M6.1728 10.2001C6.1728 10.2001 5.87955 10.2194 5.73594 10.3244C5.6777 10.367 5.6544 10.4019 5.59232 10.4544C5.47776 10.5495 5.36115 10.6369 5.30496 10.7616C5.24275 10.8858 5.17478 11.0742 5.12819 11.4295C5.10874 11.579 5.10874 11.7169 5.09517 11.8373C5.07571 12.0004 5.04666 12.1304 5.06214 12.2213C5.0816 12.4077 5.27386 12.5048 5.29254 12.7164L5.69062 12.5146L6.06541 11.0368L6.86157 10.5376L6.41101 10.0328L6.17229 10.1992L6.1728 10.2001Z" fill="#E6DB9D"/>
<path fill-rule="evenodd" clip-rule="evenodd" d="M4.0727 20.1509C4.07437 20.1363 4.07603 20.1217 4.0777 20.1068C4.13581 19.6076 4.14566 19.2292 4.18829 18.9923C4.25037 18.6564 4.29312 18.5315 4.28339 18.4058C4.26982 18.2039 4.25434 18.0563 4.27379 17.9009C4.30285 17.6951 4.50483 17.4505 4.49907 17.2815C4.4951 17.1475 4.42714 17.0602 4.3689 16.9787C4.31066 16.8972 4.26406 16.8292 4.26406 16.8292C4.26406 16.8292 4.66214 16.5554 4.6583 15.4524C4.66643 15.4547 4.67426 15.458 4.6816 15.4621L4.8777 16.0193L5.01171 16.1824L5.52627 17.1416L6.18842 17.7844L7.16698 18.4426L7.78061 19.1104L7.84269 20.891L7.04077 21.9318L6.90944 22.1696C5.86607 21.6458 4.90931 20.9649 4.07258 20.1508L4.0727 20.1509Z" fill="#E5CB7A"/>
<path fill-rule="evenodd" clip-rule="evenodd" d="M6.52237 21.8543C6.52237 21.8543 6.53594 21.633 6.71846 21.4893C6.74765 21.5378 6.76698 21.5845 6.76122 21.6193C6.79424 21.5612 7.02528 21.1884 7.54765 21.0912C8.07002 20.9961 8.19622 20.6156 8.19622 20.6156L9.30483 19.6078L10.5728 18.4408L12.1146 17.899L12.8351 17.7222C12.8351 17.7222 12.8486 17.7747 12.8215 17.8912C12.9554 17.8816 13.2525 17.8136 13.5612 17.7048C13.6855 17.6563 13.8021 17.6369 13.8642 17.701C13.9555 17.7864 13.969 17.9884 13.9748 18.1087C14.1243 18.0756 14.2971 17.932 14.4356 17.9456C14.657 17.9689 14.8531 18.2291 15.0784 18.2291C15.3755 18.2291 15.5094 18.0466 15.7172 17.9028C15.8415 17.8175 16.0201 17.7108 16.1211 17.6388C16.3619 17.462 18.9094 16.6834 18.9094 16.6834L19.8026 16.7416L19.9464 17.7009L19.8696 20.2084C19.8601 20.2175 19.8506 20.2269 19.841 20.236L15.7798 22.3571L10.1504 23.2201C8.88938 23.0141 7.67248 22.5955 6.55155 21.9822L6.52275 21.8542L6.52237 21.8543Z" fill="#D8C173"/>
<path fill-rule="evenodd" clip-rule="evenodd" d="M4.41408 20.4699C4.49408 20.3026 4.56602 20.1627 4.57869 20.1126C4.58867 20.2135 4.60698 20.4348 4.64384 20.6701C4.56644 20.6043 4.48986 20.5375 4.41408 20.4698V20.4699Z" fill="#F1D789"/>
<path fill-rule="evenodd" clip-rule="evenodd" d="M8.52634 22.8297L9.2544 22.6272L9.31648 22.6467C9.31648 22.6467 9.3495 22.6661 9.3495 22.732C9.44077 22.6797 9.51846 22.6893 9.57478 22.6545C9.60384 22.7165 9.6329 22.9224 9.76115 22.9476C9.89504 22.9768 10.0388 22.8893 10.1844 22.7788C10.3281 22.6642 10.4916 22.5204 10.6154 22.4622C10.6608 22.5457 10.7011 22.6319 10.7359 22.7204C10.8989 22.5903 11.1825 22.0622 11.5863 22.0718C11.703 21.796 11.898 21.5604 12.1472 21.3942C12.522 21.1398 12.7569 21.1204 13.0501 21.1437C13.1666 20.9924 13.3101 20.864 13.4734 20.7651C13.5219 20.7845 13.6559 20.866 13.823 20.7884C13.9919 20.7108 14.1821 20.4097 14.4326 20.3709C14.5676 20.3524 14.7049 20.3812 14.821 20.4525C14.821 20.4525 15.5506 19.7281 16.054 19.4874C16.0346 19.4291 15.9958 19.2097 16.586 18.7242C16.619 18.7534 16.5957 18.8349 16.619 18.8394C16.6286 18.8394 16.7726 18.7773 16.9549 18.6374C17.1802 18.4686 17.45 18.2918 17.6131 18.2433C17.9203 18.1521 18.2461 18.3384 18.2461 18.3384C18.2739 18.319 18.3047 18.3045 18.3374 18.2957C18.415 18.2821 18.4713 18.2724 18.514 18.2573C18.5102 18.3583 18.5665 18.5311 18.514 18.6806C18.5748 18.7148 18.6392 18.7421 18.706 18.7621C18.6732 18.8339 18.6012 19.0164 18.4809 19.1039C18.5818 19.1524 18.5953 19.2087 18.7391 19.2575C18.6808 19.339 18.5855 19.4789 18.543 19.5647C18.5002 19.6559 18.3468 20.0346 18.2788 20.1782C18.207 20.3219 18.11 20.586 18.0632 20.639C18.0165 20.692 17.8477 20.9166 17.7176 21.0272C17.8328 20.9844 18.3041 20.8408 18.5041 20.7864C18.4445 20.8737 18.1428 21.3213 17.8528 21.7518C16.4641 22.5842 14.9139 23.111 13.3055 23.2972C11.6972 23.4834 10.0676 23.3247 8.52544 22.8316L8.52634 22.8297Z" fill="#E0CD81"/>
<path fill-rule="evenodd" clip-rule="evenodd" d="M6.2208 10.1476C6.2208 10.1476 6.05197 10.1476 6.01894 10.1709C5.98592 10.1942 6.1879 10.2428 6.24998 10.2661C6.31206 10.2894 6.44608 10.3962 6.48102 10.4817C6.51405 10.5632 7.69459 11.0388 7.69459 11.0388L8.52954 10.9961L8.81741 10.5984L8.26982 10.1188L8.65382 8.98675L8.14515 9.06829L6.92186 9.79789L6.30822 10.0329L6.2208 10.1476Z" fill="#DFC57C"/>
<path fill-rule="evenodd" clip-rule="evenodd" d="M8.0544 10.5224C8.06647 10.5419 8.08347 10.5579 8.10369 10.5688C8.12391 10.5797 8.14664 10.5851 8.1696 10.5844C8.3424 10.5844 8.5015 10.6272 8.56755 10.7145C8.67827 10.8544 8.98509 11.301 8.98509 11.301L9.71904 11.5651L9.7664 10.7008L8.96448 10.1436L8.05184 10.4795V10.5222H8.05389L8.0544 10.5224Z" fill="#E5CC7C"/>
<path fill-rule="evenodd" clip-rule="evenodd" d="M7.9104 10.8428C7.9104 10.8428 8.04429 10.8525 8.21325 10.7903C8.38221 10.7281 8.65984 10.5942 8.78029 10.6467C8.94912 10.7185 8.91418 10.9437 9.09683 11.1459C9.20742 11.2701 9.40941 11.2663 9.52397 11.4003C9.63853 11.5343 10.0326 11.4721 10.0326 11.4721L10.1821 12.2785L9.58221 13.0476L9.38598 14.0028H8.57472L7.8336 13.7088L7.46854 12.8256L7.65107 11.9324L7.9104 10.8428Z" fill="#D2C281"/>
<path fill-rule="evenodd" clip-rule="evenodd" d="M9.47968 10.8815C9.4998 10.8877 9.52071 10.891 9.54176 10.8913C9.51846 10.9107 9.46982 10.9533 9.48928 11.0641C9.50874 11.1748 9.57082 11.3146 9.51846 11.3999C9.56026 11.4456 9.59142 11.5 9.60973 11.5592C9.64275 11.6544 9.65248 11.7417 9.8679 11.7554C9.83681 11.7745 9.80815 11.7974 9.78253 11.8234C9.78253 11.8234 9.93203 11.9534 10.0078 12.0737C10.0854 12.0704 10.2912 12.0064 10.2912 12.0064L10.334 12.0356L10.4252 11.9972C10.4252 11.9972 10.3398 11.9642 10.4019 11.7564C10.4602 11.5739 10.5126 11.5836 10.5171 11.57C10.5216 11.5565 10.5599 11.3642 10.5599 11.2865C10.5889 11.1857 10.6122 10.8788 10.6122 10.8788L10.5501 10.2012L10.2007 9.9895L9.91654 9.7152L9.64851 10.22L9.472 10.396L9.45843 10.8329L9.47968 10.8815Z" fill="#E2C270"/>
<path fill-rule="evenodd" clip-rule="evenodd" d="M10.3204 10.3146C10.3204 10.3146 10.3825 10.4913 10.4059 10.6272C10.4141 10.6008 10.4187 10.5733 10.4195 10.5457C10.4195 10.5457 10.468 10.8137 10.4776 10.9244C10.497 10.9204 10.516 10.9147 10.5203 10.934C10.5247 10.9533 10.569 11.169 10.5587 11.2893C10.6396 11.1559 10.7515 11.0441 10.8849 10.9632C10.9626 10.9146 11.0538 10.8622 11.1491 10.8582C11.2986 10.8544 11.4072 10.9535 11.5859 10.9535C12.0169 10.9535 12.4073 10.6369 12.6947 10.5399C12.9062 10.468 13.0888 10.4156 13.2169 10.299C13.2791 10.2467 13.3898 10.1302 13.4907 9.95725C13.6247 9.72685 13.7645 9.52627 13.9044 9.50106C13.8411 9.51269 13.7767 9.51724 13.7124 9.51462C13.7124 9.51462 13.7551 9.47187 13.8276 9.41363C13.9 9.35539 13.9868 9.28358 14.111 9.28358C14.3324 9.28358 14.443 9.31648 14.5673 9.31648C14.6916 9.31264 14.7634 9.28358 14.7634 9.28358C14.7634 9.28358 14.8936 9.37485 15.1867 9.37485C15.4799 9.37869 15.676 9.4039 15.8295 9.4176C15.983 9.4313 16.4974 9.37485 16.645 9.3792C16.7412 9.38291 16.8357 9.40603 16.9228 9.44717L16.447 8.06477L14.7379 6.57101L13.7204 7.29139L12.1553 8.85645L10.6408 9.4176L10.3242 9.77293V10.3146H10.3204Z" fill="#CCB360"/>
<path fill-rule="evenodd" clip-rule="evenodd" d="M13.7185 9.5223C13.7185 9.5223 13.7613 9.47968 13.833 9.42144C13.9046 9.3632 13.9923 9.29126 14.1165 9.29126C14.3378 9.29126 14.4485 9.32429 14.5728 9.32429C14.6971 9.32045 14.7689 9.29126 14.7689 9.29126C14.7689 9.29126 14.8992 9.3824 15.1922 9.3824C15.4854 9.38624 15.6815 9.41146 15.835 9.42502C15.9885 9.43859 16.5029 9.3824 16.6505 9.38662C16.7467 9.39025 16.8411 9.41337 16.9281 9.45459L16.7126 8.83123L16.4622 8.35558L15.7476 7.57299C15.7476 7.57299 14.89 7.06816 14.8835 7.06432C14.8796 7.06048 14.5864 6.98278 14.5864 6.98278L13.8097 7.45267L13.1049 9.27603L13.0913 9.66003L13.5475 9.87558C13.6621 9.68358 13.7884 9.52998 13.9068 9.51053C13.7999 9.52218 13.7184 9.52218 13.7184 9.52218L13.7185 9.5223Z" fill="#D5B457"/>
<path fill-rule="evenodd" clip-rule="evenodd" d="M13.7088 9.65248C13.6408 9.65632 13.5846 9.64275 13.569 9.59424C13.5108 9.43117 13.4642 9.40787 13.4154 9.40787C13.3667 9.40787 13.3009 9.5127 13.2618 9.5223C13.2228 9.5319 13.1764 9.40198 13.1764 9.40198L13.1337 9.38253C13.1337 9.38253 12.8832 9.5456 12.7066 9.73786C12.5299 9.93011 12.2405 10.2564 12.1105 10.3145C11.9804 10.3726 11.5337 10.3922 11.3809 10.4252C11.228 10.4582 11.0586 10.569 11.0353 10.5942C11.012 10.6194 11.1034 10.6465 11.1169 10.6717C11.1305 10.695 10.9673 10.6853 10.9537 10.7101C10.9441 10.7296 10.9921 10.8402 11.0159 10.8965C11.0576 10.8758 11.1033 10.8645 11.1498 10.8635C11.2993 10.8596 11.4081 10.9587 11.5867 10.9587C12.0178 10.9587 12.4081 10.6422 12.6954 10.545C12.9071 10.4732 13.0897 10.4207 13.2178 10.3043C13.2799 10.2519 13.3906 10.1353 13.4916 9.9625C13.5653 9.8441 13.6372 9.73338 13.7092 9.65184L13.7088 9.65248Z" fill="#D2B257"/>
<path fill-rule="evenodd" clip-rule="evenodd" d="M7.5264 19.2622C7.5264 19.2622 7.488 19.1185 7.13216 18.7476C7.03117 18.6428 6.96909 18.5556 6.90112 18.4933C6.73216 18.334 6.63309 18.2913 6.51277 18.2001C6.2487 18.004 5.96134 18.004 5.74003 17.7632C5.51872 17.5224 5.2608 17.0624 5.0816 16.5923C4.90496 16.1224 4.85632 15.9729 4.85632 15.9593C4.85632 15.9457 4.90496 15.8545 4.96704 15.868C5.02912 15.8816 5.02912 16.0019 5.04474 16.0311C5.07567 16.0787 5.11075 16.1235 5.14957 16.165C5.24083 16.27 5.37088 16.3954 5.43693 16.5825C5.42336 16.4233 5.36896 16.2467 5.36896 16.2467C5.36896 16.2467 5.71072 16.4622 6.00192 16.6874C6.29517 16.9126 6.41549 16.9903 6.50112 17.134C6.58675 17.2776 6.78848 17.6563 6.88512 17.767C6.98176 17.8778 8.30592 18.2952 8.30592 18.2952L8.93581 18.7648L9.24851 19.4502L9.00378 19.8342L8.53389 19.9352L7.77075 19.5935L7.5264 19.2621V19.2622Z" fill="#D2B159"/>
<path fill-rule="evenodd" clip-rule="evenodd" d="M5.83104 16.901C5.83104 16.901 5.99027 17.1553 6.37862 17.3961C6.72819 17.6078 7.28154 17.8001 7.77485 17.9146C8.05824 17.9826 8.34176 18.0349 8.5961 18.0389C9.28154 18.0485 9.75334 17.8525 10.3379 17.7884C10.6545 17.7554 11.0428 17.7302 11.4467 17.6348C11.9651 17.5105 12.2719 17.3706 12.6894 17.174C12.9923 17.0342 13.27 16.9294 13.4952 16.7954C13.8117 16.609 14.0428 16.4013 14.3108 16.3392C14.2778 16.4305 14.2428 16.5935 13.9788 16.7625C14.1185 16.7585 14.3108 16.7489 14.3108 16.7489C14.3108 16.7489 14.1244 16.8595 13.7962 17.1081C13.5942 17.2617 13.3263 17.5217 13.0525 17.6945C12.8758 17.8052 12.6835 17.8865 12.5573 17.9528C12.2501 18.1217 12.1262 18.2071 11.9244 18.4136C11.9962 18.4097 12.002 18.4136 12.002 18.4136C12.002 18.4136 11.7476 18.4466 11.5652 18.5436C11.5268 18.5436 11.4602 18.53 11.3437 18.5631C11.2525 18.5921 11.132 18.6583 11.0079 18.6931C10.8311 18.7456 10.773 18.7223 10.773 18.7223L10.802 18.7805C10.802 18.7805 10.5716 18.7766 10.4948 18.7844C10.5084 18.7882 10.5046 18.7941 10.5046 18.7941C10.4911 18.7964 10.4781 18.801 10.4662 18.8077C10.4292 18.8316 10.3886 18.8493 10.3459 18.86C10.3226 18.8639 10.3031 18.8639 10.2739 18.8698C10.2836 18.8931 10.3594 19.0234 10.3944 19.1002C10.3653 19.1196 9.92832 19.4497 9.92832 19.4497C9.94187 19.4711 9.95295 19.4939 9.96134 19.5177C9.97491 19.5603 9.9808 19.6225 9.99437 19.6516C10.0273 19.7098 10.0467 19.7196 10.0467 19.7196C10.0467 19.7196 9.99437 19.7293 9.90298 19.7526C9.82541 19.772 9.73018 19.8049 9.59578 19.8244C9.55454 19.8297 9.51306 19.833 9.47149 19.8341C9.49094 19.8769 9.57632 20.0399 9.41901 20.2282C9.2617 20.4165 9.21318 20.4439 9.16467 20.5642C9.14025 20.5458 9.11425 20.5295 9.08698 20.5156C9.03462 20.4923 8.96269 20.4575 8.93747 20.4108C8.92277 20.473 8.9033 20.534 8.87923 20.5933C8.83072 20.7233 8.75891 20.8516 8.74534 20.9486C8.69286 20.8904 8.59584 20.7758 8.46182 20.7991C8.32781 20.8224 8.22106 21.0049 8.19776 21.0574C8.19776 21.0244 8.17446 20.9992 8.1687 21.038C8.16474 21.0807 8.09101 21.5272 7.67936 21.8884C7.67552 21.7971 7.67552 21.5951 7.66579 21.5292C7.62739 21.5676 7.58042 21.6243 7.30074 21.7448C7.02694 21.8651 7.07034 21.9855 7.07034 21.9855C7.07034 21.9855 7.04704 21.7935 7.19462 21.5913C7.34413 21.3894 7.43539 21.2942 7.43539 21.2787C7.43298 21.2629 7.42624 21.2481 7.41594 21.236C7.39648 21.2165 7.3577 21.1932 7.3577 21.1777C7.38099 21.1681 7.61203 21.0574 7.59846 20.8282C7.5849 20.6225 7.4976 20.5156 7.43539 20.4399C7.42579 20.4302 7.52678 20.3584 7.51309 20.3351C7.50336 20.3215 7.3792 20.2301 7.36358 20.1815C7.36725 20.1525 7.37377 20.1239 7.38304 20.0961C7.39661 20.0534 7.40634 20.0242 7.4025 19.9951C7.39277 19.9466 7.34029 19.8126 7.3248 19.799C7.33837 19.8029 7.43539 19.799 7.43539 19.799C7.43539 19.799 7.35782 19.6748 7.34413 19.6165C7.33043 19.5583 7.30138 19.4048 7.28589 19.3757C7.31891 19.3796 7.40045 19.3853 7.40045 19.3757C7.40442 19.3466 7.32864 19.298 7.36205 19.2605C7.38534 19.2644 7.43002 19.2838 7.47264 19.3382C7.44934 19.276 7.41056 19.1557 7.3289 19.1072C7.3673 19.0936 7.49786 19.0586 7.61242 19.1265C7.72698 19.1945 7.76602 19.2896 7.76602 19.2896C7.76602 19.2896 7.83398 19.3421 7.93894 19.4198C8.05926 19.5149 8.21261 19.6502 8.45734 19.7459C8.50982 19.7751 8.64371 19.7751 8.74086 19.7556C8.78317 19.7456 8.82372 19.7292 8.86118 19.7071C8.87471 19.6992 8.88904 19.6926 8.90394 19.6877C8.88306 19.6458 8.85906 19.6055 8.83213 19.5672C8.86515 19.5672 8.90394 19.5712 8.90394 19.5712C8.90394 19.5712 8.92723 19.5187 8.8224 19.4176C8.8457 19.3943 8.87488 19.3792 8.87488 19.3399C8.84186 19.3361 8.78362 19.2876 8.77005 19.2681C8.78938 19.2545 8.81856 19.2099 8.85158 19.1963C8.8224 19.173 8.75059 19.0758 8.71757 19.0662C8.74912 19.0545 8.77964 19.0402 8.80883 19.0235C8.80883 19.0235 8.64576 18.9807 8.59328 18.9458C8.5408 18.9074 8.46323 18.841 8.41664 18.8215C8.368 18.802 8.28262 18.7924 8.24768 18.7535C8.28058 18.7633 8.33306 18.7535 8.37197 18.7535C8.40102 18.7535 8.41472 18.7574 8.42432 18.7574C8.42048 18.7438 8.42048 18.7146 8.49626 18.705C8.5327 18.6995 8.56807 18.6884 8.60109 18.672C8.60109 18.672 8.52915 18.6682 8.44749 18.5905C8.36582 18.5128 8.29798 18.4507 8.25139 18.441C8.20288 18.4312 8.11162 18.474 8.0553 18.47C7.9776 18.4604 7.94458 18.4215 7.94458 18.4215C7.94458 18.4215 7.6864 18.4448 7.1136 18.0954C6.61837 17.7924 6.40282 17.5245 6.40282 17.5245C6.35647 17.5077 6.31167 17.4868 6.26893 17.4623C6.08256 17.3652 5.82426 17.1633 5.83206 16.8991L5.83104 16.901Z" fill="#C2A44D"/>
<path fill-rule="evenodd" clip-rule="evenodd" d="M12.9747 5.24659C13.0196 5.26118 13.0596 5.28811 13.0899 5.32429C13.1812 5.42912 13.2394 5.62714 13.0317 5.83885C13.1132 5.8679 13.1469 5.87725 13.218 5.8679C13.1462 5.95341 12.9832 6.13594 12.9734 6.29517C12.9637 6.42522 13.0452 6.46413 13.0452 6.46413C13.0452 6.46413 12.921 6.60774 12.9152 6.84813C12.9739 6.78194 13.0381 6.72087 13.1072 6.6656C13.2509 6.55104 13.449 6.42099 13.583 6.33946C13.5812 6.37363 13.5858 6.40784 13.5965 6.44032C13.5965 6.44032 13.8469 6.2345 14.0573 6.32589C14.1524 6.36864 14.1097 6.50253 14.1097 6.50253C14.1097 6.50253 14.2399 6.45402 14.3311 6.54528C14.4224 6.63654 14.5514 6.87194 14.6176 6.9632C14.6467 7.00595 14.7224 7.08749 14.8 7.2137C14.906 7.39039 14.9945 7.577 15.0642 7.77088C15.068 7.66989 15.0932 7.5127 15.3807 7.61165C15.6681 7.71264 15.9942 7.92435 16.268 8.34125C16.5418 8.75814 16.6097 9.2288 16.7475 9.408C16.8873 9.5808 17.031 9.86816 17.0408 9.98861C17.0505 10.1091 16.998 10.4973 17.2854 11.5478C17.3669 11.2216 17.4912 10.4973 17.4912 10.4973L17.5592 9.85843L17.6369 7.88173L15.5727 6.16691L13.9592 4.99597L12.9087 5.09696L12.9746 5.24646L12.9747 5.24659Z" fill="#CAA13E"/>
<path fill-rule="evenodd" clip-rule="evenodd" d="M16.8097 8.18829C16.8097 8.18829 16.7805 7.99629 16.2952 7.66989C15.8097 7.34758 15.431 7.34758 15.0816 7.07379C14.8136 6.85824 14.534 6.36301 14.352 6.19994C14.1752 6.03878 14.1462 5.57274 14.1462 5.57274L14.7423 5.07354L15.6288 3.79213L16.3782 2.96691L16.7374 3.46611L17.2366 4.05248L17.5142 5.22918L17.6152 6.95155L16.8088 8.18842L16.8097 8.18829Z" fill="#B59544"/>
<path fill-rule="evenodd" clip-rule="evenodd" d="M17.4098 10.2528C17.4245 9.9916 17.3922 9.72988 17.3146 9.48006C17.1866 9.08198 16.9069 8.37517 16.777 8.11046C16.7245 7.81722 16.7634 7.79392 16.8197 7.7609C16.876 7.72787 17.0877 7.6073 17.2037 7.18426C17.3197 6.76122 17.6795 6.74739 17.6795 6.74739L17.9008 6.58432L18.2368 7.42502L18.5299 8.18432L18.6212 8.76493L18.6892 9.26003L18.5299 10.3067L17.7436 11.0173L17.4097 10.2528H17.4098Z" fill="#C89D3A"/>
<path fill-rule="evenodd" clip-rule="evenodd" d="M6.43699 21.8971C6.45333 21.8869 6.46776 21.8739 6.47962 21.8587C6.49318 21.8392 6.50304 21.8159 6.51264 21.8102C6.5321 21.8004 6.62336 21.7718 6.67187 21.781C6.72038 21.7902 6.84864 21.8431 6.91661 21.8392C7.05638 21.8354 7.21946 21.7285 7.47776 21.7772C7.86611 21.849 7.95738 22.113 8.18266 22.2625C8.33626 22.3675 8.49523 22.3208 8.51853 22.3208H8.57088C8.58061 22.3208 8.65242 22.2392 8.69133 22.2432C8.76902 22.247 8.7767 22.3112 8.82522 22.315C8.93978 22.3286 9.16122 22.2568 9.27194 22.286C9.30477 22.2962 9.33462 22.3143 9.35896 22.3386C9.3833 22.3629 9.4014 22.3928 9.41171 22.4256C9.43501 22.4974 9.41555 22.5887 9.35923 22.6412C9.23891 22.7517 9.12435 22.8567 9.10106 22.9484C9.13069 22.9709 9.15914 22.995 9.1863 23.0205C8.22556 22.7758 7.30119 22.4057 6.43699 21.9197V21.8971Z" fill="#CEB052"/>
<path fill-rule="evenodd" clip-rule="evenodd" d="M16.7767 18.0389C16.7767 18.0389 17.0796 17.6351 17.1845 17.435C17.2893 17.2288 16.8525 14.6176 16.8525 14.6176L17.7302 11.742L17.7068 10.806C17.7068 10.806 17.7495 9.94189 17.8505 9.5671C17.9709 9.78266 18.3457 10.0429 18.4273 10.1807C18.4657 9.91654 18.5961 9.35936 18.5768 8.76518C18.6486 8.87578 18.8214 9.98848 18.8214 9.98848L18.9942 10.7379L19.2195 11.5341L19.47 12.3749L19.6195 12.9555L19.7048 13.0953L19.7768 13.3399L19.8447 13.6041L20.0408 14.2235L20.156 14.7322L20.2473 15.6545C20.2671 15.7252 20.2814 15.7972 20.29 15.8701C20.2939 15.9711 20.2765 16.0293 20.2765 16.0468C20.2765 16.0644 20.3095 16.2682 20.2959 16.4216C20.2765 16.5752 20.2765 16.6954 20.156 16.8056C20.0356 16.9158 19.9599 17.5745 19.9599 17.5745L19.7444 17.4309C19.7444 17.4309 19.7871 17.2347 19.6861 17.0561C19.5852 16.8776 19.3891 16.8406 19.2783 16.8698C19.1677 16.8931 18.9464 16.9279 18.8745 16.9901C18.8065 17.0522 18.6396 17.2444 18.4861 17.3318C18.2941 17.447 17.9813 17.4561 17.8144 17.4949C17.6454 17.5333 17.4591 17.6485 17.2628 17.7823C17.109 17.8819 16.9466 17.9676 16.7775 18.0383L16.7767 18.0389Z" fill="#CCA847"/>
<path fill-rule="evenodd" clip-rule="evenodd" d="M16.7767 22.2816C16.7767 22.2816 16.7895 22.2899 16.8142 22.3035C18.1937 21.6572 19.4298 20.741 20.4494 19.6091C20.4383 19.2161 20.4238 18.8133 20.4079 18.6641C20.375 18.3475 20.3983 18.0252 20.3886 17.8388C20.3789 17.6525 20.274 16.8932 20.2255 16.6971C20.1731 16.501 20.0719 16.4038 20.0566 16.4038C20.043 16.4078 19.9613 16.7729 19.9613 16.8646C19.9613 16.9564 19.9419 17.1773 19.9419 17.2337C19.9283 17.2297 19.9226 17.1953 19.9226 17.1812C19.9031 17.2297 19.8798 17.3152 19.8701 17.3249C19.8604 17.3347 19.8836 17.2434 19.8701 17.2239C19.8565 17.2045 19.8317 17.2142 19.8371 17.1657C19.8394 17.1369 19.8439 17.1084 19.8506 17.0803C19.8506 17.0803 19.7924 17.1657 19.7498 17.3832C19.707 17.5987 19.707 17.6046 19.6915 17.6239C19.678 17.6474 19.6003 17.7249 19.5963 17.7541C19.5924 17.8065 19.6682 17.8589 19.674 17.888C19.6778 17.9366 19.606 18.1618 19.5827 18.272C19.5594 18.3822 19.5692 18.5981 19.5443 18.7089C19.5249 18.8099 19.5059 18.8681 19.4395 18.9107C19.488 18.9204 19.5346 18.934 19.5346 18.934C19.5346 18.934 19.6026 19.2214 19.4298 19.4661C19.3677 19.5515 19.3522 19.5904 19.2861 19.6681C19.156 19.8117 19.055 19.9753 19.0452 20.0817C19.0385 20.0503 19.034 20.0185 19.0317 19.9864C19.0317 19.9864 18.8298 20.2214 18.7443 20.3555C18.6337 20.5283 18.4803 20.5185 18.4371 20.5613C18.394 20.604 18.3846 20.6816 18.3987 20.7438C18.3603 20.7534 18.2881 20.7671 18.2395 20.9166C18.2162 20.9942 18.158 21.0702 18.0667 21.1224C17.9754 21.1747 17.8647 21.1904 17.8084 21.204C17.8569 21.2175 17.8764 21.2175 17.8996 21.233C17.8706 21.2815 17.7366 21.3573 17.5871 21.4545C17.4376 21.5457 17.3656 21.6796 17.3288 21.767C17.2904 21.8486 17.2337 21.9011 17.1424 21.9108C17.1808 21.9341 17.2376 21.9884 17.2667 22.0059C17.2239 22.0156 17.1515 22.0156 17.0221 22.1263C16.8861 22.239 16.8396 22.272 16.7773 22.2817L16.7767 22.2816Z" fill="#C39D3C"/>
<path fill-rule="evenodd" clip-rule="evenodd" d="M14.0749 23.1814C14.1492 23.1293 14.2298 23.0866 14.3146 23.0543C14.6175 22.934 14.9379 22.9107 15.0641 22.8719C15.1845 22.8335 15.2796 22.7805 15.4291 22.7515C15.4252 22.7855 15.4218 22.8175 15.4182 22.8477C14.9775 22.9863 14.5286 23.0978 14.0742 23.1814H14.0749Z" fill="#D2BA6B"/>
<path fill-rule="evenodd" clip-rule="evenodd" d="M19.6608 15.2156C19.6608 15.2156 19.5987 15.5515 19.488 15.7632C19.3773 15.9749 19.2576 16.268 19.2576 16.268C19.2583 16.202 19.2661 16.1362 19.2809 16.0718C19.1411 16.1533 18.8013 16.3496 18.7049 16.4369C18.6136 16.5184 18.4602 16.6621 18.4214 16.7301C18.5126 16.4622 18.6077 16.2214 18.6234 16.1107C18.4836 16.2117 17.831 16.7496 17.4913 17.1049L16.433 17.9612C16.3109 18.0271 16.1851 18.086 16.0563 18.1376C15.8739 18.2152 15.6584 18.2812 15.4991 18.3434C15.5419 18.2289 15.6097 18.1277 15.705 18.0307C15.806 17.9356 16.1088 17.6074 16.1554 17.4547C16.1981 17.2955 16.2079 17.2004 16.1516 17.0664C16.0991 17.0799 15.9788 17.0858 15.8972 17.1091C15.8157 17.1324 15.7283 17.2197 15.7283 17.2197C15.7283 17.2197 15.7903 16.8644 15.9244 16.5285C15.8234 16.5324 15.6506 16.5614 15.6506 16.5614C15.6506 16.5614 15.8913 16.1576 16.3034 15.8761C16.1772 15.903 16.0537 15.9413 15.9345 15.9905C15.6937 16.0915 15.4296 16.241 15.2335 16.3226C15.3441 16.169 16.1208 15.0605 16.583 14.0274C17.0438 12.9964 17.216 12.7323 17.317 12.1789C17.3693 11.9052 17.3554 11.5005 17.3693 11.1382C17.3829 10.7789 17.4276 10.4566 17.3985 10.241C17.5188 10.3905 17.9694 10.8119 17.9849 11.7537C17.9985 12.6954 17.5539 13.9674 17.082 14.6527C17.1972 14.6857 17.4957 14.7246 17.8024 14.1919C18.1091 13.6591 18.1053 13.5104 18.2161 13.289C18.2296 13.3997 18.2257 13.4385 18.2257 13.4385C18.2257 13.4385 18.6724 12.8968 18.884 12.2152C18.9267 12.5084 19.0529 12.7667 18.8548 13.3046C18.6781 13.79 18.4471 13.9085 18.4471 13.9085C18.4471 13.9085 18.5617 13.889 18.7305 13.788C18.7597 13.8598 18.7539 13.9416 18.8024 13.9706C18.8509 13.9995 18.917 14.0483 18.9267 14.0948C18.9791 14.0172 19.0606 13.9181 19.086 13.8444C19.0665 13.998 19.0529 14.6696 19.1244 15.0113C19.274 14.9978 19.4273 14.988 19.5322 14.7181C19.4604 14.9823 19.4604 15.1414 19.5089 15.3667C19.5885 15.3124 19.6603 15.2152 19.6603 15.2152L19.6608 15.2156Z" fill="#C0993A"/>
<path fill-rule="evenodd" clip-rule="evenodd" d="M14.6156 4.51264C14.6156 4.51264 14.466 4.57472 14.2117 4.57472C13.9904 4.57472 14.0525 4.48934 13.7069 4.48934C13.1749 4.48934 11.3166 4.79654 10.9903 4.79219C10.7786 4.78835 11.7048 4.88346 11.7048 4.88346L14.0719 4.91648L14.5476 4.87808L14.7244 4.5184L14.6156 4.51264Z" fill="#A88F33"/>
<path fill-rule="evenodd" clip-rule="evenodd" d="M8.4777 9.13984C8.4777 9.13984 8.17472 9.37088 8.04659 9.54765C7.91846 9.72442 7.8505 9.84077 7.70483 9.98451C7.73902 9.98582 7.77319 9.98123 7.80582 9.97094C7.80582 9.97094 7.80582 10.0093 7.78253 10.0195C7.80266 10.0172 7.82304 10.0195 7.84217 10.0261C7.86131 10.0328 7.87872 10.0436 7.89312 10.0579C7.85037 10.0812 7.73389 10.1978 7.82515 10.3356C7.89312 10.4404 8.03686 10.45 8.03686 10.45C8.03686 10.45 8.00384 10.5453 8.1417 10.5356C8.43878 10.522 8.77082 10.3918 8.92416 10.4248C9.07776 10.4632 9.16506 10.4773 9.27373 10.6657C9.38893 10.8521 9.48928 10.8813 9.48928 10.8813C9.48928 10.8813 9.55725 10.7084 9.54176 10.4502C9.59749 10.311 9.62838 10.1631 9.63302 10.0133L9.53203 9.26963L9.09133 8.71232L8.52045 9.02886L8.4777 9.13946V9.13984Z" fill="#E3C571"/>
<path fill-rule="evenodd" clip-rule="evenodd" d="M9.01939 9.02912C9.01939 9.02912 9.06214 9.13011 9.24083 9.13971C9.22138 9.18246 9.22138 9.18835 9.22726 9.22125C9.2311 9.25427 9.23686 9.30278 9.23686 9.30278C9.25654 9.29326 9.27432 9.28025 9.28934 9.26438C9.29907 9.30714 9.27962 9.37498 9.28934 9.42362C9.29535 9.4532 9.30511 9.48189 9.3184 9.50899C9.32123 9.50235 9.32448 9.4959 9.32813 9.48966C9.33197 9.47994 9.36653 9.5945 9.46214 9.68166C9.46206 9.66826 9.46536 9.65505 9.47174 9.64326C9.47321 9.66761 9.48126 9.6911 9.49504 9.71123C9.48788 9.70782 9.48135 9.70323 9.47571 9.69766C9.47571 9.69766 9.48531 10.0049 9.53779 10.1637C9.54656 10.1534 9.55436 10.1424 9.56109 10.1307C9.56109 10.1211 9.55725 10.2162 9.54752 10.2843C9.53395 10.3523 9.54368 10.4474 9.54368 10.4474C9.57869 10.4198 9.61716 10.3969 9.65811 10.3794C9.71635 10.356 9.81171 10.2842 9.86982 10.1249C9.90354 10.0348 9.92953 9.94187 9.94752 9.8473C9.96629 9.88344 9.97925 9.92232 9.98592 9.9625C9.98989 10.011 10.0812 9.98579 10.0812 9.98579L10.1006 9.77408L10.2158 9.29446L10.3206 8.99738L10.8255 8.21107L11.7376 7.50861L12.5338 7.69114L13.2055 6.7785L12.0483 6.08333L10.9531 6.19789L9.95917 7.57453L9.16314 8.82317L9.01939 9.02899V9.02912Z" fill="#D8B65B"/>
<path fill-rule="evenodd" clip-rule="evenodd" d="M14.7553 7.03693C14.7553 7.03693 14.6874 7.0505 14.4913 7.15213C14.2952 7.25376 14.1592 7.28602 14.0835 7.43552C14.0077 7.58502 14.0019 7.70355 14.0019 7.70355C14.0019 7.70355 14.1359 7.64531 14.2136 7.62586C14.2952 7.60653 14.3864 7.61229 14.3767 7.64531C14.3674 7.66796 14.3544 7.68893 14.3383 7.70739C14.3383 7.70739 14.4919 7.70355 14.4878 7.77933C14.4837 7.8551 14.4588 7.93856 14.4297 7.97542C14.4005 8.01382 14.2802 8.07066 14.2666 8.11533C14.2336 8.20659 14.2802 8.21043 14.2627 8.28416C14.2491 8.3561 14.1851 8.49587 13.9753 8.74048C13.7597 8.98522 13.6681 9.15802 13.6681 9.15802C13.6681 9.15802 13.5633 8.96192 13.5089 8.79296C13.4705 8.81229 13.2643 8.92685 13.2643 8.92685L12.7866 7.26285L12.7962 7.15213C12.7962 7.15213 12.8389 7.09978 12.8486 7.00262C12.7768 6.97933 12.7671 6.95987 12.6719 6.86874C12.5766 6.7776 12.4991 6.66675 12.34 6.59098C12.3167 6.54822 12.2875 6.49011 12.171 6.46669C12.0545 6.44326 11.9846 6.42406 11.9846 6.42406C11.9846 6.42406 12.0467 6.40064 12.0759 6.35213C12.004 6.36186 11.9459 6.38515 11.7885 6.38131C11.6293 6.37734 11.6118 6.37158 11.5245 6.38515C11.4372 6.39872 11.3325 6.43763 11.2934 6.30362C11.2507 6.27059 11.1594 6.29978 11.0817 6.41421C11.004 6.52864 10.9769 6.62003 10.8274 6.6647C10.8169 6.73061 10.7938 6.79387 10.7594 6.85107C10.7167 6.92301 10.6487 6.99482 10.5574 7.10157C10.4137 7.27053 10.437 7.54816 10.2079 7.75987C9.97683 7.97146 10.2463 7.17338 10.2463 7.17338L10.6152 6.29018L11.6657 5.26298L13.2968 5.15238L13.456 5.99718L14.2522 6.27098L14.7551 7.03795L14.7553 7.03693Z" fill="#D3AE4D"/>
<path fill-rule="evenodd" clip-rule="evenodd" d="M15.0136 7.2233L14.3282 6.23501L13.8486 5.86598C13.8486 5.86598 13.5068 5.23699 13.4835 5.21754C13.4641 5.20397 13.1418 5.16902 12.9359 5.15546L12.9743 5.25056C13.0193 5.26515 13.0592 5.29207 13.0895 5.32826C13.1808 5.43309 13.239 5.6311 13.0313 5.84282C13.1128 5.87187 13.1465 5.88122 13.2177 5.87187C13.1459 5.95738 12.9828 6.1399 12.9731 6.29914C12.9633 6.42918 13.0449 6.46797 13.0449 6.46797C13.0449 6.46797 12.9206 6.61171 12.9148 6.85197C12.9735 6.78578 13.0377 6.72471 13.1068 6.66944C13.2506 6.55424 13.4486 6.4247 13.5826 6.34317C13.5808 6.37738 13.5854 6.41164 13.5962 6.44416C13.5962 6.44416 13.8465 6.23834 14.057 6.3296C14.1521 6.37235 14.1093 6.50637 14.1093 6.50637C14.1093 6.50637 14.2395 6.45786 14.3308 6.54912C14.422 6.64038 14.5521 6.87526 14.6181 6.96666C14.6472 7.00941 14.7229 7.09094 14.8005 7.21702C14.9065 7.39375 14.995 7.58041 15.0647 7.77434C15.0685 7.69664 15.0842 7.58797 15.2183 7.58797L15.0144 7.22291L15.0136 7.2233Z" fill="#CAA13E"/>
<path fill-rule="evenodd" clip-rule="evenodd" d="M4.73792 10.0311C4.73792 10.0311 4.68941 9.91066 4.73792 9.67578C4.78643 9.4409 4.86221 9.33018 4.88742 8.98458C4.91264 8.63898 5.13792 8.20787 5.13792 8.20787L5.76115 7.92448L6.20198 8.0448L6.33203 8.63514L5.77472 8.94234C5.77472 8.94234 5.74566 9.07238 5.58835 9.17722C5.43104 9.28205 5.21357 9.36358 5.16122 9.47046C5.12992 9.53591 5.10708 9.60507 5.09325 9.67629C5.09325 9.67629 4.93402 9.64326 4.83891 9.7481C4.73792 9.85498 4.74176 9.95008 4.73792 10.0316V10.0311Z" fill="#F4EFC8"/>
<path fill-rule="evenodd" clip-rule="evenodd" d="M5.99616 9.87379C5.99616 9.87379 5.94368 9.90682 5.9049 9.98899C5.8665 9.92691 5.77472 9.55789 5.77088 9.22586C5.76704 8.89382 5.7472 8.81152 5.824 8.69709C5.9008 8.58266 6.20198 8.46208 6.15923 8.256C6.11648 8.0599 5.93779 7.97837 5.7184 8.03469C5.5648 8.07309 5.4505 8.39974 5.29126 8.56282C5.17082 8.6871 5.0272 8.66765 4.98842 8.73562C4.93594 8.82688 4.98445 8.91814 4.96896 8.97638C4.96499 8.99584 4.91648 9.10067 4.82906 9.22688C4.65242 9.48122 4.35341 9.84051 4.3145 10.1628C4.32806 9.98029 4.31846 9.97645 4.36698 9.77446L4.33779 9.72595L4.52979 9.09683L4.65408 8.57843L4.93184 7.71034L5.42106 6.82304L5.89683 6.29094L6.39194 6.32397L6.45018 7.06765L6.7337 8.46387L7.32979 9.19782L6.3744 9.84077L5.99578 9.87379H5.99616Z" fill="#EBCC73"/>
<path fill-rule="evenodd" clip-rule="evenodd" d="M6.29325 10.1376C6.29325 10.1376 6.21171 10.1571 6.18253 10.1416C6.15334 10.1261 6.12442 10.1085 6.13402 10.0891C6.14362 10.0696 6.1961 10.0367 6.1961 10.0211C6.19717 10.007 6.19271 9.99303 6.18365 9.98216C6.1746 9.97129 6.16166 9.96437 6.14758 9.96288C6.10291 9.95712 6.08934 9.98618 6.08934 9.98618C6.08934 9.98618 6.04659 9.95328 6.01178 9.94778C6.03238 9.94525 6.0531 9.94393 6.07386 9.94381C6.0202 9.9195 5.96328 9.90316 5.9049 9.8953C5.95341 9.86624 6.04864 9.78074 6.11072 9.78074C6.1728 9.78074 6.21171 9.77114 6.20198 9.73811C6.19226 9.70509 6.14374 9.65658 6.09139 9.63712C6.11072 9.61382 6.12442 9.57888 6.07782 9.48352C6.02918 9.38842 6.04864 9.32429 6.06426 9.30112C6.07782 9.27194 6.12634 9.21958 6.14963 9.18656C6.17293 9.15354 6.19238 9.10886 6.23117 9.08557C6.25062 9.072 6.3127 9.04717 6.37491 9.02349C6.44288 9.00019 6.4992 8.97101 6.53798 9.00019C6.58074 9.02925 6.56128 9.06816 6.56128 9.06816C6.56128 9.06816 6.6953 9.01952 6.81562 9.08173C6.93606 9.13984 7.22931 9.17683 7.22931 9.17683L7.3344 9.38854L6.63923 9.98464L6.35187 10.1284L6.29363 10.138L6.29325 10.1376Z" fill="#E5C66B"/>
<path fill-rule="evenodd" clip-rule="evenodd" d="M7.25824 9.16314C7.25824 9.16314 7.04269 9.30688 6.99418 9.35923C7.02323 9.3632 7.07174 9.38266 7.05229 9.41171C7.02899 9.44077 6.88922 9.54176 6.81152 9.63699C6.72998 9.7321 6.65229 9.85254 6.62515 9.91078C6.5961 9.96314 6.37466 10.1166 6.29901 10.1359C6.45824 10.1359 6.77862 9.93984 6.89894 9.93984C6.8951 9.99808 6.93197 10.0641 6.99994 10.0699C7.0679 10.0756 7.264 10.1126 7.52806 9.94957C7.79213 9.79034 7.70483 9.67181 7.81542 9.59424C8.02714 9.45434 8.11251 9.33005 8.22899 9.25248C8.34547 9.17491 8.40576 9.15725 8.40576 9.15725C8.40576 9.15725 8.4096 9.09901 8.44416 9.1049C8.45362 9.10598 8.4626 9.10963 8.47014 9.11545C8.47767 9.12127 8.48347 9.12904 8.48691 9.13792C8.48691 9.13792 8.6889 8.99418 8.94771 8.95539C8.94167 8.95269 8.93684 8.94786 8.93414 8.94182C8.93414 8.94182 8.95347 8.9321 8.95744 8.92237C8.95744 8.92237 8.97101 8.90291 8.98074 8.91264C8.99046 8.92237 9.00403 8.99418 9.02349 9.02336C9.06624 9.0039 9.14778 8.82138 9.14778 8.82138L9.344 8.26022V7.74758L9.1904 7.77677L8.0384 8.26598L7.33926 8.99034L7.25773 9.16314H7.25824Z" fill="#E6BD62"/>
<path fill-rule="evenodd" clip-rule="evenodd" d="M10.5747 6.64858C10.637 6.63346 10.6968 6.60922 10.752 6.57664C10.7287 6.63885 10.7287 6.70682 10.6277 6.8544C10.5267 7.00198 10.5229 7.02336 10.4413 7.1767C10.3598 7.33594 10.3501 7.56506 10.2724 7.66592C10.3072 7.649 10.3446 7.63789 10.383 7.63302C10.383 7.63302 10.3054 7.70099 10.2724 7.7728C10.2394 7.84461 10.1811 7.99411 10.0375 8.0855C9.89389 8.1769 9.71123 8.23501 9.51514 8.45056C9.31891 8.66214 9.11706 8.93018 9.01594 9.02656C9.06842 8.9353 9.14022 8.75277 9.15968 8.63245C9.17914 8.51213 9.15571 8.36826 9.18874 8.20915C9.22176 8.05005 9.22176 7.93536 9.38074 7.6576C9.53971 7.37984 9.81184 6.41485 9.81184 6.41485L10.3982 6.22848L10.575 6.64794L10.5747 6.64858Z" fill="#B6933F"/>
<path fill-rule="evenodd" clip-rule="evenodd" d="M10.1514 6.29325C10.1514 6.29325 9.97478 6.54758 9.92627 6.77286C9.87776 6.99814 9.9223 6.97869 9.89325 7.08941C9.87587 7.15692 9.87587 7.22772 9.89325 7.29523C9.95442 7.19668 10.0382 7.1141 10.1376 7.05434C10.3046 6.95347 10.4406 6.88154 10.5216 6.79616C10.6031 6.7049 10.6711 6.55539 10.8477 6.44083C10.7759 6.4311 10.6749 6.39808 10.6557 6.40243C10.7277 6.3209 10.9431 6.19661 11.1606 6.0471C11.3761 5.8935 11.3626 5.83155 11.7121 5.67821C11.5976 5.69766 11.5432 5.66848 11.4479 5.67821C11.4863 5.59667 11.6207 5.55776 11.7551 5.42387C11.8895 5.28998 11.6698 5.09184 11.6698 5.09184L10.6458 5.71123L10.1507 6.29376L10.1514 6.29325Z" fill="#C49937"/>
<path fill-rule="evenodd" clip-rule="evenodd" d="M7.3728 5.83104L7.3961 5.64467L7.68934 5.17478L7.99616 4.34957V3.22138L7.97286 2.56896L8.02138 2.1417L8.05824 2.00589L8.09715 1.95341L8.34752 2.08346L8.69325 2.55334L8.72627 3.46022L8.39027 4.89126L7.43104 5.93792L7.3728 5.83104Z" fill="#DFC068"/>
<path fill-rule="evenodd" clip-rule="evenodd" d="M8.13594 1.90093C8.13594 1.90093 7.98234 1.9049 7.94957 2.54374C7.9168 3.18259 7.90093 3.51846 7.87763 3.83501C7.85434 4.15155 7.80006 4.34368 7.7728 4.53018C7.74554 4.71667 7.73005 4.97088 7.64275 5.12627C7.60435 5.19808 7.5223 5.42336 7.33005 5.59232C7.1145 5.77869 6.79245 5.90886 6.74368 5.91859C6.65818 5.93792 6.22515 5.98067 6.04851 6.07782C5.98643 6.11085 5.87955 6.14963 5.76115 6.26035C5.52614 6.47194 5.21357 6.85056 4.98829 7.30688C4.64269 7.98848 4.29709 9.9127 4.29709 9.9127L4.37478 9.78266C4.37478 9.78266 4.38451 9.60986 4.55731 9.30688C4.72627 9.00403 4.67776 8.66419 4.91264 8.08358C5.0039 7.86227 5.11846 7.57491 5.25824 7.33018C5.47968 6.9321 5.74758 6.59034 6.01754 6.40397C6.45824 6.10112 6.94374 6.03507 6.94374 6.03507L7.46611 5.68947C7.46611 5.68947 7.55738 5.51283 7.67782 5.31085C7.84666 5.02746 8.06182 4.71091 8.1088 4.25075C8.18074 3.56915 8.00781 3.12256 8.01754 2.71872C8.02726 2.31488 8.0311 2.01779 8.11277 1.94586C8.19443 1.87392 8.13606 1.90118 8.13606 1.90118L8.13594 1.90093Z" fill="#A88F33"/>
<path fill-rule="evenodd" clip-rule="evenodd" d="M8.13594 4.9495C8.13594 4.9495 8.36634 4.38246 8.47181 3.87955C8.49126 3.77856 8.53005 3.6777 8.53978 3.59616C8.58829 3.12038 8.60186 2.92429 8.53978 2.66406C8.49126 2.47206 8.3049 2.29901 8.20774 2.16486C8.11264 2.02496 8.06797 1.97286 8.08742 1.94342C8.10688 1.91398 8.18253 1.86586 8.25626 1.87162C8.33463 1.8739 8.41172 1.89209 8.48284 1.9251C8.55395 1.95811 8.61762 2.00523 8.66995 2.06362C8.81946 2.23642 8.93786 2.82291 8.93786 2.82291L9.0624 3.5968L9.37894 4.57152L8.13619 4.95027L8.13594 4.9495Z" fill="#C99E3D"/>
<path fill-rule="evenodd" clip-rule="evenodd" d="M10.3009 4.3593C10.3009 4.3593 10.2582 4.37862 10.1806 4.3593C10.1839 4.39099 10.1784 4.42299 10.1647 4.45176C10.151 4.48054 10.1296 4.50497 10.1029 4.52237C10.0214 4.48934 9.25811 4.55539 9.25811 4.55539C9.25811 4.55539 8.90278 4.49318 8.79206 4.0233C8.7145 3.71059 8.8503 3.27962 8.80563 2.9961C8.73766 2.57856 8.64256 2.4969 8.63283 2.36698C8.6231 2.23706 8.61338 2.2039 8.61338 2.12237C8.57062 2.11264 8.54541 2.09907 8.50278 2.09907C8.49306 2.06067 8.51238 2.02714 8.46976 1.95917C8.49306 1.9689 8.65229 1.98835 8.83866 2.16499C8.99226 2.30874 8.99226 2.36109 9.01542 2.39027C9.04448 2.41933 9.27949 2.62067 9.38048 2.82138C9.48147 3.02208 9.67757 3.66208 9.72224 3.76691C9.73581 3.80966 9.76499 3.85242 9.83744 3.94944C9.95008 4.08934 10.1151 4.32064 10.3014 4.35904L10.3009 4.3593Z" fill="#B58634"/>
<path fill-rule="evenodd" clip-rule="evenodd" d="M9.04282 2.4C9.16044 2.59002 9.26612 2.78718 9.35923 2.99034C9.47379 3.24851 9.54176 3.46022 9.6855 3.63302C9.60781 3.40787 9.46995 2.96512 9.38842 2.80781C9.29715 2.64141 9.11078 2.46221 9.04282 2.40013V2.4Z" fill="#A88F33"/>
<path fill-rule="evenodd" clip-rule="evenodd" d="M7.72237 5.59232C7.72237 5.59232 7.52627 5.64083 7.16122 5.83309C7.04077 5.89517 6.92634 5.94752 6.81562 5.99616C6.528 6.12621 6.21952 6.2464 5.97478 6.3127C5.99424 6.336 6.00384 6.3456 6.00384 6.3456C6.00384 6.3456 6.00384 6.44083 6.05632 6.4951C6.02726 6.52429 5.63878 6.78835 5.75347 7.67181C5.83104 7.64275 5.9223 7.60384 5.93587 7.60384C5.9593 7.60781 5.96506 7.67181 5.99411 7.67181C6.02317 7.67181 6.1184 7.63341 6.21939 7.50285C6.21555 7.55533 6.15731 8.08346 6.46989 8.43878C6.52813 8.37082 6.67571 8.14554 6.67571 8.14554L6.67955 8.07373C6.67955 8.07373 6.69312 7.82323 6.77478 7.59411C6.85645 7.36499 7.01555 7.19603 7.01555 7.19603L7.8464 6.0096L7.72211 5.59219L7.72237 5.59232Z" fill="#E6C367"/>
<path fill-rule="evenodd" clip-rule="evenodd" d="M6.94566 7.3344C6.90762 7.36128 6.86571 7.38221 6.82138 7.39648C6.80781 7.34797 6.78835 7.18093 6.90291 7.01786C7.03693 6.82163 7.33005 6.5673 7.41158 6.36506C7.46406 6.23488 7.44077 5.90874 7.90682 5.4912C8.37286 5.07366 8.55526 4.93005 8.55526 4.93005L9.30867 4.55142L10.2349 4.91648L9.77472 6.72L9.41747 7.5648L7.99667 7.2969L6.94554 7.3344H6.94566Z" fill="#DCBA5A"/>
<path fill-rule="evenodd" clip-rule="evenodd" d="M7.488 6.84467L7.66477 6.62336V6.46605C7.66477 6.46605 7.86086 6.41357 8.07245 6.19802C8.28403 5.98246 8.57728 5.5689 8.83558 5.59411C9.09389 5.6233 9.1191 6.15526 9.12883 6.3049C9.13856 6.45453 9.17158 6.79411 9.22394 6.97677C9.28218 7.1593 8.59482 7.8505 8.59482 7.8505L8.128 8.20582L7.488 6.84467Z" fill="#E9CE77"/>
<path fill-rule="evenodd" clip-rule="evenodd" d="M8.03494 8.68736C8.03494 8.68736 8.17869 8.46208 8.07334 8.41357C8.13542 8.27379 8.24998 8.12621 8.24998 8.12621C8.24998 8.12621 8.33152 7.92435 8.59558 7.67578C8.85965 7.4272 9.02285 7.26208 9.0656 7.09517C9.09196 6.98639 9.10629 6.87504 9.10835 6.76314C9.1369 6.78646 9.16744 6.80723 9.19962 6.82522C9.24237 6.84467 9.44422 7.01158 9.41517 7.34758C9.38611 7.68358 9.26157 7.82336 9.26157 7.82336C9.26157 7.82336 9.14125 7.94368 9.05587 8.00589C8.96448 8.06797 8.93158 8.13978 8.77811 8.14566C8.79389 8.13312 8.81162 8.12326 8.83059 8.11648C8.83059 8.11648 8.67136 8.09715 8.58586 8.17472C8.50035 8.25229 8.31859 8.49126 8.22733 8.5632C8.13606 8.62144 8.03533 8.68749 8.03533 8.68749L8.03494 8.68736Z" fill="#CDAE50"/>
<path fill-rule="evenodd" clip-rule="evenodd" d="M14.4913 4.91059C14.2619 4.82698 14.0208 4.77982 13.7768 4.77082C13.369 4.75725 12.7729 4.78054 12.1884 4.78438C11.5593 4.78822 10.9884 4.56883 10.1962 4.53005C10.0662 4.45235 9.73542 4.11251 8.70298 4.8329C8.76506 4.82906 9.45254 4.67366 9.69126 4.9728C9.93203 5.26989 9.86406 5.77472 9.83117 5.89504C9.76896 6.16307 9.56698 6.55334 9.48557 6.82714C9.40416 7.10093 9.42336 7.2448 9.36512 7.4368C9.30688 7.6288 9.17875 7.72416 9.2544 7.94547C9.35539 7.88339 9.408 7.88339 9.5767 7.50477C9.74541 7.12614 9.71072 6.85619 9.9904 6.53581C10.2642 6.2135 10.72 5.77267 10.8933 5.66195C11.0666 5.55123 12.4428 4.83674 13.8836 5.51834C14.2312 5.48147 14.4914 4.91046 14.4914 4.91046L14.4913 4.91059Z" fill="#D2A83E"/>
<path fill-rule="evenodd" clip-rule="evenodd" d="M9.28346 4.6464C9.28203 4.63181 9.27881 4.61745 9.27386 4.60365C9.26038 4.57525 9.24269 4.54906 9.22138 4.52595C9.22138 4.52595 8.87962 4.46387 8.70682 4.4832C8.40384 4.51622 8.13005 4.89101 8.00192 5.08326C7.87379 5.27552 7.71456 5.57248 7.54176 5.72595C7.54365 5.711 7.54021 5.69586 7.53203 5.6832C7.53203 5.6832 7.54176 5.69677 7.52243 5.71622C7.5031 5.73568 7.50298 5.74528 7.5127 5.75462L7.54189 5.78368C7.55149 5.78368 7.81952 5.66323 8.18458 5.32288C8.57293 4.96755 8.87002 4.78528 9.02541 4.72282C9.10828 4.6876 9.1949 4.66196 9.28358 4.6464H9.28346Z" fill="#C29637"/>
<path fill-rule="evenodd" clip-rule="evenodd" d="M15.9127 3.18643C15.9127 3.18643 15.8505 3.264 15.7728 3.3495C15.6 3.53203 15.3747 3.73773 15.1825 3.94944C15.0001 4.15142 14.7942 4.30874 14.5631 4.5728C14.3319 4.83686 14.0639 5.12998 13.996 5.21549C13.934 5.30099 13.8854 5.44077 13.8854 5.51258C13.8524 5.48928 13.8136 5.46406 13.8136 5.46406C13.83 5.49455 13.8495 5.52321 13.8719 5.54957C13.9204 5.61754 13.996 5.70317 14.0349 5.75539C14.0827 5.82187 14.1169 5.89706 14.1358 5.9767C14.1591 5.98054 14.3086 6.00973 14.4951 5.70291C14.6816 5.3961 14.9261 5.06022 14.9261 5.06022L15.3144 4.48346L15.5592 3.99424L15.8664 3.44666L15.9131 3.18643H15.9127Z" fill="#AC8132"/>
<path fill-rule="evenodd" clip-rule="evenodd" d="M16.3108 2.79424C16.3108 2.79424 16.0758 2.98624 15.9845 3.10144C15.8932 3.21664 15.6773 3.51898 15.6773 3.51898L15.755 3.50925L16.1492 3.15981L16.3028 2.88602L16.3107 2.79475L16.3108 2.79424Z" fill="#A88F33"/>
<path fill-rule="evenodd" clip-rule="evenodd" d="M16.2388 18.2253C16.2388 18.2253 16.235 18.066 16.3244 17.9709C16.4156 17.8757 16.6467 17.7359 16.8719 17.2116C17.0972 16.6874 17.1223 16.569 17.1223 16.569C17.1223 16.569 16.7185 16.9146 16.4695 16.9961C16.5277 16.8756 16.5608 16.7903 16.59 16.7281C16.5569 16.699 16.4172 16.666 16.4036 16.6505C16.4812 16.5728 16.5239 16.3825 16.6812 16.2563C16.8832 16.1027 17.2521 15.8387 17.5388 15.6035C17.8255 15.3682 18.3892 14.821 18.4612 14.6618C18.5039 14.7238 18.5135 14.7626 18.5135 14.7626C18.5135 14.7626 18.2301 15.1316 18.0826 15.3665C17.9524 15.5685 17.9621 15.6831 17.9621 15.6831L18.2301 15.5679C18.2301 15.5679 18.3077 15.8552 17.9564 16.2922C18.11 16.234 18.1719 16.2689 18.2592 16.2203C18.1155 16.3117 17.9174 16.436 17.7311 16.7776C17.5485 17.1194 17.3 17.5174 16.8806 17.7659C16.4728 18.028 16.2378 18.2241 16.2378 18.2241L16.2388 18.2253Z" fill="#A67A2E"/>
<path fill-rule="evenodd" clip-rule="evenodd" d="M15.1864 5.1127C15.1864 5.1127 15.0272 5.44461 15.0039 5.70291C15.0001 5.76512 14.9844 5.81363 14.9844 5.88544C14.9806 6.11648 14.998 6.37478 14.946 6.4951C14.9266 6.44659 14.9169 6.41357 14.8974 6.39424C14.8684 6.47578 14.8159 6.73011 14.7731 6.82522C14.7538 6.76314 14.711 6.54758 14.715 6.29325C14.719 6.03891 14.7246 5.99027 14.7246 5.93792C14.715 6.01549 14.6625 6.12045 14.6431 6.18253C14.614 6.13018 14.581 6.06221 14.5421 6.00589C14.5188 6.04429 14.4897 6.10099 14.4645 6.13018C14.4605 6.10688 14.4509 6.04467 14.4451 5.95738C14.4412 5.85638 14.4353 5.72634 14.4412 5.69907C14.4508 5.64672 14.5325 5.4409 14.7053 5.25248C14.9111 5.0272 15.1228 4.5943 15.1849 4.46029C15.247 4.32627 15.511 3.76909 15.511 3.76909H15.713L15.4198 4.43699C15.4198 4.43699 15.2431 4.80205 15.1519 4.93619C15.0606 5.07034 14.8684 5.45472 14.7828 5.60422C14.8449 5.52269 14.8974 5.47994 14.9596 5.40224C15.0198 5.34784 15.1867 5.11296 15.1867 5.11296L15.1864 5.1127Z" fill="#8C6228"/>
<path fill-rule="evenodd" clip-rule="evenodd" d="M16.3146 2.7689C16.2816 2.87044 16.2295 2.96473 16.161 3.04666C16.0406 3.1904 15.7823 3.38253 15.6562 3.53587C15.541 3.68538 15.3106 4.09318 15.4153 4.57664C15.4537 4.47181 15.526 4.26406 15.7183 4.02906C15.9105 3.79405 16.1164 3.52422 16.2175 3.31456C16.3183 3.10285 16.3319 2.93594 16.3319 2.93594L16.3703 2.88742L16.347 2.7767L16.314 2.7689H16.3146Z" fill="#CBA94C"/>
<path fill-rule="evenodd" clip-rule="evenodd" d="M20.2467 15.6485C20.2467 15.6485 20.169 15.4369 20.1457 15.2447C20.1224 15.0524 20.1841 15.0143 20.1126 14.7942C20.0699 14.6602 19.9923 14.679 19.9729 14.6602C19.9534 14.6414 19.9398 14.4389 19.9437 14.3282C19.9475 14.2175 19.9398 14.0739 19.9204 14.0116C19.8913 13.9884 19.8719 13.9689 19.8291 13.8253C19.7806 13.6815 19.7573 13.6097 19.734 13.5671C19.7107 13.5245 19.6426 13.4856 19.6426 13.4428C19.6426 13.3573 19.7203 13.3128 19.7203 13.2892C19.7165 13.2407 19.6582 13.2796 19.6426 13.2659C19.6233 13.2426 19.6913 13.1028 19.666 13.0834C19.6563 13.0738 19.5884 13.1553 19.5708 13.132C19.5514 13.1086 19.5281 12.8776 19.4931 12.7242C19.4602 12.5747 19.4252 12.466 19.4213 12.4214C19.4175 12.3786 19.1533 11.6252 19.0893 11.4427C19.0377 11.2885 18.9943 11.1316 18.9592 10.9728C18.9398 10.8815 18.9262 10.695 18.9165 10.7145C18.9068 10.734 18.9126 10.8291 18.897 10.8252C18.8835 10.8212 18.8349 10.4893 18.8195 10.4369C18.8059 10.3844 18.7242 10.2065 18.7043 10.0777C18.6848 9.94752 18.6422 9.60768 18.613 9.37664C18.5838 9.1456 18.5702 9.0505 18.5702 8.99264C18.575 8.85113 18.5672 8.70948 18.5469 8.56934C18.5085 8.32461 18.4317 8.02752 18.3644 7.85485C18.2344 7.52858 17.8886 6.69363 17.8268 6.48589C17.8268 6.43341 17.8948 6.46259 17.8948 6.46259C17.8948 6.46259 18.0636 6.88589 18.1879 7.21203C18.3084 7.5383 18.4229 7.82566 18.4521 7.85485C18.4754 7.8839 18.6579 8.20429 18.7395 8.72858C18.821 9.25286 18.85 9.73632 18.8987 10.0586C18.922 10.2122 18.9414 10.3752 18.99 10.5382C19.0423 10.715 19.1238 10.8975 19.2307 11.1771C19.322 11.4121 19.39 11.6082 19.4268 11.7772C19.4696 11.9927 19.4696 12.1558 19.4948 12.2627C19.5182 12.3539 19.553 12.5363 19.6347 12.8003C19.7164 13.0642 19.8365 13.4042 19.9181 13.6157C20.0774 14.039 20.1485 14.3924 20.1725 14.5809C20.1938 14.775 20.2657 15.4469 20.2463 15.6488L20.2467 15.6485Z" fill="#A88F33"/>
<path fill-rule="evenodd" clip-rule="evenodd" d="M16.3244 2.7456L16.3146 2.7689C16.3146 2.7689 16.3437 2.77862 16.3379 2.81754C16.3383 2.87077 16.3351 2.92398 16.3282 2.97677C16.3186 3.04474 16.2991 3.09709 16.2953 3.13984C16.2953 3.2311 16.3089 3.33594 16.1801 3.59616C16.1417 3.66797 16.118 3.73005 16.0986 3.7728C16.05 3.87763 16.0403 3.89325 15.9976 3.94176C16.0655 3.90336 16.3103 3.74976 16.4344 3.7728C16.3491 3.82131 16.2189 3.91654 16.1373 4.04083C16.1568 4.04467 16.2383 4.06029 16.3677 4.04083C16.5833 4.00781 16.8241 3.93011 17.0356 3.9456C17.2668 3.95917 17.1756 3.66797 17.1756 3.66797L16.9088 3.0816L16.404 2.7264L16.3244 2.74573V2.7456Z" fill="#BE9C44"/>
<path fill-rule="evenodd" clip-rule="evenodd" d="M17.6408 7.13792C17.6408 7.13792 17.4156 6.91264 17.3243 6.13952C17.233 5.36282 17.2525 4.21952 17.2525 4.21952L17.07 3.77293C17.07 3.77293 17.0316 3.47584 16.9359 3.36525C16.8403 3.25466 16.6525 3.06816 16.567 2.9769C16.4815 2.88563 16.3845 2.76134 16.3263 2.74189C16.3553 2.69338 16.4855 2.41958 16.9844 2.41574C17.4834 2.4119 17.6372 2.68954 17.6893 2.79053C17.7414 2.89152 17.9767 3.32813 18.064 4.16013C18.1455 4.9911 18.1495 5.05331 18.1359 5.34067C18.1262 5.4999 18.0737 5.8688 17.9823 6.26291C17.8989 6.59699 17.8076 6.96986 17.6406 7.13869L17.6408 7.13792Z" fill="#A17C34"/>
<path fill-rule="evenodd" clip-rule="evenodd" d="M16.9344 7.80006C17.0095 7.80548 17.0845 7.78856 17.15 7.75142C17.2218 7.74758 17.482 7.78061 17.6819 7.52627C17.6955 7.58438 17.7306 7.74182 17.6392 7.8816C17.6878 7.83296 17.7596 7.81363 17.7693 7.80006C17.7732 7.87187 17.8412 8.09318 17.5538 8.63104C17.6314 8.54566 17.7226 8.5495 17.8042 8.53978C17.8081 8.64077 17.8624 8.98048 17.7188 9.16314C17.6237 9.28742 17.4683 9.24851 17.4683 9.24851C17.4706 9.22138 17.4706 9.19411 17.4683 9.16698C17.4644 9.1145 17.445 9.06214 17.4587 9.0272C17.3836 8.9929 17.3152 8.94553 17.2567 8.8873C17.0877 8.72806 16.8684 8.45632 16.8529 8.25434C16.8334 8.02906 17.0354 7.98054 17.0354 7.98054C17.0185 7.96541 17.004 7.9477 16.9926 7.92806C16.9829 7.89517 16.9732 7.84269 16.9344 7.80006Z" fill="#8C6228"/>
<path fill-rule="evenodd" clip-rule="evenodd" d="M15.4368 5.35731C15.4368 5.35731 15.4271 5.34374 15.3747 5.40582C15.3844 5.34374 15.3942 5.28538 15.398 5.22906C15.4228 5.17691 15.4549 5.12856 15.4932 5.08544C15.4641 5.14355 15.4446 5.19603 15.4446 5.19603C15.4446 5.19603 15.5165 5.06202 15.6214 4.98048C15.6932 4.92224 15.7844 4.8951 15.8232 4.8407C15.866 4.78246 15.8563 4.77274 15.866 4.76301C15.866 4.76301 15.9612 4.70093 16.1069 4.51827C16.1262 4.49498 16.1554 4.46976 16.1748 4.44646C16.2077 4.4329 16.2854 4.39795 16.3767 4.35123C16.4719 4.29888 16.5787 4.22707 16.6447 4.19763C16.7748 4.13939 16.9128 4.14528 16.9768 4.05389C17.0253 4.04032 17.0776 3.89466 17.068 3.7705C17.1398 3.79955 17.5087 4.02867 17.6351 4.52966C17.7263 4.88499 17.5631 5.43258 17.4952 5.69677C17.4272 5.96096 17.4176 6.15693 17.3224 6.27725C17.2019 6.43661 16.8137 6.66125 16.7185 6.77248C16.6369 6.86374 16.3923 7.09478 16.4019 7.2617C16.4116 7.38598 16.565 7.4537 16.5981 7.47725C16.6313 7.5008 16.631 7.52973 16.6932 7.51565C16.7555 7.50157 16.7786 7.4729 16.804 7.4729C16.833 7.47674 16.833 7.48262 16.8466 7.48262C16.8564 7.48233 16.8662 7.481 16.8758 7.47866C16.8758 7.47866 16.866 7.65542 16.4525 7.70906C16.4233 7.71302 16.3942 7.72262 16.3572 7.72851C16.4059 7.70522 16.4349 7.70522 16.4874 7.63341C16.4292 7.62368 16.2621 7.61395 16.2194 7.60038C16.233 7.57709 16.2776 7.51488 16.3145 7.48582C16.3475 7.45677 16.3107 7.44742 16.2816 7.46253C16.2316 7.49656 16.1836 7.53349 16.1379 7.57312C16.0893 7.61587 16.0466 7.67411 15.9689 7.72672C15.9456 7.64902 15.9494 7.50144 16.0408 7.39469C16.0174 7.39853 15.9727 7.4665 15.9301 7.45293C15.9224 7.3821 15.927 7.31048 15.9437 7.24122C15.967 7.15379 16.0932 7.00045 16.0932 7.00045L16.7028 5.91104L16.8329 5.08582L15.4368 5.35706V5.35731Z" fill="#92723A"/>
<path fill-rule="evenodd" clip-rule="evenodd" d="M15.4039 5.4039C15.4039 5.4039 15.3709 5.4272 15.4369 5.47187C15.4272 5.48544 15.4039 5.53395 15.3747 5.56698C15.3418 5.60538 15.3068 5.62918 15.2932 5.66221C15.2641 5.73018 15.2408 5.77677 15.2408 5.80595C15.2408 5.83514 15.2311 6.0215 15.1496 6.14182C15.1204 6.18458 15.0874 6.25638 15.0641 6.3049C15.0156 6.39027 14.9728 6.4585 14.9631 6.4969C14.9437 6.56486 14.9302 6.75123 14.9302 6.75123C14.9302 6.75123 14.9729 6.69875 14.9884 6.67942C14.965 6.72794 14.9398 6.78029 14.9029 6.8192C14.9262 6.79974 14.9942 6.75123 15.1087 6.65024C15.268 6.51635 15.5165 6.29107 15.8195 6.11264C15.7281 6.14566 15.6506 6.14566 15.5885 6.15539C15.637 6.10688 16.0739 5.59424 16.303 5.54573C16.3169 5.52809 16.3238 5.50594 16.3224 5.48352L16.1262 5.46419L15.7281 5.54957L15.67 5.24237L15.4039 5.40352V5.4039Z" fill="#B18E3E"/>
<path fill-rule="evenodd" clip-rule="evenodd" d="M16.037 7.15149C16.037 7.15149 15.9845 7.20384 15.936 7.33402C15.8987 7.29502 15.8666 7.25124 15.8408 7.20384C15.769 7.08352 15.6584 6.93005 15.4001 7.01747C15.3962 6.93594 15.3903 6.89318 15.4001 6.83494C15.4428 6.82534 15.5729 6.72051 15.7029 6.56704C15.7943 6.46221 15.8797 6.34176 15.9379 6.18842C15.9763 6.15923 16.0428 6.11072 16.1299 6.0544C16.2542 5.96902 16.4037 5.85242 16.427 5.72237C16.3688 5.74566 16.2445 5.8039 16.058 5.7943C16.1299 5.76128 16.2405 5.72634 16.2269 5.58259C16.2561 5.56314 16.2794 5.54957 16.2794 5.54957C16.2575 5.54227 16.2345 5.53897 16.2115 5.53984C16.2075 5.52627 16.2017 5.50694 16.1687 5.51654C16.1357 5.52614 16.1303 5.52627 16.126 5.53984C16.1124 5.54381 16.0677 5.53984 16.0347 5.56326C16.0017 5.58669 15.9104 5.66413 15.8755 5.6777C15.889 5.6544 15.9084 5.61958 15.9084 5.61958C15.9084 5.61958 15.8132 5.62918 15.7453 5.65798C15.621 5.70074 15.4774 5.77843 15.3317 5.85408C15.3453 5.83078 15.3512 5.81568 15.3608 5.81133C15.3704 5.80698 15.3938 5.80173 15.3938 5.79776C15.3938 5.79379 15.3842 5.75936 15.39 5.74541C15.4335 5.65315 15.4849 5.56481 15.5436 5.48134C15.6115 5.38995 15.6251 5.2599 15.6251 5.2599L15.9222 5.1104L16.7571 4.9184L17.2989 4.95142L17.231 5.32621L16.911 5.98054L16.6372 6.57664L16.3245 6.94182L16.0371 7.15149H16.037Z" fill="#543E26"/>
<path fill-rule="evenodd" clip-rule="evenodd" d="M17.3903 5.5296C17.3903 5.5296 17.0641 5.93344 16.9728 5.99565C17.031 5.87136 17.3903 5.13152 17.5204 4.9257C17.4913 4.9024 17.4524 4.9024 17.5437 4.5417C17.4661 4.7241 17.4388 4.81933 17.3748 4.86784C17.3108 4.91635 17.3029 4.90086 17.2596 4.90086C17.2678 4.88609 17.2712 4.86913 17.2692 4.85235C17.2692 4.85235 16.9955 4.81933 16.8084 4.81933C16.6214 4.81933 16.2513 4.92032 16.0453 5.00186C15.8822 5.06982 15.791 5.06982 15.7327 5.11245C15.6745 5.16096 15.6415 5.21344 15.6123 5.22701C15.589 5.24058 15.4784 5.27552 15.4531 5.31238C15.4298 5.35078 15.391 5.39392 15.391 5.40365C15.391 5.41338 15.3812 5.42707 15.4104 5.41722C15.42 5.41338 15.492 5.37446 15.5735 5.32595C15.6841 5.26387 15.8181 5.19206 15.9153 5.14931C16.1929 5.03859 16.2803 5.05805 16.4045 5.03475C16.5345 5.01146 16.721 4.95706 16.8452 4.95706C16.9695 4.95322 17.2045 4.95706 17.2589 4.96678C17.2356 4.98624 17.2161 5.00954 17.2259 5.09107C17.2259 5.11437 17.2064 5.13958 17.1875 5.1959C17.1293 5.35514 17.0186 5.6192 16.9571 5.75322C16.8717 5.93562 16.7747 6.08909 16.7267 6.18419C16.6787 6.2793 16.5731 6.52979 16.4685 6.66381C16.3639 6.79782 16.3092 6.87936 16.2765 6.90854C16.2437 6.93773 16.0084 7.1104 16.026 7.17261C16.0687 7.15904 16.3387 7.05741 16.5347 6.83674C16.7306 6.61606 16.7697 6.48141 16.923 6.36096C17.0764 6.24051 17.1968 6.03866 17.2686 5.87174C17.3288 5.71635 17.3152 5.66784 17.3908 5.52998L17.3903 5.5296Z" fill="#806031"/>
<path fill-rule="evenodd" clip-rule="evenodd" d="M10.3593 8.54374C10.3593 8.54374 10.3165 8.72038 10.2194 8.80781C10.1243 8.89331 9.95533 8.96704 9.936 9.11078C9.9127 9.2544 10.105 9.32634 10.105 9.32634C10.105 9.32634 10 9.49914 10 9.62918C10 9.7632 9.99616 9.78842 10.0097 9.91654C9.99433 9.92645 9.98123 9.93954 9.97133 9.95494C9.97133 9.95494 9.98093 10.0792 10.0762 10.1568C10.1714 10.2344 10.2528 10.2811 10.3013 10.2616C10.3087 10.2775 10.3152 10.2937 10.3208 10.3103C10.3208 10.3103 10.3927 10.1277 10.4412 9.96851C10.4897 9.80544 10.5325 9.82861 10.5518 9.60922C10.5711 9.38982 10.7822 9.01312 10.7822 9.01312L10.9262 8.6912L10.6913 8.50867L10.3593 8.54362V8.54374Z" fill="#B6903C"/>
<path fill-rule="evenodd" clip-rule="evenodd" d="M10.7962 8.86016C10.7477 8.90988 10.703 8.9631 10.6624 9.01939C10.6003 9.1049 10.5518 9.18246 10.4605 9.21562C10.3693 9.24877 10.311 9.24851 10.3168 9.3399C10.3226 9.4313 10.4081 9.46995 10.4566 9.51654C10.5091 9.56506 10.5518 9.64659 10.5285 9.73798C10.5576 9.72442 10.61 9.7088 10.6586 9.60397C10.7071 9.49914 11.0464 8.86029 11.0464 8.86029H10.7962V8.86016Z" fill="#685026"/>
<path fill-rule="evenodd" clip-rule="evenodd" d="M12.1344 7.38637C12.1344 7.38637 12.1635 7.3088 12.1344 7.25248C12.1052 7.19424 11.9286 7.17478 11.8412 7.10874C11.7499 7.04077 11.6392 6.99354 11.5479 7.02336C11.5615 6.99034 11.6159 6.9184 11.5712 6.90291C11.5284 6.88934 11.3693 6.96115 11.3266 6.99418C11.2838 7.0272 11.1867 7.06598 11.1674 7.08941C11.148 7.11283 11.1149 7.15738 11.0954 7.13792C11.076 7.12435 11.0664 7.08941 11.0333 7.10874C11.0003 7.12806 10.8413 7.25824 10.812 7.33402C10.7827 7.40979 10.7168 7.57875 10.5188 7.77088C10.3208 7.96301 10.2353 8.08742 10.2935 8.15923C10.3517 8.23104 10.379 8.17869 10.3887 8.24077C10.3962 8.30171 10.3929 8.36349 10.379 8.4233C10.3557 8.52429 10.3169 8.61939 10.3693 8.63885C10.5033 8.6816 10.6335 8.60045 10.6625 8.62528C10.7208 8.67763 10.6295 8.86605 10.7674 8.90291C10.9073 8.94131 11.0451 8.86989 11.0451 8.86989L11.5538 8.5961L12.0431 8.33792L12.2935 7.84269L12.1592 7.42912L12.1336 7.38637H12.1344Z" fill="#D4B968"/>
<path fill-rule="evenodd" clip-rule="evenodd" d="M11.6544 8.56896C11.6544 8.56896 11.5689 8.43891 11.6739 8.32422C11.7788 8.20954 11.9282 8.16115 11.9864 8.08934C11.9753 8.07567 11.9605 8.06556 11.9437 8.06029C11.9823 7.99111 12.0413 7.93548 12.1126 7.90093C12.0836 7.87187 12.0447 7.84858 12.002 7.84858C11.9068 7.84858 11.8484 7.90682 11.7612 7.90682C11.6758 7.90682 11.666 7.86406 11.666 7.86406C11.666 7.86406 11.8098 7.8505 11.7961 7.78637C11.7825 7.7184 11.7577 7.7184 11.7577 7.7184C11.7577 7.7184 12.0353 7.6032 12.0838 7.54176C12.1324 7.48032 12.1266 7.40774 12.1363 7.37869C12.1692 7.37869 12.3615 7.2777 12.4392 7.32045C12.5169 7.3632 12.4625 7.47968 12.4625 7.47968C12.4625 7.47968 12.6976 7.30291 12.8174 7.1296C12.9222 7.13933 12.971 7.05779 13.0478 7.05779C13.143 7.05779 13.2925 7.18784 13.3216 7.46547C13.3411 7.6247 13.3701 7.71597 13.3411 7.99757C13.3275 8.1568 13.3313 8.49677 13.3795 8.66547C13.4124 8.79949 13.49 8.78592 13.49 8.78592C13.4781 8.82676 13.4545 8.8632 13.4221 8.89075C13.3696 8.93926 13.3638 9.06752 13.3696 9.11603C13.3773 9.1515 13.3871 9.1865 13.3988 9.22086C13.3988 9.22086 13.3367 9.29267 13.3211 9.34131C13.3075 9.38982 13.2435 9.42285 13.1968 9.42285C13.1501 9.42285 13.1735 9.41888 13.1114 9.42285C13.0493 9.42682 13.0299 9.43642 12.991 9.42285C12.9521 9.40928 12.923 9.39366 12.9386 9.26925C12.9522 9.14496 12.459 8.85568 12.459 8.85568L11.6526 8.56832L11.6544 8.56896Z" fill="#CCA849"/>
<path fill-rule="evenodd" clip-rule="evenodd" d="M10.7282 9.7961C10.7282 9.7961 10.9048 10.0311 11.6311 10.0311C11.9767 10.0311 12.0972 9.99808 12.1687 9.97862C12.2464 9.95917 12.5376 9.84474 12.8308 9.49901C13.0949 9.18643 13.0367 9.0583 13.0367 9.0583L12.8831 9.03501L12.3839 9.10298L10.9068 9.7321L10.7276 9.7961H10.7282Z" fill="#585136"/>
<path fill-rule="evenodd" clip-rule="evenodd" d="M11.2699 9.85434C11.2699 9.85434 10.6408 9.99424 10.6408 9.59616C10.6408 9.20781 11.0291 8.8 11.1263 8.72819C11.2273 8.65626 11.468 8.57459 11.468 8.57459H12.0486L12.1592 8.86784L12.1107 9.5008L11.2699 9.85421V9.85434Z" fill="#252211"/>
<path fill-rule="evenodd" clip-rule="evenodd" d="M11.8505 8.69325C11.8505 8.69325 11.7302 8.58253 11.4564 8.73165C11.1826 8.88077 10.9612 9.19245 10.9476 9.47546C10.934 9.72582 11.1534 9.91232 11.4952 9.92205C11.7495 9.93165 11.903 9.90259 11.9807 9.88365C11.9612 9.86035 11.8602 9.73414 11.8602 9.73414L11.8506 8.69338L11.8505 8.69325Z" fill="#C3B378"/>
<path fill-rule="evenodd" clip-rule="evenodd" d="M11.7321 8.7552C11.7321 8.7552 11.703 8.7319 11.6169 8.7785C11.5451 8.8169 11.4403 8.9184 11.3587 8.99021C11.3062 9.03296 11.2732 9.05229 11.2435 9.08531C11.1231 9.22906 11.0221 9.46406 11.0804 9.58054C11.1388 9.69702 11.3309 9.83104 11.8203 9.73978L11.7307 8.75533L11.7321 8.7552Z" fill="#E6D89C"/>
<path fill-rule="evenodd" clip-rule="evenodd" d="M11.5729 8.9961C11.5729 8.9961 11.4952 9.11654 11.4952 9.3088C11.4952 9.5049 11.6059 9.81747 12.0137 9.84077C12.3263 9.86022 12.5359 9.39034 12.7631 9.20781C12.9359 9.06803 13.0408 9.06406 13.0408 9.06406C13.0408 9.06406 12.8641 8.87206 12.3923 8.62336C11.9263 8.37286 11.4039 8.33984 11.1204 8.72435C11.2544 8.71462 11.6874 8.6039 11.6874 8.6039L11.8991 8.67187L11.5729 8.99622V8.9961Z" fill="#252211"/>
<path fill-rule="evenodd" clip-rule="evenodd" d="M12.1825 9.25043C12.169 9.22138 12.1592 9.18246 12.2156 9.17286C12.2719 9.16326 12.2971 9.1689 12.3165 9.21126C12.336 9.25363 12.3549 9.28896 12.3261 9.3065C12.2971 9.32198 12.2213 9.3065 12.1824 9.25018L12.1825 9.25043ZM12.0913 8.97664C12.0913 8.97664 12.0718 8.99021 12.0815 8.96307C12.0854 8.93018 12.1107 8.87181 12.1728 8.8855C12.2349 8.8992 12.2214 8.96704 12.2112 8.9865C12.201 9.00595 12.1491 9.03885 12.1102 9.0249C12.1053 9.02363 12.1007 9.02123 12.0969 9.01787C12.0931 9.01451 12.0901 9.0103 12.0882 9.00558C12.0863 9.00085 12.0855 8.99574 12.086 8.99067C12.0864 8.9856 12.0881 8.9807 12.0908 8.97638L12.0913 8.97664Z" fill="#6F674D"/>
<path fill-rule="evenodd" clip-rule="evenodd" d="M6.8352 9.1008C6.8352 9.1008 6.9888 9.216 7.16723 9.21152C7.34387 9.20755 7.57107 9.02515 7.6759 8.90854C7.73798 8.84058 7.7911 8.76877 7.8487 8.71245C7.89734 8.66394 7.93024 8.64064 7.95354 8.60762C7.98656 8.56922 8.0215 8.49702 8.03904 8.4736C7.99629 8.50662 7.93421 8.56499 7.87008 8.60378C7.808 8.64218 7.67398 8.71437 7.61958 8.73382C7.56723 8.75328 7.02349 9.04102 7.02349 9.04102L6.8352 9.1008Z" fill="#AC924C"/>
<path fill-rule="evenodd" clip-rule="evenodd" d="M7.06995 7.66605C7.06995 7.66605 7.15533 7.60781 7.32045 7.57082C7.47968 7.53242 7.80006 7.50285 7.80006 7.50285L8.06413 7.61805L8.16896 8.01613L7.97696 8.42982L7.73235 8.58342L7.45459 8.13683L7.07059 7.66682L7.06995 7.66605Z" fill="#9F8E57"/>
<path fill-rule="evenodd" clip-rule="evenodd" d="M6.72435 8.02138L6.63296 8.0896C6.63296 8.0896 6.65638 8.04685 6.67571 7.9168C6.69504 7.78675 6.79616 7.47021 6.94374 7.28768C7.09133 7.10515 7.08749 7.11488 7.08749 7.11488C7.07391 7.1124 7.05995 7.11284 7.04656 7.11617C7.03316 7.1195 7.02063 7.12565 7.00979 7.13421C7.02925 7.0912 7.15354 6.9376 7.27782 6.8608C7.40211 6.784 7.45062 6.75981 7.58067 6.8224C7.71072 6.88499 7.74374 6.9175 7.83898 6.91366C7.93421 6.90982 8.01562 6.80883 8.01562 6.80883C8.01562 6.80883 8.03507 6.87091 7.96326 7.01466C7.89146 7.1584 7.60794 7.45152 7.60794 7.45152L7.0176 7.85536L6.72435 8.02176V8.02138Z" fill="#EAC970"/>
<path fill-rule="evenodd" clip-rule="evenodd" d="M7.16109 7.61754C7.16109 7.61754 7.58835 7.67578 7.7184 7.55546C7.72224 7.56902 7.73786 7.56902 7.73786 7.57875C7.73681 7.58608 7.73339 7.59287 7.72813 7.59808C7.74227 7.59582 7.75656 7.59454 7.77088 7.59424C7.78798 7.59933 7.80557 7.60259 7.82336 7.60397C7.83769 7.60366 7.85197 7.60233 7.86611 7.6C7.86476 7.60965 7.86148 7.61893 7.85647 7.62729C7.85145 7.63565 7.84481 7.64291 7.83693 7.64864C7.85638 7.64864 7.87533 7.65248 7.87533 7.66797C7.87533 7.68346 7.87917 7.73018 7.85587 7.7399C7.83657 7.74524 7.81603 7.74384 7.79763 7.73594C7.79917 7.7727 7.80916 7.80861 7.82682 7.8409C7.86522 7.9127 7.94714 7.9945 8.05722 7.97094C8.05722 7.97094 8.11533 8.11072 7.87072 8.42138C7.83782 8.46413 7.80275 8.52237 7.76013 8.57088C7.74329 8.60759 7.73041 8.64599 7.72173 8.68544C7.72173 8.68544 8.13542 8.52621 8.25382 8.16307C8.37427 7.79802 8.39757 7.43885 8.37427 7.10298C8.3703 7.00774 8.35482 6.9399 8.33152 6.89126C8.27328 6.77082 8.11008 6.79027 8.04416 6.85824C7.94893 6.95347 7.7897 7.19027 7.56838 7.35334C7.3431 7.51642 7.3335 7.54534 7.16058 7.61754H7.16109Z" fill="#D7BC6B"/>
<path fill-rule="evenodd" clip-rule="evenodd" d="M6.64858 8.14182C6.64858 8.14182 6.56704 8.19034 6.52429 8.37222C6.48154 8.55859 6.56269 8.78579 6.60966 8.8576C6.65664 8.92941 6.76326 9.12563 6.98445 9.13536C7.03919 9.13507 7.09333 9.12384 7.14368 9.10234C7.22089 9.06693 7.29332 9.0219 7.35923 8.96832C7.45446 8.89651 7.53203 8.83443 7.5223 8.82854C7.49901 8.81882 6.93594 8.35277 6.93594 8.35277L6.72422 8.11648L6.64845 8.14208L6.64858 8.14182Z" fill="#585136"/>
<path fill-rule="evenodd" clip-rule="evenodd" d="M7.1808 8.91456C7.1808 8.91456 7.29536 8.90496 7.36333 8.86221C7.4313 8.81946 6.96525 8.35738 6.96525 8.35738L6.99827 8.85658L7.1808 8.91456Z" fill="#453A25"/>
<path fill-rule="evenodd" clip-rule="evenodd" d="M6.68544 8.10675C6.68544 8.10675 6.6272 8.21747 6.6272 8.24666C6.61747 8.34176 6.64666 8.64077 6.66995 8.73587C6.69325 8.83686 6.81946 8.99021 6.98266 8.99021C7.08352 8.99021 7.22342 8.92813 7.22342 8.91264C7.22342 8.89318 7.07968 8.87424 7.0409 8.80192C7.0176 8.76352 7.00787 8.66803 7.0025 8.57152C6.99866 8.50944 6.99866 8.44147 7.02195 8.41792C7.07443 8.35968 7.08403 8.19264 7.08403 8.19264L7.2704 7.8464H7.02528L6.73203 8.02893L6.68544 8.10675Z" fill="#84754B"/>
<path fill-rule="evenodd" clip-rule="evenodd" d="M6.61363 8.21363C6.61363 8.21363 6.80563 7.9593 6.97869 7.90093C7.15174 7.84256 7.22918 7.87763 7.22918 7.87763L7.12819 8.13594L6.98445 8.29517L6.99418 8.3767C6.99418 8.3767 6.97075 8.59226 7.1145 8.74176C7.25824 8.89126 7.36499 8.8855 7.4272 8.8855C7.48941 8.8855 7.66797 8.83302 7.75923 8.61747C7.84077 8.41562 7.90874 8.15667 7.74566 7.89709C7.5863 7.63878 7.30483 7.6288 7.25043 7.6288C7.19603 7.6288 6.7689 7.65018 6.61363 8.21325V8.21363Z" fill="#252211"/>
<path fill-rule="evenodd" clip-rule="evenodd" d="M11.5437 9.07763C11.4719 9.04461 11.5398 8.84275 11.6116 8.78054C11.6835 8.71834 11.7747 8.64666 11.9341 8.6368C11.9922 8.63296 12.0485 8.66982 12.0389 8.70874C12.0253 8.78054 11.9244 8.88154 11.8331 8.95334C11.7069 9.05242 11.6252 9.1145 11.5437 9.07763Z" fill="#F7F7E7"/>
<path fill-rule="evenodd" clip-rule="evenodd" d="M7.66016 7.9767C7.71264 7.97286 7.78061 8.0151 7.79418 8.07194C7.80774 8.13402 7.76115 8.2583 7.66016 8.2583C7.57862 8.2583 7.53587 8.15731 7.53587 8.12826C7.53679 8.10436 7.54346 8.08105 7.55533 8.06029C7.55917 8.0544 7.5689 7.98643 7.66016 7.9767Z" fill="#F8F6DE"/>
<path fill-rule="evenodd" clip-rule="evenodd" d="M6.90291 8.02138C6.90291 8.02138 6.7689 8.08346 6.70682 8.21338C6.66246 8.30931 6.64904 8.41667 6.66842 8.52058C6.67814 8.56909 6.72666 8.68941 6.75968 8.73216C6.7927 8.77491 6.83738 8.8041 6.8704 8.80013C6.90342 8.79616 6.97126 8.70886 6.97126 8.65651C6.97126 8.60416 6.97523 8.38272 7.03923 8.26227C7.09555 8.14195 6.9033 8.0215 6.9033 8.0215L6.90291 8.02138Z" fill="#D4C38B"/>
<path fill-rule="evenodd" clip-rule="evenodd" d="M6.92237 8.01165C6.89907 8.02522 6.86029 8.04467 6.86989 8.06989C6.87962 8.09318 6.96115 8.10829 6.99034 8.16512C7.02336 8.22336 7.02336 8.28544 7.01363 8.31462C7.039 8.30257 7.06201 8.2861 7.0816 8.26598C7.12435 8.21747 7.1767 8.15155 7.22138 8.15155C7.25056 8.15155 7.27962 8.16512 7.30688 8.16512C7.34963 8.16512 7.39226 8.15155 7.39814 8.10688C7.40774 8.04864 7.31661 7.99616 7.26413 8.00589C7.27386 7.96749 7.28742 7.91078 7.24467 7.87187C7.20192 7.83296 7.06803 7.90106 7.03885 7.92051C7.00966 7.93997 6.92237 8.01178 6.92237 8.01178V8.01165Z" fill="#E2D59D"/>
<path fill-rule="evenodd" clip-rule="evenodd" d="M10.0078 12.0913L10.2952 12.0064L10.3767 12.0646C10.3767 12.0646 10.4348 12.1889 10.5262 12.2044C10.497 12.2665 10.4212 12.3196 10.4252 12.3636C10.4292 12.4077 10.468 12.4413 10.468 12.4413C10.468 12.4413 10.2097 12.8685 10.7185 13.2989C10.598 13.3475 10.4447 13.4141 10.3631 13.4525C10.4212 13.4661 10.5455 13.4909 10.598 13.538C10.6505 13.5852 10.6505 13.6001 10.699 13.6293C10.7475 13.6585 10.7766 13.6973 10.767 13.7147C10.734 13.6952 10.6232 13.6371 10.6039 13.6914C10.5846 13.7457 10.1243 13.7244 10.1243 13.7244L9.34758 13.8739C9.34758 13.8739 9.37664 13.7962 9.2951 13.7244C9.2 13.639 9.08352 13.7283 8.95923 13.6332C8.79616 13.5089 8.79027 13.3651 8.73792 13.3108C8.79027 13.2778 8.89715 13.2293 9.15149 13.1956C9.14176 13.1762 9.10874 13.118 9.12819 13.0656C9.15149 12.9976 9.24851 12.9549 9.21946 12.8736C9.26221 12.8639 9.28154 12.8639 9.38842 12.7299C9.48941 12.5958 9.55149 12.5668 9.62918 12.5571C9.70688 12.5473 9.75347 12.5571 9.89722 12.423C9.99808 12.3279 9.96518 12.2464 9.96518 12.2464C9.96518 12.2464 10.0311 12.225 10.0079 12.091L10.0078 12.0913Z" fill="#CBAC5A"/>
<path fill-rule="evenodd" clip-rule="evenodd" d="M9.1593 12.1344C9.16314 12.1149 9.17875 12.1052 9.28358 12.1149C9.38842 12.1247 10.0525 12.0529 10.2331 12.0431C10.4156 12.0296 11.0583 12.0392 11.371 12.1052C11.6837 12.1713 12.0001 12.249 12.1535 12.2877C12.3071 12.3305 12.3555 12.3459 12.3496 12.3653C12.3457 12.3848 12.3112 12.4037 12.2913 12.3983C12.272 12.3945 11.7632 12.2391 11.606 12.2063C11.4488 12.1736 10.905 12.0859 10.6076 12.0911C10.33 12.0951 10.2193 12.0873 9.98438 12.1144C9.74938 12.1436 9.36102 12.1824 9.24454 12.1669C9.12934 12.1533 9.15315 12.1533 9.15904 12.1339L9.1593 12.1344Z" fill="#D6BC6F"/>
<path fill-rule="evenodd" clip-rule="evenodd" d="M10.7223 13.6563C10.7223 13.6563 11.1204 13.8719 11.2641 14.1359C11.369 14.332 11.202 14.4292 11.202 14.4292C11.202 14.4292 11.4273 14.4292 11.3981 14.5535C11.3846 14.631 11.0098 14.8407 10.7593 14.9514C10.505 15.0621 10.5147 15.0564 10.3904 15.0757C10.27 15.0952 9.93984 15.0373 9.87187 15.134C9.8039 15.2306 9.83347 15.3302 9.85242 15.3457C9.87187 15.3592 10.0292 15.3787 10.0292 15.3787C10.0292 15.3787 9.99616 15.47 9.67002 15.4797C9.34387 15.4894 9.26221 15.5126 9.24275 15.5476C9.2233 15.5805 9.30483 15.5612 9.45446 15.586C9.60397 15.6093 9.81363 15.6244 9.81363 15.6244C9.81363 15.6244 9.74566 15.6827 9.56902 15.7293C9.36704 15.7816 9.0505 15.8303 8.95539 15.8885C9.0039 15.9215 9.07584 15.97 9.10899 15.9739C9.02746 15.9933 8.91277 16.0361 8.89344 16.0516C8.9225 16.071 8.96141 16.0943 8.96141 16.0943C8.96141 16.0943 8.79821 16.2904 8.7031 16.3391C8.608 16.3877 8.06042 16.6419 7.872 16.5934C7.40211 16.4691 7.34387 15.9546 7.22931 15.9158C7.05651 15.8575 6.97498 15.9739 6.8215 15.8924C6.88947 15.8438 6.92646 15.8148 6.99827 15.7818C6.92058 15.7434 6.51866 15.4885 6.51866 15.4885C6.47663 15.3969 6.42997 15.3075 6.37888 15.2206C6.30118 15.0866 6.18688 14.9079 6.10112 14.7506C5.91475 14.405 5.90502 14.2458 5.73606 14.0497C5.76525 14.0113 5.86611 14.0166 5.86611 14.0166L7.28179 14.4827L9.792 14.5554L10.4448 13.6234L10.7224 13.6564L10.7223 13.6563Z" fill="#DFC677"/>
<path fill-rule="evenodd" clip-rule="evenodd" d="M7.0039 15.0776C7.01905 15.0945 7.03671 15.1089 7.05626 15.1204C7.1049 15.1534 7.1767 15.1923 7.22522 15.2504C7.24467 15.2214 7.29318 15.1689 7.37882 15.2504C7.46445 15.332 7.57082 15.2739 7.63699 15.2932C7.70496 15.3166 7.7088 15.3262 7.7088 15.3262C7.7088 15.3262 7.7472 15.2932 7.83309 15.2582C7.88557 15.2388 7.94765 15.2252 8.01562 15.2059C8.0777 15.1923 8.14566 15.1729 8.19238 15.1729C8.23514 15.2019 8.38848 15.3649 9.00403 15.1244C9.58464 14.8991 9.71853 14.8739 9.81568 14.9087C9.82541 14.8854 9.83514 14.8407 9.98464 14.8466C9.98464 14.7845 9.86035 14.5728 9.86035 14.5728L9.17491 14.3379H8.8L7.67578 14.5437L7.0528 14.8992L7.00429 15.0784L7.0039 15.0776Z" fill="#C4A859"/>
<path fill-rule="evenodd" clip-rule="evenodd" d="M6.62912 14.6835C6.62912 14.6835 6.64269 14.7884 6.79808 14.8991C6.95168 15.0097 6.99994 15.0757 6.99994 15.0757C6.99994 15.0757 7.02912 15.0373 7.05242 14.9981C7.07571 14.9554 7.09517 14.9069 7.13395 14.8933C7.21165 14.8603 7.38829 14.9224 7.4272 14.9126C7.46022 14.903 7.4505 14.8351 7.48544 14.8351C7.56698 14.8311 7.61933 14.8874 7.64851 14.8874C7.6777 14.8874 7.74938 14.8836 7.7591 14.8681C7.76883 14.8526 7.77267 14.6913 7.88339 14.6136C8.00384 14.5283 8.15142 14.5651 8.19059 14.5846C8.19059 14.6136 8.19443 14.6856 8.27213 14.6894C8.34982 14.6932 8.3575 14.6797 8.42573 14.703C8.49395 14.7263 8.57523 14.6991 8.6121 14.8136C8.64512 14.804 8.72282 14.7942 8.70336 14.6835C8.74176 14.6545 8.7753 14.635 8.85696 14.5204C8.87642 14.4914 8.90931 14.4584 8.93466 14.4156C9.00262 14.4156 9.08416 14.402 9.19283 14.4972C9.15981 14.5204 9.14035 14.5356 9.13075 14.5592C9.15917 14.5874 9.18513 14.6179 9.20832 14.6505C9.2375 14.6889 9.25696 14.736 9.29382 14.7457C9.37536 14.769 9.50938 14.736 9.65888 14.7457C9.80262 14.7555 9.92294 14.8078 9.97542 14.8408C9.99488 14.8312 9.99488 14.8273 10.0434 14.837C10.0919 14.8467 10.1288 14.8506 10.0764 14.7885C10.1055 14.802 10.1385 14.8312 10.1677 14.802C10.1969 14.7729 10.22 14.7302 10.3016 14.7205C10.3831 14.7108 10.4123 14.7244 10.4453 14.639C10.4881 14.5341 10.3405 14.5341 10.3405 14.5341C10.3405 14.5341 10.4084 14.4719 10.4842 14.3904C10.5755 14.305 10.6803 14.1943 10.7055 14.0584C10.7483 13.8079 10.5037 13.775 10.5037 13.775L9.31725 14.14L7.86675 14.0681L6.62989 14.6836L6.62912 14.6835Z" fill="#927D49"/>
<path fill-rule="evenodd" clip-rule="evenodd" d="M5.56314 11.2563C5.56314 11.2563 5.52474 11.3048 5.50106 11.4194C5.47738 11.534 5.48749 11.5204 5.46803 11.6019C5.44858 11.6835 5.2096 12.4951 5.2992 12.7689C5.3888 13.0427 5.54394 13.1437 5.64096 13.365C5.66042 13.4135 5.67936 13.4427 5.68947 13.4854C5.7225 13.6291 5.69344 13.7398 5.73222 13.8835C5.74579 13.932 5.78086 13.9884 5.83322 14.0466C5.94842 14.1669 6.13619 14.2815 6.21722 14.363C6.33165 14.4835 6.49485 14.7282 6.70259 14.7514C6.81331 14.7649 6.97062 14.7183 7.10067 14.6408C7.21587 14.5688 7.28704 14.468 7.40787 14.4104C7.49325 14.3676 7.58451 14.3521 7.66605 14.3327C7.83501 14.2996 7.98848 14.2943 8.07974 14.3132C8.21952 14.3424 8.54963 14.4434 8.73254 14.4434C8.87547 14.4411 9.0176 14.4215 9.15584 14.3852C9.43347 14.3036 9.76934 14.1637 9.99078 14.1016C10.1208 14.0632 10.2257 14.0531 10.3325 14.0298C10.5151 13.9871 10.6684 13.9288 10.7558 13.8181C10.6976 13.7501 10.6258 13.6453 10.2373 13.6492C9.79661 13.6589 9.28781 13.9035 9.03731 13.9424C8.78682 13.9813 8.67814 14.0142 8.39846 13.9132C8.12429 13.8112 8.1152 13.7437 8.1152 13.7437C8.1152 13.7437 7.82733 13.5424 7.70688 13.0291C7.58643 12.5158 7.70688 12.1418 8.01958 11.7864C8.10112 11.6951 8.08166 11.6136 8.08166 11.6136C8.08166 11.6136 8.28749 11.3359 8.23117 11.076C8.16909 10.8177 7.77101 10.8701 7.77101 10.8701L5.56326 11.2563H5.56314Z" fill="#6E6342"/>
<path fill-rule="evenodd" clip-rule="evenodd" d="M5.89517 12.1204C5.87805 12.1526 5.87 12.1889 5.87187 12.2253C5.87571 12.2776 5.89133 12.3456 6.04851 12.4991C6.18253 12.633 6.15334 12.7825 6.15334 12.7825C6.15334 12.7825 6.2208 12.796 6.40384 12.7104C6.54758 12.6424 6.59584 12.7629 6.59584 12.7629C6.63768 12.7409 6.68304 12.7265 6.72986 12.7201C6.77228 12.7162 6.81333 12.7031 6.85018 12.6817C6.85018 12.6817 7.01914 12.8545 7.16672 12.9361C7.30074 13.008 7.37843 13.0565 7.44448 13.008C7.50656 12.9652 7.50656 12.8778 7.50259 12.839C7.48719 12.8032 7.46769 12.7694 7.44448 12.738C7.40173 12.676 7.33376 12.604 7.32928 12.546C7.31955 12.4122 7.43027 12.2528 7.40685 12.214C7.38342 12.1752 7.29626 12.1655 7.0807 12.2432C6.85747 12.3169 5.89427 12.1208 5.89427 12.1208L5.89517 12.1204Z" fill="#39331F"/>
<path fill-rule="evenodd" clip-rule="evenodd" d="M6.40384 12.9884C6.40384 12.9884 6.29325 12.8836 6.33203 12.3748C6.37898 12.3741 6.42586 12.3787 6.47181 12.3884C6.47181 12.3884 6.5321 12.7826 6.40384 12.9884Z" fill="#292311"/>
<path fill-rule="evenodd" clip-rule="evenodd" d="M5.61562 10.868C5.63105 10.8565 5.64536 10.8437 5.65837 10.8296C5.61997 10.9014 5.44269 11.1887 5.58643 11.6412C5.73018 12.0916 6.09126 12.4275 6.53594 12.4431C6.98061 12.4588 7.21434 12.2412 7.4816 11.915C7.58643 11.785 7.70688 11.6218 7.81363 11.5112C7.97286 11.3382 8.09715 11.2897 8.09715 11.1228C8.09715 10.7811 7.74758 10.6276 7.23302 10.4742C6.71846 10.3209 6.25434 10.3398 6.01357 10.4448C5.77869 10.5592 5.6777 10.6797 5.61549 10.8681L5.61562 10.868Z" fill="#252211"/>
<path fill-rule="evenodd" clip-rule="evenodd" d="M7.26797 13.1418L7.30637 13.1223C7.30637 13.1223 7.31597 12.9687 7.37818 12.9728C7.44026 12.9825 7.46944 13.0642 7.46355 13.0932C7.45971 13.1223 7.44422 13.1709 7.38202 13.1651C7.30048 13.167 7.26758 13.1418 7.26758 13.1418H7.26797Z" fill="#3F3824"/>
<path fill-rule="evenodd" clip-rule="evenodd" d="M7.09517 12.4893C7.09517 12.4893 7.13357 12.4758 7.18054 12.5224C7.21894 12.5224 7.38637 12.5029 7.43885 12.5359C7.49133 12.569 7.50682 12.598 7.50682 12.598C7.50682 12.598 7.31072 12.6408 7.20384 12.598C7.09517 12.5612 7.09517 12.4893 7.09517 12.4893Z" fill="#2D2815"/>
<path fill-rule="evenodd" clip-rule="evenodd" d="M7.9593 12.5184C7.9593 12.5087 7.85446 12.4369 7.74374 12.4134C7.72429 12.4096 7.72032 12.4232 7.70534 12.4232C7.69562 12.4193 7.69178 12.3901 7.69178 12.3901L7.6288 12.4233C7.6288 12.4233 7.61907 12.4369 7.6521 12.4617C7.68115 12.485 7.72979 12.5044 7.74336 12.5432C7.75693 12.582 7.75693 12.5956 7.76282 12.6015C7.76666 12.6053 7.83462 12.6015 7.86765 12.582C7.90067 12.5626 7.96288 12.5308 7.95891 12.518L7.9593 12.5184Z" fill="#82764F"/>
<path fill-rule="evenodd" clip-rule="evenodd" d="M6.97869 12.9126C6.97869 12.9126 6.99802 12.7788 7.12819 12.7729C7.26208 12.7631 7.28742 12.8932 7.28742 12.8932L7.20973 12.9709C7.20973 12.969 7.15149 12.8874 6.97933 12.9126H6.97869Z" fill="#2D2816"/>
<path fill-rule="evenodd" clip-rule="evenodd" d="M7.82336 12.3359C7.82336 12.3359 7.75142 12.4136 7.59232 12.4369C7.57875 12.4174 7.54957 12.3786 7.59232 12.3165C7.63507 12.2545 7.68358 12.235 7.7321 12.2543C7.7535 12.2578 7.77347 12.2673 7.78964 12.2818C7.80581 12.2962 7.81751 12.315 7.82336 12.3359Z" fill="#574F35"/>
<path fill-rule="evenodd" clip-rule="evenodd" d="M8.11648 12.4311C8.12045 12.4116 8.10688 12.4078 8.11648 12.3981C8.12608 12.3884 8.17869 12.369 8.18842 12.3786C8.19226 12.3826 8.18842 12.3981 8.18842 12.417C8.18842 12.436 8.18842 12.4554 8.17869 12.4694C8.16512 12.4888 8.12634 12.4986 8.10688 12.4928C8.08742 12.487 8.08358 12.4598 8.08358 12.4544C8.09318 12.4506 8.11648 12.4408 8.11648 12.4311ZM8.448 12.2214C8.448 12.2117 8.48102 12.1923 8.50048 12.1923C8.52954 12.1923 8.52954 12.2156 8.5335 12.2214C8.5431 12.2253 8.5431 12.2175 8.55283 12.235C8.56256 12.2525 8.57626 12.2835 8.5664 12.303C8.55654 12.3224 8.51789 12.3359 8.50829 12.332C8.49472 12.3223 8.45197 12.235 8.448 12.2214Z" fill="#82764F"/>
<path fill-rule="evenodd" clip-rule="evenodd" d="M7.78061 12.4758C7.78061 12.4758 7.82336 12.4854 7.8816 12.534C7.86214 12.5476 7.83296 12.5631 7.83296 12.5631C7.83296 12.5631 7.82912 12.5184 7.78061 12.4756V12.4758Z" fill="#6E6342"/>
<path fill-rule="evenodd" clip-rule="evenodd" d="M7.6855 12.0485C7.67578 12.0389 7.71456 12.0156 7.73786 12.0195C7.76115 12.0233 7.77088 12.0389 7.7961 12.0428C7.82131 12.0466 7.82528 12.033 7.8345 12.0233C7.84371 12.0136 7.87725 12.0195 7.88301 12.0233C7.8866 12.0276 7.88985 12.0321 7.89274 12.0369C7.89314 12.0295 7.89507 12.0223 7.89839 12.0156C7.90172 12.009 7.90637 12.0032 7.91206 11.9985C7.91951 11.993 7.9281 11.9893 7.93719 11.9876C7.94628 11.9859 7.95563 11.9863 7.96454 11.9887C7.96838 12.0023 7.98784 12.0508 7.984 12.0605C7.98016 12.0703 7.92192 12.084 7.91206 12.0741C7.92179 12.0975 7.96454 12.146 7.9703 12.1556C7.97606 12.1652 7.92755 12.1887 7.90822 12.1848C7.88109 12.1829 7.71405 12.0858 7.68499 12.0489L7.6855 12.0485ZM7.93984 11.7262C7.93624 11.7164 7.92937 11.7082 7.92038 11.7029C7.90682 11.6991 7.86214 11.7029 7.86214 11.7262C7.86214 11.7495 7.90054 11.8798 7.94368 11.9476C7.99232 12.0156 8.02522 12.0718 8.05824 12.0874C8.06861 12.0921 8.08038 12.0928 8.09119 12.0892C8.10199 12.0855 8.11103 12.078 8.11648 12.068C8.12032 12.0582 8.13005 11.9864 8.12621 11.8175C8.12237 11.6485 8.11648 11.4854 8.10675 11.4757C8.09702 11.466 8.05824 11.4661 8.04467 11.4854C8.0311 11.5048 7.94368 11.6972 7.93971 11.7262H7.93984Z" fill="#585136"/>
<path fill-rule="evenodd" clip-rule="evenodd" d="M7.76704 12.7204C7.76704 12.7204 7.69907 12.6776 7.63302 12.7068C7.57094 12.736 7.57478 12.8506 7.57478 12.8506C7.58875 12.856 7.60384 12.858 7.61874 12.8563C7.63365 12.8546 7.64791 12.8493 7.66029 12.8408C7.70304 12.8118 7.75731 12.7633 7.76704 12.7205V12.7204Z" fill="#574F35"/>
<path fill-rule="evenodd" clip-rule="evenodd" d="M7.89517 12.8739C7.89133 12.8355 7.85677 12.8355 7.85677 12.8156C7.85915 12.8061 7.86464 12.7977 7.87237 12.7917C7.8801 12.7857 7.88962 12.7825 7.89939 12.7826C7.91885 12.7826 7.93779 12.8059 7.9616 12.821C7.9849 12.8346 8.01984 12.8594 8.02368 12.889C8.02752 12.9185 7.98528 12.9996 7.9383 12.9996C7.89133 12.9996 7.90528 12.9121 7.89555 12.8733L7.89517 12.8739ZM8.26995 12.8214C8.26995 12.8214 8.19226 12.8447 8.19802 12.8214C8.20378 12.7981 8.22144 12.7923 8.24666 12.7923C8.25947 12.7789 8.2767 12.7706 8.29517 12.7689C8.30573 12.7684 8.3161 12.7718 8.32422 12.7786C8.32422 12.7786 8.3767 12.7553 8.39219 12.7689C8.40768 12.7825 8.39616 12.7825 8.40576 12.7981C8.41798 12.8154 8.426 12.8354 8.42918 12.8563C8.42918 12.8718 8.37094 12.9048 8.32422 12.8991C8.26995 12.8874 8.27955 12.8311 8.26995 12.8214ZM8.7223 12.734C8.7223 12.734 8.7456 12.7475 8.72627 12.7631C8.7127 12.7767 8.64474 12.8015 8.58637 12.8059C8.52813 12.8059 8.47578 12.8155 8.47578 12.7962C8.47578 12.7768 8.52429 12.7379 8.55334 12.7282C8.55917 12.7209 8.56657 12.715 8.575 12.711C8.58342 12.7069 8.59265 12.7049 8.60198 12.7049C8.62528 12.7049 8.71642 12.6952 8.74176 12.6913C8.76506 12.6874 8.78451 12.7009 8.77082 12.7204C8.76506 12.734 8.7223 12.734 8.7223 12.734ZM8.85632 12.1344C8.85632 12.1344 8.82714 12.1965 8.79424 12.1965C8.76122 12.1926 8.76122 12.1829 8.76122 12.1732C8.76122 12.1596 8.79424 12.1247 8.79027 12.1149C8.78067 12.1149 8.75725 12.1149 8.76122 12.0916C8.76122 12.0722 8.79424 12.0489 8.8233 12.0532C8.84525 12.0352 8.87259 12.025 8.90099 12.0242C8.93402 12.0242 8.96307 12.0338 8.96307 12.0532C8.96307 12.0727 8.92467 12.1153 8.91059 12.1252C8.8951 12.1407 8.87565 12.1508 8.85632 12.1348V12.1344ZM8.41357 13.2819C8.41357 13.2819 8.37517 13.2859 8.37517 13.3052C8.37517 13.3149 8.38477 13.3149 8.39846 13.3092C8.40635 13.3087 8.41417 13.3074 8.42176 13.3052C8.4256 13.3092 8.4256 13.3285 8.45478 13.3285C8.47875 13.3253 8.50184 13.3174 8.52275 13.3052C8.54605 13.2956 8.5655 13.2858 8.5655 13.2668C8.55578 13.2338 8.53632 13.2182 8.50726 13.2182C8.49237 13.2172 8.47753 13.2206 8.46451 13.2279C8.46451 13.2279 8.45478 13.2084 8.42176 13.2279C8.38874 13.2474 8.39258 13.2474 8.4023 13.2571C8.41971 13.2726 8.41395 13.2827 8.41395 13.2827L8.41357 13.2819ZM8.19418 13.4839C8.19418 13.4742 8.24269 13.4547 8.25626 13.4606C8.26982 13.4644 8.30861 13.5382 8.30861 13.546C8.30861 13.5557 8.2601 13.579 8.24064 13.579C8.22118 13.579 8.18829 13.546 8.18829 13.5406C8.18829 13.5368 8.21158 13.531 8.21158 13.527C8.21734 13.5174 8.19418 13.494 8.19418 13.4843V13.4839ZM8.04058 13.2004C8.0503 13.1965 8.0503 13.1868 8.06387 13.1771C8.06812 13.1743 8.07296 13.1724 8.07802 13.1718C8.08308 13.1711 8.08822 13.1716 8.09306 13.1732C8.09648 13.1671 8.10122 13.1619 8.10693 13.1578C8.11264 13.1538 8.11918 13.151 8.12608 13.1498C8.14938 13.146 8.16883 13.1498 8.16448 13.1596C8.16448 13.1887 8.18394 13.2081 8.18394 13.2314C8.18394 13.2547 8.17037 13.2838 8.12186 13.3033C8.07334 13.3169 8.0073 13.3169 7.99757 13.313C7.98784 13.3092 7.97811 13.2703 7.98784 13.2508C7.99757 13.2314 8.0247 13.2101 8.04032 13.2004H8.04058Z" fill="#82764F"/>
<path fill-rule="evenodd" clip-rule="evenodd" d="M8.1024 13.2136C8.1024 13.2136 8.06938 13.233 8.06938 13.2428C8.06645 13.2521 8.06515 13.262 8.06554 13.2718C8.06554 13.2776 8.10829 13.268 8.11405 13.2621C8.11597 13.2582 8.1024 13.2237 8.1024 13.2136Z" fill="#6E6342"/>
<path fill-rule="evenodd" clip-rule="evenodd" d="M7.81363 13.1223C7.83296 13.1263 7.86598 13.1223 7.8912 13.132C7.91066 13.1418 7.92422 13.1612 7.90477 13.1845C7.88531 13.2078 7.86637 13.2428 7.82323 13.2369C7.77472 13.233 7.72813 13.2078 7.72813 13.1884C7.72731 13.176 7.72895 13.1637 7.73295 13.152C7.73695 13.1404 7.74323 13.1296 7.75142 13.1204C7.77088 13.1049 7.78048 13.1146 7.8135 13.1223H7.81363Z" fill="#585136"/>
<path fill-rule="evenodd" clip-rule="evenodd" d="M7.79034 13.1418C7.79034 13.1418 7.72826 13.1903 7.71264 13.2137C7.69318 13.237 7.59808 13.3573 7.56902 13.3825C7.57867 13.3655 7.58967 13.3493 7.60192 13.334C7.56352 13.3586 7.53473 13.3956 7.52038 13.4388C7.49709 13.5108 7.65056 13.5496 7.75142 13.5788C7.85229 13.6079 7.89133 13.6172 7.89133 13.6172C7.85419 13.5613 7.82231 13.5022 7.7961 13.4405C7.7577 13.3492 7.73786 13.3395 7.76307 13.2968C7.78253 13.254 7.81171 13.225 7.81171 13.1919C7.80006 13.1612 7.79034 13.1418 7.79034 13.1418Z" fill="#574F35"/>
<path fill-rule="evenodd" clip-rule="evenodd" d="M5.5767 13.2952C5.59084 13.2978 5.60532 13.2978 5.61946 13.2952C5.64851 13.2913 5.95149 13.18 6.26803 13.2C6.505 13.2143 6.73987 13.2529 6.96896 13.3152C7.36704 13.42 7.86214 13.6278 8.18253 13.7463C8.2679 13.7792 8.35149 13.8376 8.41293 13.8607C8.65766 13.956 8.66726 13.956 8.81101 13.9812C8.97997 14.0045 9.15277 13.9482 9.33338 13.9094C9.55469 13.8607 9.93331 13.8374 10.2653 13.7889C10.3727 13.774 10.4786 13.75 10.5819 13.7171C10.5819 13.7171 10.3178 13.9812 9.68474 14.0763C9.42884 14.1151 9.16879 14.1184 8.912 14.086C8.71002 14.0666 8.57613 14.0374 8.47514 14.0083C8.36058 13.9753 8.12557 13.8879 7.83629 13.8163C7.6343 13.7638 7.40902 13.7251 7.15085 13.6765C6.51392 13.5599 5.82272 13.426 5.57645 13.296L5.5767 13.2952Z" fill="#252211"/>
<path fill-rule="evenodd" clip-rule="evenodd" d="M4.86208 12.0952C4.70848 12.2253 4.54554 12.3496 4.38643 12.4699L3.90682 12.8384C3.74374 12.9587 3.58451 13.083 3.42131 13.2035C3.25811 13.3239 3.09517 13.4383 2.92211 13.5491C3.07571 13.419 3.23866 13.2986 3.40173 13.1802C3.5648 13.0618 3.73389 12.9457 3.8912 12.8256L4.37082 12.4566C4.53581 12.3363 4.69504 12.212 4.86208 12.0955V12.0952ZM4.01357 13.4545C4.01357 13.4545 4.18637 13.3107 4.40192 13.1089C4.66982 12.8585 4.99802 12.538 5.10285 12.4799L4.01344 13.4546L4.01357 13.4545Z" fill="#CFB66C"/>
<path fill-rule="evenodd" clip-rule="evenodd" d="M4.01357 13.4543C4.09907 13.369 4.19034 13.2855 4.2816 13.2038L4.42138 13.0835C4.46413 13.0451 4.51277 13.002 4.55539 12.9592C4.64077 12.8739 4.72435 12.7825 4.80973 12.6952C4.85204 12.6513 4.89679 12.6098 4.94374 12.5709C4.96722 12.5501 4.99329 12.5325 5.02131 12.5184C5.04474 12.5048 5.06995 12.48 5.10285 12.4756C5.08352 12.5048 5.06022 12.5184 5.04077 12.5436C5.01747 12.5631 4.99802 12.5864 4.97869 12.6057C4.93594 12.6484 4.88742 12.6872 4.84467 12.7261C4.75341 12.8038 4.6583 12.8797 4.56704 12.961C4.47578 13.0423 4.3904 13.13 4.29901 13.2115C4.20006 13.2951 4.1088 13.3766 4.01357 13.4547V13.4543ZM5.17478 12.6776C5.17478 12.6776 4.54182 13.2972 4.41165 13.398L5.17478 12.6776Z" fill="#CFB66C"/>
<path fill-rule="evenodd" clip-rule="evenodd" d="M5.17478 12.6776C5.11784 12.7435 5.05679 12.8058 4.992 12.864L4.8 13.0465C4.73792 13.1086 4.67955 13.1708 4.61363 13.2329C4.54566 13.2911 4.48358 13.3481 4.41165 13.4019L4.59802 13.2193C4.66022 13.1572 4.72819 13.1049 4.79424 13.0427L4.98061 12.8602C5.04461 12.7962 5.10682 12.734 5.17478 12.6776ZM5.20384 13.0135C5.1455 13.1763 5.07675 13.3353 4.99802 13.4893C4.83494 13.8156 4.59034 14.2232 4.48346 14.4311L5.20384 13.0135Z" fill="#CFB66C"/>
<path fill-rule="evenodd" clip-rule="evenodd" d="M5.20384 13.0136C5.20384 13.0854 5.18438 13.1476 5.16109 13.2097C5.13838 13.2719 5.11249 13.3328 5.08352 13.3923C5.05434 13.4505 5.02131 13.5127 4.98829 13.569C4.95526 13.6253 4.91648 13.6835 4.8873 13.7418L4.6912 14.0874C4.62323 14.2026 4.55718 14.3185 4.48538 14.4292C4.53389 14.3049 4.59994 14.1884 4.66214 14.0739C4.73011 13.9587 4.79219 13.8435 4.85414 13.7243C4.88439 13.6649 4.91161 13.604 4.93568 13.5419C4.96474 13.4797 4.99379 13.4214 5.01722 13.3651C5.04627 13.303 5.06957 13.2447 5.09875 13.1885C5.13165 13.1282 5.15891 13.07 5.20358 13.0136H5.20384Z" fill="#CFB66C"/>
<path fill-rule="evenodd" clip-rule="evenodd" d="M5.89517 14.6058C5.89517 14.6058 5.70317 14.8602 5.72237 15.1825C5.77472 15.0136 5.84077 14.7553 5.89517 14.6058ZM6.0777 14.8608C6.0777 14.8608 6.00973 15.552 5.95341 15.8918C6.03302 15.499 6.04851 15.532 6.0777 14.8608ZM7.3495 15.9327C7.3495 15.9327 7.06214 16.7775 7.05626 17.0122C7.11846 16.7708 7.23878 16.2776 7.3495 15.932V15.9327Z" fill="#DEC270"/>
<path fill-rule="evenodd" clip-rule="evenodd" d="M8.02138 14.5536C8.02138 14.5536 8.48742 15.3225 8.83699 15.9788C8.7424 15.6485 8.5248 15.0428 8.02138 14.5536Z" fill="#CBAF59"/>
<path fill-rule="evenodd" clip-rule="evenodd" d="M9.27386 15.6855C9.52974 16.1378 9.76049 16.6039 9.96506 17.0816C9.92627 16.7515 9.82131 16.1865 9.27386 15.6855Z" fill="#E3C677"/>
<path fill-rule="evenodd" clip-rule="evenodd" d="M12.9554 16.8192C13.033 16.7707 13.1864 16.5065 13.3204 16.4406C13.4543 16.3726 13.5553 16.359 13.6758 16.225C13.7961 16.0851 13.8294 15.9997 14.0932 15.8892C14.4622 15.7298 14.2084 15.524 14.2084 15.524C14.249 15.484 14.2925 15.4471 14.3384 15.4134C14.4337 15.3416 14.5443 15.2541 14.5347 15.1007C14.5211 14.8425 14.4726 14.4677 14.2609 14.2502C14.4667 14.2075 14.8608 14.1784 15.1057 14.1164C15.3891 14.0444 15.5192 13.9434 15.5192 13.9434C15.5192 13.9434 15.3562 13.6658 15.6202 13.3862C15.8843 13.1067 16.0998 12.9396 16.2591 12.6269C16.0765 12.6036 15.7983 12.5066 15.0881 12.7764C15.1265 12.7945 15.1635 12.8152 15.1988 12.8385C15.1988 12.8385 14.762 12.959 14.6028 13.093C14.325 13.3279 14.29 13.5201 13.9891 13.6639C13.6882 13.8076 13.3852 13.7687 13.1348 13.8852C12.8845 14.0017 12.8475 14.1007 12.7561 14.1435C12.7756 14.1668 12.7523 14.2056 12.7891 14.2386C12.7658 14.2716 12.6299 14.4929 12.492 14.4929C12.5056 14.5454 12.6221 14.5842 12.6221 14.5842C12.6221 14.5842 12.5367 14.6464 12.3192 14.6619C12.4298 14.7771 12.5348 14.9027 12.8241 15.0852C12.8008 15.1337 12.7036 15.2056 12.7425 15.2969C12.7853 15.3882 12.8961 15.5124 13.3386 15.6134C13.1133 15.623 12.8494 15.6755 12.4938 15.627C12.1385 15.5843 12.0803 15.559 11.8609 15.6134C11.8842 15.6367 11.9462 15.6367 12.0006 15.6988C11.9424 15.7027 11.5773 15.6561 11.4531 15.8193C11.323 15.9881 11.2667 16.2659 11.2764 16.4522C11.2084 16.4852 11.1424 16.5435 11.1754 16.6639C11.2084 16.7844 11.3812 16.8232 11.492 16.8988C11.6026 16.9804 11.6123 17.0094 11.7172 16.9901C11.8278 16.9668 11.9909 16.8562 12.0861 16.8562C12.1814 16.8562 12.2492 16.928 12.2492 16.928C12.2492 16.928 12.5075 16.8037 12.5327 16.827C12.556 16.8503 12.5366 16.9998 12.5618 17.0231C12.5874 17.0406 12.8783 16.8678 12.956 16.8192H12.9554Z" fill="#ECD592"/>
<path fill-rule="evenodd" clip-rule="evenodd" d="M18.6001 9.04858C17.3865 5.91462 14.3864 5.33402 14.3864 5.33402H5.8272L5.86022 8.52621H7.5648V15.6544H5.82707V18.8408H14.1495C16.1553 18.8408 17.7631 16.8252 17.7631 16.8252C20.3378 13.1709 18.5999 9.04858 18.5999 9.04858H18.6001ZM14.1942 14.6776C14.1942 14.6776 13.5414 15.6195 12.8311 15.6195H11.4103L11.3766 8.53402H13.2C13.2 8.53402 14.0448 8.71066 14.635 10.3825C14.635 10.3825 15.4175 12.7761 14.1942 14.6776Z" fill="white" fill-opacity="0.8"/>
</svg>
