<svg width="40" height="40" viewBox="0 0 24 24" fill="none" xmlns="http://www.w3.org/2000/svg">
<rect width="24" height="24" rx="12" fill="white"/>
<path d="M12.3153 2L12.1773 2.45574V15.6802L12.3153 15.8141L18.6306 12.1855L12.3153 2Z" fill="#62688F"/>
<path d="M12.3153 2L6 12.1855L12.3153 15.8141L12.3153 9.39534L12.3153 2Z" fill="#8A92B2"/>
<path d="M12.3153 16.9764L12.2376 17.0685V21.7793L12.3153 22L18.6345 13.3497L12.3153 16.9764Z" fill="#62688F"/>
<path d="M12.3153 22V16.9764L6 13.3497L12.3153 22Z" fill="#8A92B2"/>
<path d="M12.3153 15.8141L18.6306 12.1855L12.3153 9.39534L12.3153 15.8141Z" fill="#454A75"/>
<path d="M6 12.1855L12.3153 15.8141L12.3153 9.39534L6 12.1855Z" fill="#62688F"/>
</svg>
