<svg width="40" height="40" viewBox="0 0 24 24" fill="none" xmlns="http://www.w3.org/2000/svg">
<circle cx="12" cy="12" r="12" fill="#25B6EA"/>
<path fill-rule="evenodd" clip-rule="evenodd" d="M13.1622 9.65922L15.9251 8.04752V11.2709L13.1622 9.65922ZM15.9251 16.5665L12.2412 18.7154L8.55732 16.5665V12.8059L12.2412 14.9548L15.9251 12.8059V16.5665ZM8.55732 8.04752L11.3202 9.65922L8.55732 11.2709V8.04752ZM12.7017 10.4267L15.4646 12.0384L12.7017 13.6501V10.4267ZM11.7807 13.6501L9.01781 12.0384L11.7807 10.4267V13.6501ZM15.4646 7.28005L12.2412 9.12198L9.01781 7.28005L12.2412 5.36136L15.4646 7.28005ZM7.63635 6.97306V17.027L12.2412 19.6364L16.846 17.027V6.97306L12.2412 4.36365L7.63635 6.97306Z" fill="#F2F1F1"/>
</svg>
