<svg width="40" height="40" viewBox="0 0 24 24" fill="none" xmlns="http://www.w3.org/2000/svg">
    <circle cx="12" cy="12" r="12" fill="#2E3133"/>
    <path d="M12 24C18.6274 24 24 18.6274 24 12C24 5.37258 18.6274 0 12 0C5.37258 0 0 5.37258 0 12C0 18.6274 5.37258 24 12 24Z" fill="#1969FF"/>
    <path d="M11.2723 3.8161C11.6766 3.60297 12.2917 3.60297 12.696 3.8161L16.8214 5.99099C17.0649 6.11934 17.1986 6.31062 17.2226 6.50808H17.2265V17.4401C17.2211 17.6555 17.0862 17.8694 16.8214 18.009L12.696 20.1839C12.2917 20.397 11.6766 20.397 11.2723 20.1839L7.14689 18.009C6.88324 17.87 6.75671 17.6546 6.75045 17.4401C6.7498 17.4181 6.74975 17.3999 6.75043 17.385L6.75045 6.58169C6.74983 6.56649 6.74982 6.55136 6.75043 6.53629L6.75045 6.50808H6.75229C6.77061 6.30844 6.89827 6.12204 7.14689 5.99099L11.2723 3.8161ZM16.5703 12.5859L12.6947 14.6358C12.291 14.8493 11.6768 14.8493 11.2731 14.6358L7.40619 12.5905V17.4063L11.2731 19.4407C11.5016 19.563 11.7392 19.6821 11.9706 19.6873L11.9839 19.6875C12.2148 19.6883 12.439 19.5708 12.6663 19.4597L16.5703 17.3888V12.5859ZM6.10362 17.2031C6.10362 17.6222 6.1519 17.8976 6.24775 18.0917C6.32719 18.2525 6.44639 18.3754 6.66405 18.525L6.67647 18.5335C6.72424 18.566 6.77685 18.6 6.8409 18.64L6.91644 18.6867L7.14838 18.8279L6.81571 19.3828L6.55611 19.2246L6.51248 19.1976C6.43742 19.1508 6.3752 19.1107 6.31717 19.0712C5.69686 18.6493 5.46551 18.1893 5.46095 17.2323L5.46088 17.2031H6.10362ZM11.6718 9.67969C11.6418 9.69001 11.6137 9.70198 11.588 9.71556L7.46892 11.8974C7.4646 11.8997 7.46048 11.902 7.45655 11.9042L7.45306 11.9062L7.45953 11.91L7.46892 11.9151L11.588 14.0969C11.6137 14.1105 11.6418 14.1225 11.6718 14.1328V9.67969ZM12.3281 9.67969V14.1328C12.3581 14.1225 12.3862 14.1105 12.4119 14.0969L16.5309 11.9151C16.5353 11.9128 16.5394 11.9105 16.5433 11.9083L16.5468 11.9062L16.5403 11.9025L16.5309 11.8974L12.4119 9.71556C12.3862 9.70198 12.3581 9.69001 12.3281 9.67969ZM16.5703 7.28906L12.8671 9.23438L16.5703 11.1797V7.28906ZM7.40619 7.28906V11.1797L11.1093 9.23438L7.40619 7.28906ZM12.4083 4.39751C12.1939 4.28416 11.806 4.28416 11.5916 4.39751L7.46893 6.57712C7.46461 6.57941 7.46048 6.58167 7.45656 6.58392L7.45306 6.58594L7.45954 6.58964L7.46893 6.59475L11.5916 8.77435C11.806 8.88772 12.1939 8.88772 12.4083 8.77435L16.5309 6.59475C16.5353 6.59246 16.5394 6.5902 16.5433 6.58797L16.5468 6.58594L16.5403 6.58223L16.5309 6.57712L12.4083 4.39751ZM17.1842 4.61719L17.4438 4.77537L17.4874 4.8024C17.5625 4.84915 17.6247 4.88931 17.6827 4.92878C18.303 5.35072 18.5344 5.81075 18.5389 6.76772L18.539 6.79688H17.8963C17.8963 6.37778 17.848 6.10235 17.7521 5.90829C17.6727 5.74746 17.5535 5.62454 17.3358 5.47498L17.3234 5.46649C17.2756 5.434 17.223 5.39996 17.159 5.35996L17.0834 5.31328L16.8515 5.17206L17.1842 4.61719Z" fill="white"/>
    </svg>
    