<svg width="40" height="40" viewBox="0 0 24 24" fill="none" xmlns="http://www.w3.org/2000/svg">
<path d="M23.9901 12C23.9901 13.5759 23.6798 15.1363 23.077 16.5922C22.4742 18.0481 21.5906 19.371 20.4768 20.4853C19.363 21.5996 18.0406 22.4835 16.5853 23.0865C15.13 23.6896 13.5702 24 11.995 24C10.4198 24 8.86004 23.6896 7.40473 23.0865C5.94943 22.4835 4.62711 21.5996 3.51326 20.4853C2.39942 19.371 1.51587 18.0481 0.913067 16.5922C0.31026 15.1363 -2.98224e-07 13.5759 0 12C6.02292e-07 8.8174 1.26376 5.76516 3.51327 3.51472C5.76277 1.26429 8.81375 1.32614e-07 11.995 0C15.1763 -1.20558e-07 18.2273 1.26429 20.4768 3.51472C22.7263 5.76516 23.9901 8.8174 23.9901 12Z" fill="#1E1E1E"/>
<path fill-rule="evenodd" clip-rule="evenodd" d="M12.0057 2.13562C6.56577 2.13562 2.15455 6.55562 2.15455 12.0106C2.15455 17.4656 6.56577 21.8855 12.0057 21.8855C17.4457 21.8855 21.8568 17.4656 21.8568 12.0106C21.8568 6.55758 17.4456 2.13562 12.0057 2.13562ZM1.15564 12.0106C1.15564 6.0025 6.01423 1.13431 12.0057 1.13431C17.9973 1.13431 22.8559 6.00455 22.8559 12.0106C22.8559 18.0187 17.9972 22.887 12.0057 22.887C6.01423 22.887 1.15564 18.0187 1.15564 12.0106Z" fill="#FF7B7C"/>
<path fill-rule="evenodd" clip-rule="evenodd" d="M16.2889 9.41919L13.5519 9.30505L15.4118 7.28639L14.6627 6.53739L12.6469 8.39584L12.537 5.65222H11.4802L11.3663 8.39584L9.35249 6.53138L8.60532 7.28236L10.4613 9.30303L7.72229 9.41117V10.4726L10.4593 10.5867L8.59931 12.6054L9.3485 13.3544L11.3323 11.524L11.4202 15.9698L9.83597 16.086V17.0732L11.4442 17.1954L11.4742 18.7395H12.531L12.563 17.1974L14.1872 17.0732V16.086L12.5869 15.9698L12.6769 11.5259L14.6587 13.3584L15.4058 12.6094L13.5519 10.5887L16.2889 10.4786L16.2889 9.41919Z" fill="#FF7B7C"/>
</svg>
