<svg width="40" height="40" viewBox="0 0 24 24" fill="none" xmlns="http://www.w3.org/2000/svg">
<rect width="24" height="24" rx="12" fill="black"/>
<path d="M23.9901 12C23.9901 13.5759 23.6798 15.1363 23.077 16.5922C22.4742 18.0481 21.5906 19.371 20.4768 20.4853C19.363 21.5996 18.0406 22.4835 16.5853 23.0865C15.13 23.6896 13.5702 24 11.995 24C10.4198 24 8.86004 23.6896 7.40473 23.0865C5.94943 22.4835 4.62711 21.5996 3.51326 20.4853C2.39942 19.371 1.51587 18.0481 0.913067 16.5922C0.31026 15.1363 -2.98224e-07 13.5759 0 12C6.02292e-07 8.8174 1.26376 5.76516 3.51327 3.51472C5.76277 1.26429 8.81375 1.32614e-07 11.995 0C15.1763 -1.20558e-07 18.2273 1.26429 20.4768 3.51472C22.7263 5.76516 23.9901 8.8174 23.9901 12Z" fill="white"/>
<path d="M22 12C22 6.47715 17.5228 2 12 2C6.47715 2 2 6.47715 2 12C2 17.5228 6.47715 22 12 22C17.5228 22 22 17.5228 22 12Z" fill="#263238"/>
<mask id="mask0_10321_72408" style="mask-type:luminance" maskUnits="userSpaceOnUse" x="2" y="2" width="20" height="20">
<path d="M22 12C22 6.47715 17.5228 2 12 2C6.47715 2 2 6.47715 2 12C2 17.5228 6.47715 22 12 22C17.5228 22 22 17.5228 22 12Z" fill="#E53935"/>
</mask>
<g mask="url(#mask0_10321_72408)">
<path d="M21.3133 6.17609V4.8337H17.0611C16.833 3.9663 16.6048 3.20217 16.3559 2.5L14.9247 2.74783C15.1736 3.36739 15.4225 4.06957 15.6507 4.8337H11.1496V6.17609H21.3133ZM10.4236 16.1511V7.58043H8.3286C8.76419 6.94022 9.19978 6.15543 9.63537 5.20543V4.21413H6.21288C6.39956 3.80109 6.5655 3.38804 6.73144 2.95435L5.40393 2.5413C4.78166 4.56522 3.80677 6.19674 2.5 7.45652L2.81114 8.92283C3.08079 8.675 3.35044 8.42717 3.59935 8.1587V16.1511H10.4236ZM6.89738 7.58043H4.1179C4.65721 6.91957 5.17576 6.17609 5.6321 5.3913H8.24563C7.7893 6.21739 7.35371 6.96087 6.89738 7.58043ZM15.4432 21.5C16.4803 21.5 17.0197 20.9217 17.0197 19.7859V13.9H20.3177V8.03478H12.2489V13.9H15.5677V19.4348C15.5677 19.9511 15.3603 20.2196 14.9454 20.2196C14.4683 20.2196 13.9705 20.1783 13.4727 20.1163L13.7631 21.5H15.4432ZM6.42031 11.2565H4.88537V8.79891H6.42031V11.2565ZM9.13756 11.2565H7.62336V8.79891H9.13756V11.2565ZM18.9072 12.5989H13.6594V9.35652H18.9072V12.5989ZM9.13756 14.912H7.62336V12.4543H9.13756V14.912ZM6.42031 14.912H4.88537V12.4543H6.42031V14.912ZM20.4007 20.55L21.5 19.7859C20.94 18.4641 20.1517 16.9359 19.1146 15.1804L18.0153 15.8413C19.0109 17.5554 19.8199 19.125 20.4007 20.55ZM11.7096 20.9011C12.6223 19.4761 13.4105 17.7826 14.0742 15.8413L12.8712 15.263C12.2282 17.1217 11.4607 18.7326 10.5895 20.0957L11.7096 20.9011ZM9.98799 19.4967L11.0044 19.2489C10.714 18.2576 10.4236 17.3902 10.0917 16.6467L9.11681 16.9359C9.44869 17.762 9.73908 18.6087 9.98799 19.4967ZM7.7893 20.6946L8.8679 20.5707C8.74345 19.0011 8.51528 17.762 8.18341 16.8533L7.14629 16.9772C7.47817 17.8446 7.68559 19.0837 7.7893 20.6946ZM3.82751 21.2522C4.2631 20.0337 4.53275 18.65 4.65721 17.0804L3.53712 16.9359C3.43341 18.4228 3.14301 19.7446 2.68668 20.9011L3.82751 21.2522ZM5.56987 21.0043L6.64847 20.8804C6.60699 19.2489 6.50328 17.9478 6.35808 16.9978L5.36245 17.1217C5.46616 18.0304 5.52838 19.3315 5.56987 21.0043Z" fill="#E53935"/>
</g>
</svg>
