<svg width="24" height="24" viewBox="0 0 24 24" fill="none" xmlns="http://www.w3.org/2000/svg">
<path d="M7.90909 5.86364C6.77942 5.86364 5.86364 6.77942 5.86364 7.90909V16.0909C5.86364 17.2206 6.77942 18.1364 7.90909 18.1364H16.0909C17.2206 18.1364 18.1364 17.2206 18.1364 16.0909V14.7273C18.1364 14.3507 18.4416 14.0455 18.8182 14.0455C19.1947 14.0455 19.5 14.3507 19.5 14.7273V16.0909C19.5 17.9737 17.9737 19.5 16.0909 19.5H7.90909C6.0263 19.5 4.5 17.9737 4.5 16.0909V7.90909C4.5 6.0263 6.0263 4.5 7.90909 4.5H9.27273C9.64929 4.5 9.95455 4.80526 9.95455 5.18182C9.95455 5.55838 9.64929 5.86364 9.27273 5.86364H7.90909Z" fill="#9ECAFF"/>
<path fill-rule="evenodd" clip-rule="evenodd" d="M12.6812 5.18182C12.6812 4.80526 12.9865 4.5 13.3631 4.5L18.8172 4.5L18.8176 4.5C19.1942 4.5 19.4994 4.80526 19.4994 5.18182C19.4994 5.18973 19.4993 5.19762 19.499 5.20547V10.6364C19.499 11.0129 19.1938 11.3182 18.8172 11.3182C18.4406 11.3182 18.1354 11.0129 18.1354 10.6364V6.80686L11.1119 13.8303C10.8457 14.0966 10.414 14.0966 10.1477 13.8303C9.88143 13.564 9.88143 13.1323 10.1477 12.8661L17.1501 5.86364H13.3631C12.9865 5.86364 12.6812 5.55838 12.6812 5.18182Z" fill="#9ECAFF"/>
</svg>
