<svg width="40" height="40" viewBox="0 0 24 24" fill="none" xmlns="http://www.w3.org/2000/svg">
<rect width="24" height="24" rx="12" fill="#3E5C98"/>
<path d="M11.0035 16.6849L12.2776 12.3888L14.2627 11.8258L14.6775 10.4037L12.722 10.9962L14.796 3.94464V3.83205C14.7945 3.78691 14.784 3.74251 14.7653 3.7014C14.7466 3.66028 14.72 3.62325 14.687 3.59244C14.654 3.56162 14.6152 3.53761 14.5729 3.52178C14.5306 3.50596 14.4856 3.49863 14.4404 3.50021H11.8035C11.7037 3.49714 11.6057 3.52755 11.5252 3.58661C11.4446 3.64568 11.3862 3.72999 11.3591 3.82613L8.89991 12.1814L6.94443 12.7739L6.5 14.1369L8.45548 13.5443L6.7074 19.4996H17.1366C17.2367 19.5038 17.3352 19.4738 17.416 19.4145C17.4967 19.3553 17.5549 19.2704 17.5811 19.1737L18.1736 17.1293V17.0168C18.1721 16.9716 18.1617 16.9272 18.143 16.8861C18.1243 16.845 18.0977 16.808 18.0647 16.7771C18.0316 16.7463 17.9929 16.7223 17.9506 16.7065C17.9083 16.6907 17.8632 16.6833 17.8181 16.6849H11.0035Z" fill="white"/>
</svg>
