<svg width="40" height="40" viewBox="0 0 24 24" fill="none" xmlns="http://www.w3.org/2000/svg">
<circle cx="12" cy="12" r="12" fill="white"/>
<path d="M15.9618 6.11909L13.2254 10.1818C13.1865 10.2403 13.17 10.311 13.1791 10.3807C13.1882 10.4504 13.2222 10.5145 13.2749 10.561C13.3275 10.6076 13.3953 10.6335 13.4656 10.634C13.5359 10.6345 13.604 10.6095 13.6573 10.5636L16.3509 8.22727C16.3667 8.21315 16.3862 8.20393 16.4072 8.20073C16.4281 8.19754 16.4495 8.20051 16.4688 8.20928C16.4881 8.21805 16.5044 8.23225 16.5157 8.25013C16.5271 8.26802 16.533 8.28882 16.5327 8.31V15.6245C16.5327 15.6469 16.5258 15.6688 16.5129 15.6871C16.5001 15.7055 16.4819 15.7194 16.4609 15.727C16.4398 15.7347 16.4169 15.7357 16.3953 15.7299C16.3737 15.724 16.3544 15.7117 16.34 15.6945L8.19817 5.94818C8.06721 5.79354 7.90414 5.66928 7.7203 5.58403C7.53646 5.49878 7.33626 5.4546 7.13362 5.45454H6.84907C6.47922 5.45454 6.12451 5.60147 5.86298 5.863C5.60145 6.12452 5.45453 6.47923 5.45453 6.84909V17.1509C5.45453 17.5208 5.60145 17.8755 5.86298 18.137C6.12451 18.3985 6.47922 18.5455 6.84907 18.5455C7.08754 18.5455 7.32205 18.4845 7.53022 18.3681C7.73838 18.2518 7.91326 18.084 8.03817 17.8809L10.7745 13.8182C10.8135 13.7597 10.83 13.689 10.8209 13.6193C10.8118 13.5496 10.7778 13.4855 10.7251 13.439C10.6724 13.3924 10.6047 13.3665 10.5344 13.366C10.4641 13.3655 10.396 13.3905 10.3427 13.4364L7.64907 15.7727C7.63329 15.7868 7.61373 15.7961 7.59279 15.7993C7.57185 15.8025 7.55044 15.7995 7.53116 15.7907C7.51188 15.7819 7.49557 15.7678 7.48422 15.7499C7.47288 15.732 7.46698 15.7112 7.46726 15.69V8.37364C7.46726 8.35124 7.47416 8.32939 7.48702 8.31106C7.49987 8.29272 7.51806 8.27878 7.5391 8.27114C7.56015 8.26349 7.58304 8.26251 7.60467 8.26833C7.62629 8.27414 7.64561 8.28647 7.65998 8.30363L15.8009 18.0518C15.9319 18.2065 16.0949 18.3307 16.2788 18.416C16.4626 18.5012 16.6628 18.5454 16.8654 18.5455H17.15C17.3332 18.5456 17.5146 18.5096 17.6839 18.4396C17.8532 18.3695 18.0071 18.2668 18.1367 18.1373C18.2663 18.0078 18.3691 17.854 18.4392 17.6848C18.5093 17.5155 18.5454 17.3341 18.5454 17.1509V6.84909C18.5454 6.47923 18.3985 6.12452 18.137 5.863C17.8755 5.60147 17.5208 5.45454 17.1509 5.45454C16.9124 5.45448 16.6779 5.51553 16.4698 5.63187C16.2616 5.74821 16.0867 5.91595 15.9618 6.11909Z" fill="black"/>
</svg>
