<svg width="40" height="40" viewBox="0 0 24 24" fill="none" xmlns="http://www.w3.org/2000/svg">
<rect width="24" height="24" rx="12" fill="white"/>
<path d="M16.3241 9.27696C16.0228 9.09937 15.631 9.09937 15.2996 9.27696L12.9493 10.6385L11.3523 11.5265L9.00196 12.888C8.70064 13.0655 8.30892 13.0655 7.97746 12.888L6.10926 11.8224C5.80794 11.6448 5.59701 11.3193 5.59701 10.9641V8.86258C5.59701 8.5074 5.77781 8.18182 6.10926 8.00423L7.94733 6.96829C8.24865 6.7907 8.64037 6.7907 8.97183 6.96829L10.8099 8.00423C11.1112 8.18182 11.3221 8.5074 11.3221 8.86258V10.2241L12.9192 9.30656V7.94504C12.9192 7.58985 12.7384 7.26427 12.4069 7.08668L9.00196 5.13319C8.70064 4.9556 8.30892 4.9556 7.97746 5.13319L4.51225 7.08668C4.18079 7.26427 4 7.58985 4 7.94504V11.8816C4 12.2368 4.18079 12.5624 4.51225 12.74L7.97746 14.6935C8.27878 14.8711 8.67051 14.8711 9.00196 14.6935L11.3523 13.3615L12.9493 12.444L15.2996 11.1121C15.6009 10.9345 15.9926 10.9345 16.3241 11.1121L18.1622 12.148C18.4635 12.3256 18.6744 12.6512 18.6744 13.0064V15.1078C18.6744 15.463 18.4937 15.7886 18.1622 15.9662L16.3241 17.0317C16.0228 17.2093 15.631 17.2093 15.2996 17.0317L13.4616 15.9958C13.1602 15.8182 12.9493 15.4926 12.9493 15.1374V13.7759L11.3523 14.6935V16.055C11.3523 16.4101 11.5331 16.7357 11.8645 16.9133L15.3298 18.8668C15.631 19.0444 16.0228 19.0444 16.3542 18.8668L19.8195 16.9133C20.1208 16.7357 20.3317 16.4101 20.3317 16.055V12.1184C20.3317 11.7632 20.1509 11.4377 19.8195 11.2601L16.3241 9.27696Z" fill="#8247E5"/>
</svg>
