<svg width="40" height="40" viewBox="0 0 24 24" fill="none" xmlns="http://www.w3.org/2000/svg">
<circle cx="12" cy="12" r="12" fill="black"/>
<g clip-path="url(#clip0_3106_9171)">
<path d="M18.478 15.5382L16.317 17.7961C16.27 17.8451 16.2132 17.8842 16.15 17.9109C16.0868 17.9377 16.0187 17.9514 15.9498 17.9514H5.70541C5.65653 17.9514 5.60871 17.9375 5.56784 17.9114C5.52696 17.8853 5.4948 17.8481 5.47532 17.8044C5.45584 17.7607 5.44987 17.7125 5.45816 17.6655C5.46645 17.6186 5.48863 17.5751 5.52198 17.5402L7.68466 15.2824C7.73152 15.2335 7.78817 15.1945 7.85112 15.1678C7.91409 15.141 7.98201 15.1272 8.05069 15.1271H18.2946C18.3434 15.1271 18.3913 15.141 18.4322 15.1671C18.473 15.1932 18.5051 15.2304 18.5247 15.2741C18.5441 15.3177 18.5501 15.366 18.5418 15.4129C18.5335 15.4599 18.5114 15.5034 18.478 15.5382ZM16.317 10.9916C16.27 10.9425 16.2132 10.9034 16.15 10.8767C16.0868 10.85 16.0187 10.8362 15.9498 10.8363H5.70541C5.65653 10.8363 5.60871 10.8502 5.56784 10.8763C5.52696 10.9024 5.4948 10.9396 5.47532 10.9832C5.45584 11.0269 5.44987 11.0752 5.45816 11.1221C5.46645 11.169 5.48863 11.2126 5.52198 11.2474L7.68466 13.5053C7.73152 13.5542 7.78817 13.5932 7.85112 13.6199C7.91409 13.6466 7.98201 13.6605 8.05069 13.6606H18.2946C18.3434 13.6606 18.3913 13.6467 18.4322 13.6206C18.473 13.5944 18.5051 13.5573 18.5247 13.5136C18.5441 13.4699 18.5501 13.4217 18.5418 13.3747C18.5335 13.3278 18.5114 13.2843 18.478 13.2494L16.317 10.9916ZM5.70541 9.36979H15.9498C16.0187 9.36981 16.0868 9.35605 16.15 9.32932C16.2132 9.3026 16.27 9.26349 16.317 9.21445L18.478 6.95661C18.5114 6.9218 18.5335 6.87825 18.5418 6.83132C18.5501 6.78439 18.5441 6.73612 18.5247 6.69245C18.5051 6.64877 18.473 6.6116 18.4322 6.58548C18.3913 6.55937 18.3434 6.54546 18.2946 6.54546H8.05069C7.98201 6.54557 7.91409 6.55942 7.85112 6.58613C7.78817 6.61285 7.73152 6.65188 7.68466 6.70079L5.52254 8.95863C5.48922 8.9934 5.46705 9.03692 5.45874 9.08378C5.45044 9.13066 5.45635 9.17889 5.47577 9.22255C5.49518 9.2662 5.52725 9.30337 5.56804 9.32953C5.60884 9.35569 5.65658 9.36967 5.70541 9.36979Z" fill="url(#paint0_linear_3106_9171)"/>
</g>
<defs>
<linearGradient id="paint0_linear_3106_9171" x1="6.55955" y1="18.2232" x2="16.9892" y2="6.15451" gradientUnits="userSpaceOnUse">
<stop offset="0.08" stop-color="#9945FF"/>
<stop offset="0.3" stop-color="#8752F3"/>
<stop offset="0.5" stop-color="#5497D5"/>
<stop offset="0.6" stop-color="#43B4CA"/>
<stop offset="0.72" stop-color="#28E0B9"/>
<stop offset="0.97" stop-color="#19FB9B"/>
</linearGradient>
<clipPath id="clip0_3106_9171">
<rect width="13.0909" height="11.4059" fill="white" transform="translate(5.45453 6.54546)"/>
</clipPath>
</defs>
</svg>
