<svg width="40" height="40" viewBox="0 0 24 24" fill="none" xmlns="http://www.w3.org/2000/svg">
<path d="M23.9901 12C23.9901 13.5759 23.6798 15.1363 23.077 16.5922C22.4742 18.0481 21.5906 19.371 20.4768 20.4853C19.363 21.5996 18.0406 22.4835 16.5853 23.0865C15.13 23.6896 13.5702 24 11.995 24C10.4198 24 8.86004 23.6896 7.40473 23.0865C5.94943 22.4835 4.62711 21.5996 3.51326 20.4853C2.39942 19.371 1.51587 18.0481 0.913067 16.5922C0.31026 15.1363 -2.98224e-07 13.5759 0 12C6.02292e-07 8.8174 1.26376 5.76516 3.51327 3.51472C5.76277 1.26429 8.81375 1.32614e-07 11.995 0C15.1763 -1.20558e-07 18.2273 1.26429 20.4768 3.51472C22.7263 5.76516 23.9901 8.8174 23.9901 12Z" fill="black"/>
<path fill-rule="evenodd" clip-rule="evenodd" d="M12 22C17.5228 22 22 17.5228 22 12C22 6.47715 17.5228 2 12 2C6.47715 2 2 6.47715 2 12C2 17.5228 6.47715 22 12 22ZM11.9492 21.4924C17.1917 21.4924 21.4416 17.2425 21.4416 12C21.4416 6.7575 17.1917 2.50761 11.9492 2.50761C6.70674 2.50761 2.45685 6.7575 2.45685 12C2.45685 17.2425 6.70674 21.4924 11.9492 21.4924Z" fill="url(#paint0_linear_10313_72295)"/>
<path d="M11.6321 3.75027C11.7641 3.39966 12.2601 3.39966 12.3921 3.75027L14.1528 8.42505C14.21 8.57689 14.3521 8.68011 14.5141 8.68758L19.5042 8.91747C19.8785 8.93472 20.0317 9.4064 19.7391 9.64034L15.8372 12.7594C15.7104 12.8607 15.6562 13.0277 15.6991 13.1842L17.0225 18.0011C17.1218 18.3623 16.7205 18.6538 16.4076 18.4478L12.2354 15.7007C12.0999 15.6115 11.9243 15.6115 11.7888 15.7007L7.61663 18.4478C7.30371 18.6538 6.90247 18.3623 7.00172 18.0011L8.32509 13.1842C8.36807 13.0277 8.31381 12.8607 8.18707 12.7594L4.28517 9.64034C3.99252 9.4064 4.14578 8.93472 4.52004 8.91747L9.51009 8.68758C9.67217 8.68011 9.81424 8.57689 9.87143 8.42505L11.6321 3.75027Z" fill="url(#paint1_linear_10313_72295)"/>
<defs>
<linearGradient id="paint0_linear_10313_72295" x1="22" y1="13.0152" x2="3.3198" y2="7.02538" gradientUnits="userSpaceOnUse">
<stop stop-color="#84ABDC"/>
<stop offset="1" stop-color="#F6F5AE"/>
</linearGradient>
<linearGradient id="paint1_linear_10313_72295" x1="20.4893" y1="9.98489" x2="3.81414" y2="11.0001" gradientUnits="userSpaceOnUse">
<stop stop-color="#7DA7DE"/>
<stop offset="1" stop-color="#F9F6AC"/>
</linearGradient>
</defs>
</svg>
