<svg width="28" height="28" viewBox="0 0 28 28" fill="none" xmlns="http://www.w3.org/2000/svg">
<path d="M24.5555 9.74749V7.85541C24.5555 6.09088 23.0666 4.6665 21.2221 4.6665H5.66658C3.82214 4.6665 2.33325 6.09088 2.33325 7.85541V20.611C2.33325 22.3543 3.82214 23.7574 5.66658 23.7574H22.3333C24.1777 23.7574 25.6666 22.333 25.6666 20.611V12.0648C25.6444 11.1506 25.2221 10.3428 24.5555 9.74749ZM5.66658 6.79244H21.2221C21.8444 6.79244 22.3333 7.26015 22.3333 7.85541V8.91838H22.311H5.66658C5.04436 8.91838 4.55547 8.45067 4.55547 7.85541C4.55547 7.26015 5.04436 6.79244 5.66658 6.79244ZM22.311 21.6527H5.66658C5.06659 21.6527 4.55547 21.185 4.55547 20.6323V10.853C4.91103 10.9593 5.26659 11.0443 5.66658 11.0443H22.3333C22.9333 11.0443 23.4444 11.512 23.4444 12.0648V13.149H21.2221C19.3777 13.149 17.8888 14.5734 17.8888 16.3379C17.8888 18.1024 19.3777 19.5268 21.2221 19.5268H23.4221V20.611C23.4221 21.185 22.911 21.6527 22.311 21.6527ZM23.4221 15.2749V17.4009H21.2221C20.5999 17.4009 20.111 16.9332 20.111 16.3379C20.111 15.7426 20.5999 15.2749 21.2221 15.2749H23.4221Z" fill="white"/>
</svg>
